STARTFONT 2.1
COMMENT Font for BITMAP 8x16.
COMMENT   Whole bitmap patterns of 8x16 can be displayed by
COMMENT   overwriting 16 characters of this font (one char per one row).
COMMENT 92.11.27 Created by K.Handa <handa@etl.go.jp>
COMMENT This font is public domain.
FONT -ETL-Fixed-Medium-R-Normal--16-120-100-100-M-80-BITMAP.8x16-0
SIZE 16 100 100
FONTBOUNDINGBOX 8 16 0 -2
STARTPROPERTIES 22
FOUNDRY "ETL"
FAMILY_NAME "Fixed"
WEIGHT_NAME "Medium"
SLANT "R"
SETWIDTH_NAME "Normal"
ADD_STYLE_NAME ""
PIXEL_SIZE 16
POINT_SIZE 120
RESOLUTION_X 100
RESOLUTION_Y 100
SPACING "M"
AVERAGE_WIDTH 80
CHARSET_REGISTRY "BITMAP.8x16"
CHARSET_ENCODING "0"
STRIKEOUT_ASCENT 14
STRIKEOUT_DESCENT 2
X_HEIGHT 16
DEFAULT_CHAR 8224
FONT_DESCENT 2
FONT_ASCENT 14
FACE_NAME "8x16 BITMAP"
COPYRIGHT "Public domain font.  Share and enjoy."
ENDPROPERTIES
CHARS 4082
STARTCHAR C000
ENCODING 8224
SWIDTH 480 0
DWIDTH 8 0
BBX 8 17 0 -2
BITMAP
00
00
00
00
00
00
00
00
00
00
00
00
00
00
00
00
00
ENDCHAR
STARTCHAR CFFFFF
ENCODING 8225
SWIDTH 480 0
DWIDTH 8 0
BBX 8 16 0 -2
BITMAP
FF
FF
FF
FF
FF
FF
FF
FF
FF
FF
FF
FF
FF
FF
FF
FF
ENDCHAR
STARTCHAR C001
ENCODING 8480
SWIDTH 480 0
DWIDTH 8 0
BBX 8 16 0 -2
BITMAP
01
00
00
00
00
00
00
00
00
00
00
00
00
00
00
00
ENDCHAR
STARTCHAR C002
ENCODING 8481
SWIDTH 480 0
DWIDTH 8 0
BBX 8 16 0 -2
BITMAP
02
00
00
00
00
00
00
00
00
00
00
00
00
00
00
00
ENDCHAR
STARTCHAR C003
ENCODING 8482
SWIDTH 480 0
DWIDTH 8 0
BBX 8 16 0 -2
BITMAP
03
00
00
00
00
00
00
00
00
00
00
00
00
00
00
00
ENDCHAR
STARTCHAR C004
ENCODING 8483
SWIDTH 480 0
DWIDTH 8 0
BBX 8 16 0 -2
BITMAP
04
00
00
00
00
00
00
00
00
00
00
00
00
00
00
00
ENDCHAR
STARTCHAR C005
ENCODING 8484
SWIDTH 480 0
DWIDTH 8 0
BBX 8 16 0 -2
BITMAP
05
00
00
00
00
00
00
00
00
00
00
00
00
00
00
00
ENDCHAR
STARTCHAR C006
ENCODING 8485
SWIDTH 480 0
DWIDTH 8 0
BBX 8 16 0 -2
BITMAP
06
00
00
00
00
00
00
00
00
00
00
00
00
00
00
00
ENDCHAR
STARTCHAR C007
ENCODING 8486
SWIDTH 480 0
DWIDTH 8 0
BBX 8 16 0 -2
BITMAP
07
00
00
00
00
00
00
00
00
00
00
00
00
00
00
00
ENDCHAR
STARTCHAR C008
ENCODING 8487
SWIDTH 480 0
DWIDTH 8 0
BBX 8 16 0 -2
BITMAP
08
00
00
00
00
00
00
00
00
00
00
00
00
00
00
00
ENDCHAR
STARTCHAR C009
ENCODING 8488
SWIDTH 480 0
DWIDTH 8 0
BBX 8 16 0 -2
BITMAP
09
00
00
00
00
00
00
00
00
00
00
00
00
00
00
00
ENDCHAR
STARTCHAR C00a
ENCODING 8489
SWIDTH 480 0
DWIDTH 8 0
BBX 8 16 0 -2
BITMAP
0a
00
00
00
00
00
00
00
00
00
00
00
00
00
00
00
ENDCHAR
STARTCHAR C00b
ENCODING 8490
SWIDTH 480 0
DWIDTH 8 0
BBX 8 16 0 -2
BITMAP
0b
00
00
00
00
00
00
00
00
00
00
00
00
00
00
00
ENDCHAR
STARTCHAR C00c
ENCODING 8491
SWIDTH 480 0
DWIDTH 8 0
BBX 8 16 0 -2
BITMAP
0c
00
00
00
00
00
00
00
00
00
00
00
00
00
00
00
ENDCHAR
STARTCHAR C00d
ENCODING 8492
SWIDTH 480 0
DWIDTH 8 0
BBX 8 16 0 -2
BITMAP
0d
00
00
00
00
00
00
00
00
00
00
00
00
00
00
00
ENDCHAR
STARTCHAR C00e
ENCODING 8493
SWIDTH 480 0
DWIDTH 8 0
BBX 8 16 0 -2
BITMAP
0e
00
00
00
00
00
00
00
00
00
00
00
00
00
00
00
ENDCHAR
STARTCHAR C00f
ENCODING 8494
SWIDTH 480 0
DWIDTH 8 0
BBX 8 16 0 -2
BITMAP
0f
00
00
00
00
00
00
00
00
00
00
00
00
00
00
00
ENDCHAR
STARTCHAR C010
ENCODING 8495
SWIDTH 480 0
DWIDTH 8 0
BBX 8 16 0 -2
BITMAP
10
00
00
00
00
00
00
00
00
00
00
00
00
00
00
00
ENDCHAR
STARTCHAR C011
ENCODING 8496
SWIDTH 480 0
DWIDTH 8 0
BBX 8 16 0 -2
BITMAP
11
00
00
00
00
00
00
00
00
00
00
00
00
00
00
00
ENDCHAR
STARTCHAR C012
ENCODING 8497
SWIDTH 480 0
DWIDTH 8 0
BBX 8 16 0 -2
BITMAP
12
00
00
00
00
00
00
00
00
00
00
00
00
00
00
00
ENDCHAR
STARTCHAR C013
ENCODING 8498
SWIDTH 480 0
DWIDTH 8 0
BBX 8 16 0 -2
BITMAP
13
00
00
00
00
00
00
00
00
00
00
00
00
00
00
00
ENDCHAR
STARTCHAR C014
ENCODING 8499
SWIDTH 480 0
DWIDTH 8 0
BBX 8 16 0 -2
BITMAP
14
00
00
00
00
00
00
00
00
00
00
00
00
00
00
00
ENDCHAR
STARTCHAR C015
ENCODING 8500
SWIDTH 480 0
DWIDTH 8 0
BBX 8 16 0 -2
BITMAP
15
00
00
00
00
00
00
00
00
00
00
00
00
00
00
00
ENDCHAR
STARTCHAR C016
ENCODING 8501
SWIDTH 480 0
DWIDTH 8 0
BBX 8 16 0 -2
BITMAP
16
00
00
00
00
00
00
00
00
00
00
00
00
00
00
00
ENDCHAR
STARTCHAR C017
ENCODING 8502
SWIDTH 480 0
DWIDTH 8 0
BBX 8 16 0 -2
BITMAP
17
00
00
00
00
00
00
00
00
00
00
00
00
00
00
00
ENDCHAR
STARTCHAR C018
ENCODING 8503
SWIDTH 480 0
DWIDTH 8 0
BBX 8 16 0 -2
BITMAP
18
00
00
00
00
00
00
00
00
00
00
00
00
00
00
00
ENDCHAR
STARTCHAR C019
ENCODING 8504
SWIDTH 480 0
DWIDTH 8 0
BBX 8 16 0 -2
BITMAP
19
00
00
00
00
00
00
00
00
00
00
00
00
00
00
00
ENDCHAR
STARTCHAR C01a
ENCODING 8505
SWIDTH 480 0
DWIDTH 8 0
BBX 8 16 0 -2
BITMAP
1a
00
00
00
00
00
00
00
00
00
00
00
00
00
00
00
ENDCHAR
STARTCHAR C01b
ENCODING 8506
SWIDTH 480 0
DWIDTH 8 0
BBX 8 16 0 -2
BITMAP
1b
00
00
00
00
00
00
00
00
00
00
00
00
00
00
00
ENDCHAR
STARTCHAR C01c
ENCODING 8507
SWIDTH 480 0
DWIDTH 8 0
BBX 8 16 0 -2
BITMAP
1c
00
00
00
00
00
00
00
00
00
00
00
00
00
00
00
ENDCHAR
STARTCHAR C01d
ENCODING 8508
SWIDTH 480 0
DWIDTH 8 0
BBX 8 16 0 -2
BITMAP
1d
00
00
00
00
00
00
00
00
00
00
00
00
00
00
00
ENDCHAR
STARTCHAR C01e
ENCODING 8509
SWIDTH 480 0
DWIDTH 8 0
BBX 8 16 0 -2
BITMAP
1e
00
00
00
00
00
00
00
00
00
00
00
00
00
00
00
ENDCHAR
STARTCHAR C01f
ENCODING 8510
SWIDTH 480 0
DWIDTH 8 0
BBX 8 16 0 -2
BITMAP
1f
00
00
00
00
00
00
00
00
00
00
00
00
00
00
00
ENDCHAR
STARTCHAR C020
ENCODING 8511
SWIDTH 480 0
DWIDTH 8 0
BBX 8 16 0 -2
BITMAP
20
00
00
00
00
00
00
00
00
00
00
00
00
00
00
00
ENDCHAR
STARTCHAR C021
ENCODING 8512
SWIDTH 480 0
DWIDTH 8 0
BBX 8 16 0 -2
BITMAP
21
00
00
00
00
00
00
00
00
00
00
00
00
00
00
00
ENDCHAR
STARTCHAR C022
ENCODING 8513
SWIDTH 480 0
DWIDTH 8 0
BBX 8 16 0 -2
BITMAP
22
00
00
00
00
00
00
00
00
00
00
00
00
00
00
00
ENDCHAR
STARTCHAR C023
ENCODING 8514
SWIDTH 480 0
DWIDTH 8 0
BBX 8 16 0 -2
BITMAP
23
00
00
00
00
00
00
00
00
00
00
00
00
00
00
00
ENDCHAR
STARTCHAR C024
ENCODING 8515
SWIDTH 480 0
DWIDTH 8 0
BBX 8 16 0 -2
BITMAP
24
00
00
00
00
00
00
00
00
00
00
00
00
00
00
00
ENDCHAR
STARTCHAR C025
ENCODING 8516
SWIDTH 480 0
DWIDTH 8 0
BBX 8 16 0 -2
BITMAP
25
00
00
00
00
00
00
00
00
00
00
00
00
00
00
00
ENDCHAR
STARTCHAR C026
ENCODING 8517
SWIDTH 480 0
DWIDTH 8 0
BBX 8 16 0 -2
BITMAP
26
00
00
00
00
00
00
00
00
00
00
00
00
00
00
00
ENDCHAR
STARTCHAR C027
ENCODING 8518
SWIDTH 480 0
DWIDTH 8 0
BBX 8 16 0 -2
BITMAP
27
00
00
00
00
00
00
00
00
00
00
00
00
00
00
00
ENDCHAR
STARTCHAR C028
ENCODING 8519
SWIDTH 480 0
DWIDTH 8 0
BBX 8 16 0 -2
BITMAP
28
00
00
00
00
00
00
00
00
00
00
00
00
00
00
00
ENDCHAR
STARTCHAR C029
ENCODING 8520
SWIDTH 480 0
DWIDTH 8 0
BBX 8 16 0 -2
BITMAP
29
00
00
00
00
00
00
00
00
00
00
00
00
00
00
00
ENDCHAR
STARTCHAR C02a
ENCODING 8521
SWIDTH 480 0
DWIDTH 8 0
BBX 8 16 0 -2
BITMAP
2a
00
00
00
00
00
00
00
00
00
00
00
00
00
00
00
ENDCHAR
STARTCHAR C02b
ENCODING 8522
SWIDTH 480 0
DWIDTH 8 0
BBX 8 16 0 -2
BITMAP
2b
00
00
00
00
00
00
00
00
00
00
00
00
00
00
00
ENDCHAR
STARTCHAR C02c
ENCODING 8523
SWIDTH 480 0
DWIDTH 8 0
BBX 8 16 0 -2
BITMAP
2c
00
00
00
00
00
00
00
00
00
00
00
00
00
00
00
ENDCHAR
STARTCHAR C02d
ENCODING 8524
SWIDTH 480 0
DWIDTH 8 0
BBX 8 16 0 -2
BITMAP
2d
00
00
00
00
00
00
00
00
00
00
00
00
00
00
00
ENDCHAR
STARTCHAR C02e
ENCODING 8525
SWIDTH 480 0
DWIDTH 8 0
BBX 8 16 0 -2
BITMAP
2e
00
00
00
00
00
00
00
00
00
00
00
00
00
00
00
ENDCHAR
STARTCHAR C02f
ENCODING 8526
SWIDTH 480 0
DWIDTH 8 0
BBX 8 16 0 -2
BITMAP
2f
00
00
00
00
00
00
00
00
00
00
00
00
00
00
00
ENDCHAR
STARTCHAR C030
ENCODING 8527
SWIDTH 480 0
DWIDTH 8 0
BBX 8 16 0 -2
BITMAP
30
00
00
00
00
00
00
00
00
00
00
00
00
00
00
00
ENDCHAR
STARTCHAR C031
ENCODING 8528
SWIDTH 480 0
DWIDTH 8 0
BBX 8 16 0 -2
BITMAP
31
00
00
00
00
00
00
00
00
00
00
00
00
00
00
00
ENDCHAR
STARTCHAR C032
ENCODING 8529
SWIDTH 480 0
DWIDTH 8 0
BBX 8 16 0 -2
BITMAP
32
00
00
00
00
00
00
00
00
00
00
00
00
00
00
00
ENDCHAR
STARTCHAR C033
ENCODING 8530
SWIDTH 480 0
DWIDTH 8 0
BBX 8 16 0 -2
BITMAP
33
00
00
00
00
00
00
00
00
00
00
00
00
00
00
00
ENDCHAR
STARTCHAR C034
ENCODING 8531
SWIDTH 480 0
DWIDTH 8 0
BBX 8 16 0 -2
BITMAP
34
00
00
00
00
00
00
00
00
00
00
00
00
00
00
00
ENDCHAR
STARTCHAR C035
ENCODING 8532
SWIDTH 480 0
DWIDTH 8 0
BBX 8 16 0 -2
BITMAP
35
00
00
00
00
00
00
00
00
00
00
00
00
00
00
00
ENDCHAR
STARTCHAR C036
ENCODING 8533
SWIDTH 480 0
DWIDTH 8 0
BBX 8 16 0 -2
BITMAP
36
00
00
00
00
00
00
00
00
00
00
00
00
00
00
00
ENDCHAR
STARTCHAR C037
ENCODING 8534
SWIDTH 480 0
DWIDTH 8 0
BBX 8 16 0 -2
BITMAP
37
00
00
00
00
00
00
00
00
00
00
00
00
00
00
00
ENDCHAR
STARTCHAR C038
ENCODING 8535
SWIDTH 480 0
DWIDTH 8 0
BBX 8 16 0 -2
BITMAP
38
00
00
00
00
00
00
00
00
00
00
00
00
00
00
00
ENDCHAR
STARTCHAR C039
ENCODING 8536
SWIDTH 480 0
DWIDTH 8 0
BBX 8 16 0 -2
BITMAP
39
00
00
00
00
00
00
00
00
00
00
00
00
00
00
00
ENDCHAR
STARTCHAR C03a
ENCODING 8537
SWIDTH 480 0
DWIDTH 8 0
BBX 8 16 0 -2
BITMAP
3a
00
00
00
00
00
00
00
00
00
00
00
00
00
00
00
ENDCHAR
STARTCHAR C03b
ENCODING 8538
SWIDTH 480 0
DWIDTH 8 0
BBX 8 16 0 -2
BITMAP
3b
00
00
00
00
00
00
00
00
00
00
00
00
00
00
00
ENDCHAR
STARTCHAR C03c
ENCODING 8539
SWIDTH 480 0
DWIDTH 8 0
BBX 8 16 0 -2
BITMAP
3c
00
00
00
00
00
00
00
00
00
00
00
00
00
00
00
ENDCHAR
STARTCHAR C03d
ENCODING 8540
SWIDTH 480 0
DWIDTH 8 0
BBX 8 16 0 -2
BITMAP
3d
00
00
00
00
00
00
00
00
00
00
00
00
00
00
00
ENDCHAR
STARTCHAR C03e
ENCODING 8541
SWIDTH 480 0
DWIDTH 8 0
BBX 8 16 0 -2
BITMAP
3e
00
00
00
00
00
00
00
00
00
00
00
00
00
00
00
ENDCHAR
STARTCHAR C03f
ENCODING 8542
SWIDTH 480 0
DWIDTH 8 0
BBX 8 16 0 -2
BITMAP
3f
00
00
00
00
00
00
00
00
00
00
00
00
00
00
00
ENDCHAR
STARTCHAR C040
ENCODING 8543
SWIDTH 480 0
DWIDTH 8 0
BBX 8 16 0 -2
BITMAP
40
00
00
00
00
00
00
00
00
00
00
00
00
00
00
00
ENDCHAR
STARTCHAR C041
ENCODING 8544
SWIDTH 480 0
DWIDTH 8 0
BBX 8 16 0 -2
BITMAP
41
00
00
00
00
00
00
00
00
00
00
00
00
00
00
00
ENDCHAR
STARTCHAR C042
ENCODING 8545
SWIDTH 480 0
DWIDTH 8 0
BBX 8 16 0 -2
BITMAP
42
00
00
00
00
00
00
00
00
00
00
00
00
00
00
00
ENDCHAR
STARTCHAR C043
ENCODING 8546
SWIDTH 480 0
DWIDTH 8 0
BBX 8 16 0 -2
BITMAP
43
00
00
00
00
00
00
00
00
00
00
00
00
00
00
00
ENDCHAR
STARTCHAR C044
ENCODING 8547
SWIDTH 480 0
DWIDTH 8 0
BBX 8 16 0 -2
BITMAP
44
00
00
00
00
00
00
00
00
00
00
00
00
00
00
00
ENDCHAR
STARTCHAR C045
ENCODING 8548
SWIDTH 480 0
DWIDTH 8 0
BBX 8 16 0 -2
BITMAP
45
00
00
00
00
00
00
00
00
00
00
00
00
00
00
00
ENDCHAR
STARTCHAR C046
ENCODING 8549
SWIDTH 480 0
DWIDTH 8 0
BBX 8 16 0 -2
BITMAP
46
00
00
00
00
00
00
00
00
00
00
00
00
00
00
00
ENDCHAR
STARTCHAR C047
ENCODING 8550
SWIDTH 480 0
DWIDTH 8 0
BBX 8 16 0 -2
BITMAP
47
00
00
00
00
00
00
00
00
00
00
00
00
00
00
00
ENDCHAR
STARTCHAR C048
ENCODING 8551
SWIDTH 480 0
DWIDTH 8 0
BBX 8 16 0 -2
BITMAP
48
00
00
00
00
00
00
00
00
00
00
00
00
00
00
00
ENDCHAR
STARTCHAR C049
ENCODING 8552
SWIDTH 480 0
DWIDTH 8 0
BBX 8 16 0 -2
BITMAP
49
00
00
00
00
00
00
00
00
00
00
00
00
00
00
00
ENDCHAR
STARTCHAR C04a
ENCODING 8553
SWIDTH 480 0
DWIDTH 8 0
BBX 8 16 0 -2
BITMAP
4a
00
00
00
00
00
00
00
00
00
00
00
00
00
00
00
ENDCHAR
STARTCHAR C04b
ENCODING 8554
SWIDTH 480 0
DWIDTH 8 0
BBX 8 16 0 -2
BITMAP
4b
00
00
00
00
00
00
00
00
00
00
00
00
00
00
00
ENDCHAR
STARTCHAR C04c
ENCODING 8555
SWIDTH 480 0
DWIDTH 8 0
BBX 8 16 0 -2
BITMAP
4c
00
00
00
00
00
00
00
00
00
00
00
00
00
00
00
ENDCHAR
STARTCHAR C04d
ENCODING 8556
SWIDTH 480 0
DWIDTH 8 0
BBX 8 16 0 -2
BITMAP
4d
00
00
00
00
00
00
00
00
00
00
00
00
00
00
00
ENDCHAR
STARTCHAR C04e
ENCODING 8557
SWIDTH 480 0
DWIDTH 8 0
BBX 8 16 0 -2
BITMAP
4e
00
00
00
00
00
00
00
00
00
00
00
00
00
00
00
ENDCHAR
STARTCHAR C04f
ENCODING 8558
SWIDTH 480 0
DWIDTH 8 0
BBX 8 16 0 -2
BITMAP
4f
00
00
00
00
00
00
00
00
00
00
00
00
00
00
00
ENDCHAR
STARTCHAR C050
ENCODING 8559
SWIDTH 480 0
DWIDTH 8 0
BBX 8 16 0 -2
BITMAP
50
00
00
00
00
00
00
00
00
00
00
00
00
00
00
00
ENDCHAR
STARTCHAR C051
ENCODING 8560
SWIDTH 480 0
DWIDTH 8 0
BBX 8 16 0 -2
BITMAP
51
00
00
00
00
00
00
00
00
00
00
00
00
00
00
00
ENDCHAR
STARTCHAR C052
ENCODING 8561
SWIDTH 480 0
DWIDTH 8 0
BBX 8 16 0 -2
BITMAP
52
00
00
00
00
00
00
00
00
00
00
00
00
00
00
00
ENDCHAR
STARTCHAR C053
ENCODING 8562
SWIDTH 480 0
DWIDTH 8 0
BBX 8 16 0 -2
BITMAP
53
00
00
00
00
00
00
00
00
00
00
00
00
00
00
00
ENDCHAR
STARTCHAR C054
ENCODING 8563
SWIDTH 480 0
DWIDTH 8 0
BBX 8 16 0 -2
BITMAP
54
00
00
00
00
00
00
00
00
00
00
00
00
00
00
00
ENDCHAR
STARTCHAR C055
ENCODING 8564
SWIDTH 480 0
DWIDTH 8 0
BBX 8 16 0 -2
BITMAP
55
00
00
00
00
00
00
00
00
00
00
00
00
00
00
00
ENDCHAR
STARTCHAR C056
ENCODING 8565
SWIDTH 480 0
DWIDTH 8 0
BBX 8 16 0 -2
BITMAP
56
00
00
00
00
00
00
00
00
00
00
00
00
00
00
00
ENDCHAR
STARTCHAR C057
ENCODING 8566
SWIDTH 480 0
DWIDTH 8 0
BBX 8 16 0 -2
BITMAP
57
00
00
00
00
00
00
00
00
00
00
00
00
00
00
00
ENDCHAR
STARTCHAR C058
ENCODING 8567
SWIDTH 480 0
DWIDTH 8 0
BBX 8 16 0 -2
BITMAP
58
00
00
00
00
00
00
00
00
00
00
00
00
00
00
00
ENDCHAR
STARTCHAR C059
ENCODING 8568
SWIDTH 480 0
DWIDTH 8 0
BBX 8 16 0 -2
BITMAP
59
00
00
00
00
00
00
00
00
00
00
00
00
00
00
00
ENDCHAR
STARTCHAR C05a
ENCODING 8569
SWIDTH 480 0
DWIDTH 8 0
BBX 8 16 0 -2
BITMAP
5a
00
00
00
00
00
00
00
00
00
00
00
00
00
00
00
ENDCHAR
STARTCHAR C05b
ENCODING 8570
SWIDTH 480 0
DWIDTH 8 0
BBX 8 16 0 -2
BITMAP
5b
00
00
00
00
00
00
00
00
00
00
00
00
00
00
00
ENDCHAR
STARTCHAR C05c
ENCODING 8571
SWIDTH 480 0
DWIDTH 8 0
BBX 8 16 0 -2
BITMAP
5c
00
00
00
00
00
00
00
00
00
00
00
00
00
00
00
ENDCHAR
STARTCHAR C05d
ENCODING 8572
SWIDTH 480 0
DWIDTH 8 0
BBX 8 16 0 -2
BITMAP
5d
00
00
00
00
00
00
00
00
00
00
00
00
00
00
00
ENDCHAR
STARTCHAR C05e
ENCODING 8573
SWIDTH 480 0
DWIDTH 8 0
BBX 8 16 0 -2
BITMAP
5e
00
00
00
00
00
00
00
00
00
00
00
00
00
00
00
ENDCHAR
STARTCHAR C05f
ENCODING 8574
SWIDTH 480 0
DWIDTH 8 0
BBX 8 16 0 -2
BITMAP
5f
00
00
00
00
00
00
00
00
00
00
00
00
00
00
00
ENDCHAR
STARTCHAR C060
ENCODING 8575
SWIDTH 480 0
DWIDTH 8 0
BBX 8 16 0 -2
BITMAP
60
00
00
00
00
00
00
00
00
00
00
00
00
00
00
00
ENDCHAR
STARTCHAR C061
ENCODING 8736
SWIDTH 480 0
DWIDTH 8 0
BBX 8 16 0 -2
BITMAP
61
00
00
00
00
00
00
00
00
00
00
00
00
00
00
00
ENDCHAR
STARTCHAR C062
ENCODING 8737
SWIDTH 480 0
DWIDTH 8 0
BBX 8 16 0 -2
BITMAP
62
00
00
00
00
00
00
00
00
00
00
00
00
00
00
00
ENDCHAR
STARTCHAR C063
ENCODING 8738
SWIDTH 480 0
DWIDTH 8 0
BBX 8 16 0 -2
BITMAP
63
00
00
00
00
00
00
00
00
00
00
00
00
00
00
00
ENDCHAR
STARTCHAR C064
ENCODING 8739
SWIDTH 480 0
DWIDTH 8 0
BBX 8 16 0 -2
BITMAP
64
00
00
00
00
00
00
00
00
00
00
00
00
00
00
00
ENDCHAR
STARTCHAR C065
ENCODING 8740
SWIDTH 480 0
DWIDTH 8 0
BBX 8 16 0 -2
BITMAP
65
00
00
00
00
00
00
00
00
00
00
00
00
00
00
00
ENDCHAR
STARTCHAR C066
ENCODING 8741
SWIDTH 480 0
DWIDTH 8 0
BBX 8 16 0 -2
BITMAP
66
00
00
00
00
00
00
00
00
00
00
00
00
00
00
00
ENDCHAR
STARTCHAR C067
ENCODING 8742
SWIDTH 480 0
DWIDTH 8 0
BBX 8 16 0 -2
BITMAP
67
00
00
00
00
00
00
00
00
00
00
00
00
00
00
00
ENDCHAR
STARTCHAR C068
ENCODING 8743
SWIDTH 480 0
DWIDTH 8 0
BBX 8 16 0 -2
BITMAP
68
00
00
00
00
00
00
00
00
00
00
00
00
00
00
00
ENDCHAR
STARTCHAR C069
ENCODING 8744
SWIDTH 480 0
DWIDTH 8 0
BBX 8 16 0 -2
BITMAP
69
00
00
00
00
00
00
00
00
00
00
00
00
00
00
00
ENDCHAR
STARTCHAR C06a
ENCODING 8745
SWIDTH 480 0
DWIDTH 8 0
BBX 8 16 0 -2
BITMAP
6a
00
00
00
00
00
00
00
00
00
00
00
00
00
00
00
ENDCHAR
STARTCHAR C06b
ENCODING 8746
SWIDTH 480 0
DWIDTH 8 0
BBX 8 16 0 -2
BITMAP
6b
00
00
00
00
00
00
00
00
00
00
00
00
00
00
00
ENDCHAR
STARTCHAR C06c
ENCODING 8747
SWIDTH 480 0
DWIDTH 8 0
BBX 8 16 0 -2
BITMAP
6c
00
00
00
00
00
00
00
00
00
00
00
00
00
00
00
ENDCHAR
STARTCHAR C06d
ENCODING 8748
SWIDTH 480 0
DWIDTH 8 0
BBX 8 16 0 -2
BITMAP
6d
00
00
00
00
00
00
00
00
00
00
00
00
00
00
00
ENDCHAR
STARTCHAR C06e
ENCODING 8749
SWIDTH 480 0
DWIDTH 8 0
BBX 8 16 0 -2
BITMAP
6e
00
00
00
00
00
00
00
00
00
00
00
00
00
00
00
ENDCHAR
STARTCHAR C06f
ENCODING 8750
SWIDTH 480 0
DWIDTH 8 0
BBX 8 16 0 -2
BITMAP
6f
00
00
00
00
00
00
00
00
00
00
00
00
00
00
00
ENDCHAR
STARTCHAR C070
ENCODING 8751
SWIDTH 480 0
DWIDTH 8 0
BBX 8 16 0 -2
BITMAP
70
00
00
00
00
00
00
00
00
00
00
00
00
00
00
00
ENDCHAR
STARTCHAR C071
ENCODING 8752
SWIDTH 480 0
DWIDTH 8 0
BBX 8 16 0 -2
BITMAP
71
00
00
00
00
00
00
00
00
00
00
00
00
00
00
00
ENDCHAR
STARTCHAR C072
ENCODING 8753
SWIDTH 480 0
DWIDTH 8 0
BBX 8 16 0 -2
BITMAP
72
00
00
00
00
00
00
00
00
00
00
00
00
00
00
00
ENDCHAR
STARTCHAR C073
ENCODING 8754
SWIDTH 480 0
DWIDTH 8 0
BBX 8 16 0 -2
BITMAP
73
00
00
00
00
00
00
00
00
00
00
00
00
00
00
00
ENDCHAR
STARTCHAR C074
ENCODING 8755
SWIDTH 480 0
DWIDTH 8 0
BBX 8 16 0 -2
BITMAP
74
00
00
00
00
00
00
00
00
00
00
00
00
00
00
00
ENDCHAR
STARTCHAR C075
ENCODING 8756
SWIDTH 480 0
DWIDTH 8 0
BBX 8 16 0 -2
BITMAP
75
00
00
00
00
00
00
00
00
00
00
00
00
00
00
00
ENDCHAR
STARTCHAR C076
ENCODING 8757
SWIDTH 480 0
DWIDTH 8 0
BBX 8 16 0 -2
BITMAP
76
00
00
00
00
00
00
00
00
00
00
00
00
00
00
00
ENDCHAR
STARTCHAR C077
ENCODING 8758
SWIDTH 480 0
DWIDTH 8 0
BBX 8 16 0 -2
BITMAP
77
00
00
00
00
00
00
00
00
00
00
00
00
00
00
00
ENDCHAR
STARTCHAR C078
ENCODING 8759
SWIDTH 480 0
DWIDTH 8 0
BBX 8 16 0 -2
BITMAP
78
00
00
00
00
00
00
00
00
00
00
00
00
00
00
00
ENDCHAR
STARTCHAR C079
ENCODING 8760
SWIDTH 480 0
DWIDTH 8 0
BBX 8 16 0 -2
BITMAP
79
00
00
00
00
00
00
00
00
00
00
00
00
00
00
00
ENDCHAR
STARTCHAR C07a
ENCODING 8761
SWIDTH 480 0
DWIDTH 8 0
BBX 8 16 0 -2
BITMAP
7a
00
00
00
00
00
00
00
00
00
00
00
00
00
00
00
ENDCHAR
STARTCHAR C07b
ENCODING 8762
SWIDTH 480 0
DWIDTH 8 0
BBX 8 16 0 -2
BITMAP
7b
00
00
00
00
00
00
00
00
00
00
00
00
00
00
00
ENDCHAR
STARTCHAR C07c
ENCODING 8763
SWIDTH 480 0
DWIDTH 8 0
BBX 8 16 0 -2
BITMAP
7c
00
00
00
00
00
00
00
00
00
00
00
00
00
00
00
ENDCHAR
STARTCHAR C07d
ENCODING 8764
SWIDTH 480 0
DWIDTH 8 0
BBX 8 16 0 -2
BITMAP
7d
00
00
00
00
00
00
00
00
00
00
00
00
00
00
00
ENDCHAR
STARTCHAR C07e
ENCODING 8765
SWIDTH 480 0
DWIDTH 8 0
BBX 8 16 0 -2
BITMAP
7e
00
00
00
00
00
00
00
00
00
00
00
00
00
00
00
ENDCHAR
STARTCHAR C07f
ENCODING 8766
SWIDTH 480 0
DWIDTH 8 0
BBX 8 16 0 -2
BITMAP
7f
00
00
00
00
00
00
00
00
00
00
00
00
00
00
00
ENDCHAR
STARTCHAR C080
ENCODING 8767
SWIDTH 480 0
DWIDTH 8 0
BBX 8 16 0 -2
BITMAP
80
00
00
00
00
00
00
00
00
00
00
00
00
00
00
00
ENDCHAR
STARTCHAR C081
ENCODING 8768
SWIDTH 480 0
DWIDTH 8 0
BBX 8 16 0 -2
BITMAP
81
00
00
00
00
00
00
00
00
00
00
00
00
00
00
00
ENDCHAR
STARTCHAR C082
ENCODING 8769
SWIDTH 480 0
DWIDTH 8 0
BBX 8 16 0 -2
BITMAP
82
00
00
00
00
00
00
00
00
00
00
00
00
00
00
00
ENDCHAR
STARTCHAR C083
ENCODING 8770
SWIDTH 480 0
DWIDTH 8 0
BBX 8 16 0 -2
BITMAP
83
00
00
00
00
00
00
00
00
00
00
00
00
00
00
00
ENDCHAR
STARTCHAR C084
ENCODING 8771
SWIDTH 480 0
DWIDTH 8 0
BBX 8 16 0 -2
BITMAP
84
00
00
00
00
00
00
00
00
00
00
00
00
00
00
00
ENDCHAR
STARTCHAR C085
ENCODING 8772
SWIDTH 480 0
DWIDTH 8 0
BBX 8 16 0 -2
BITMAP
85
00
00
00
00
00
00
00
00
00
00
00
00
00
00
00
ENDCHAR
STARTCHAR C086
ENCODING 8773
SWIDTH 480 0
DWIDTH 8 0
BBX 8 16 0 -2
BITMAP
86
00
00
00
00
00
00
00
00
00
00
00
00
00
00
00
ENDCHAR
STARTCHAR C087
ENCODING 8774
SWIDTH 480 0
DWIDTH 8 0
BBX 8 16 0 -2
BITMAP
87
00
00
00
00
00
00
00
00
00
00
00
00
00
00
00
ENDCHAR
STARTCHAR C088
ENCODING 8775
SWIDTH 480 0
DWIDTH 8 0
BBX 8 16 0 -2
BITMAP
88
00
00
00
00
00
00
00
00
00
00
00
00
00
00
00
ENDCHAR
STARTCHAR C089
ENCODING 8776
SWIDTH 480 0
DWIDTH 8 0
BBX 8 16 0 -2
BITMAP
89
00
00
00
00
00
00
00
00
00
00
00
00
00
00
00
ENDCHAR
STARTCHAR C08a
ENCODING 8777
SWIDTH 480 0
DWIDTH 8 0
BBX 8 16 0 -2
BITMAP
8a
00
00
00
00
00
00
00
00
00
00
00
00
00
00
00
ENDCHAR
STARTCHAR C08b
ENCODING 8778
SWIDTH 480 0
DWIDTH 8 0
BBX 8 16 0 -2
BITMAP
8b
00
00
00
00
00
00
00
00
00
00
00
00
00
00
00
ENDCHAR
STARTCHAR C08c
ENCODING 8779
SWIDTH 480 0
DWIDTH 8 0
BBX 8 16 0 -2
BITMAP
8c
00
00
00
00
00
00
00
00
00
00
00
00
00
00
00
ENDCHAR
STARTCHAR C08d
ENCODING 8780
SWIDTH 480 0
DWIDTH 8 0
BBX 8 16 0 -2
BITMAP
8d
00
00
00
00
00
00
00
00
00
00
00
00
00
00
00
ENDCHAR
STARTCHAR C08e
ENCODING 8781
SWIDTH 480 0
DWIDTH 8 0
BBX 8 16 0 -2
BITMAP
8e
00
00
00
00
00
00
00
00
00
00
00
00
00
00
00
ENDCHAR
STARTCHAR C08f
ENCODING 8782
SWIDTH 480 0
DWIDTH 8 0
BBX 8 16 0 -2
BITMAP
8f
00
00
00
00
00
00
00
00
00
00
00
00
00
00
00
ENDCHAR
STARTCHAR C090
ENCODING 8783
SWIDTH 480 0
DWIDTH 8 0
BBX 8 16 0 -2
BITMAP
90
00
00
00
00
00
00
00
00
00
00
00
00
00
00
00
ENDCHAR
STARTCHAR C091
ENCODING 8784
SWIDTH 480 0
DWIDTH 8 0
BBX 8 16 0 -2
BITMAP
91
00
00
00
00
00
00
00
00
00
00
00
00
00
00
00
ENDCHAR
STARTCHAR C092
ENCODING 8785
SWIDTH 480 0
DWIDTH 8 0
BBX 8 16 0 -2
BITMAP
92
00
00
00
00
00
00
00
00
00
00
00
00
00
00
00
ENDCHAR
STARTCHAR C093
ENCODING 8786
SWIDTH 480 0
DWIDTH 8 0
BBX 8 16 0 -2
BITMAP
93
00
00
00
00
00
00
00
00
00
00
00
00
00
00
00
ENDCHAR
STARTCHAR C094
ENCODING 8787
SWIDTH 480 0
DWIDTH 8 0
BBX 8 16 0 -2
BITMAP
94
00
00
00
00
00
00
00
00
00
00
00
00
00
00
00
ENDCHAR
STARTCHAR C095
ENCODING 8788
SWIDTH 480 0
DWIDTH 8 0
BBX 8 16 0 -2
BITMAP
95
00
00
00
00
00
00
00
00
00
00
00
00
00
00
00
ENDCHAR
STARTCHAR C096
ENCODING 8789
SWIDTH 480 0
DWIDTH 8 0
BBX 8 16 0 -2
BITMAP
96
00
00
00
00
00
00
00
00
00
00
00
00
00
00
00
ENDCHAR
STARTCHAR C097
ENCODING 8790
SWIDTH 480 0
DWIDTH 8 0
BBX 8 16 0 -2
BITMAP
97
00
00
00
00
00
00
00
00
00
00
00
00
00
00
00
ENDCHAR
STARTCHAR C098
ENCODING 8791
SWIDTH 480 0
DWIDTH 8 0
BBX 8 16 0 -2
BITMAP
98
00
00
00
00
00
00
00
00
00
00
00
00
00
00
00
ENDCHAR
STARTCHAR C099
ENCODING 8792
SWIDTH 480 0
DWIDTH 8 0
BBX 8 16 0 -2
BITMAP
99
00
00
00
00
00
00
00
00
00
00
00
00
00
00
00
ENDCHAR
STARTCHAR C09a
ENCODING 8793
SWIDTH 480 0
DWIDTH 8 0
BBX 8 16 0 -2
BITMAP
9a
00
00
00
00
00
00
00
00
00
00
00
00
00
00
00
ENDCHAR
STARTCHAR C09b
ENCODING 8794
SWIDTH 480 0
DWIDTH 8 0
BBX 8 16 0 -2
BITMAP
9b
00
00
00
00
00
00
00
00
00
00
00
00
00
00
00
ENDCHAR
STARTCHAR C09c
ENCODING 8795
SWIDTH 480 0
DWIDTH 8 0
BBX 8 16 0 -2
BITMAP
9c
00
00
00
00
00
00
00
00
00
00
00
00
00
00
00
ENDCHAR
STARTCHAR C09d
ENCODING 8796
SWIDTH 480 0
DWIDTH 8 0
BBX 8 16 0 -2
BITMAP
9d
00
00
00
00
00
00
00
00
00
00
00
00
00
00
00
ENDCHAR
STARTCHAR C09e
ENCODING 8797
SWIDTH 480 0
DWIDTH 8 0
BBX 8 16 0 -2
BITMAP
9e
00
00
00
00
00
00
00
00
00
00
00
00
00
00
00
ENDCHAR
STARTCHAR C09f
ENCODING 8798
SWIDTH 480 0
DWIDTH 8 0
BBX 8 16 0 -2
BITMAP
9f
00
00
00
00
00
00
00
00
00
00
00
00
00
00
00
ENDCHAR
STARTCHAR C0a0
ENCODING 8799
SWIDTH 480 0
DWIDTH 8 0
BBX 8 16 0 -2
BITMAP
a0
00
00
00
00
00
00
00
00
00
00
00
00
00
00
00
ENDCHAR
STARTCHAR C0a1
ENCODING 8800
SWIDTH 480 0
DWIDTH 8 0
BBX 8 16 0 -2
BITMAP
a1
00
00
00
00
00
00
00
00
00
00
00
00
00
00
00
ENDCHAR
STARTCHAR C0a2
ENCODING 8801
SWIDTH 480 0
DWIDTH 8 0
BBX 8 16 0 -2
BITMAP
a2
00
00
00
00
00
00
00
00
00
00
00
00
00
00
00
ENDCHAR
STARTCHAR C0a3
ENCODING 8802
SWIDTH 480 0
DWIDTH 8 0
BBX 8 16 0 -2
BITMAP
a3
00
00
00
00
00
00
00
00
00
00
00
00
00
00
00
ENDCHAR
STARTCHAR C0a4
ENCODING 8803
SWIDTH 480 0
DWIDTH 8 0
BBX 8 16 0 -2
BITMAP
a4
00
00
00
00
00
00
00
00
00
00
00
00
00
00
00
ENDCHAR
STARTCHAR C0a5
ENCODING 8804
SWIDTH 480 0
DWIDTH 8 0
BBX 8 16 0 -2
BITMAP
a5
00
00
00
00
00
00
00
00
00
00
00
00
00
00
00
ENDCHAR
STARTCHAR C0a6
ENCODING 8805
SWIDTH 480 0
DWIDTH 8 0
BBX 8 16 0 -2
BITMAP
a6
00
00
00
00
00
00
00
00
00
00
00
00
00
00
00
ENDCHAR
STARTCHAR C0a7
ENCODING 8806
SWIDTH 480 0
DWIDTH 8 0
BBX 8 16 0 -2
BITMAP
a7
00
00
00
00
00
00
00
00
00
00
00
00
00
00
00
ENDCHAR
STARTCHAR C0a8
ENCODING 8807
SWIDTH 480 0
DWIDTH 8 0
BBX 8 16 0 -2
BITMAP
a8
00
00
00
00
00
00
00
00
00
00
00
00
00
00
00
ENDCHAR
STARTCHAR C0a9
ENCODING 8808
SWIDTH 480 0
DWIDTH 8 0
BBX 8 16 0 -2
BITMAP
a9
00
00
00
00
00
00
00
00
00
00
00
00
00
00
00
ENDCHAR
STARTCHAR C0aa
ENCODING 8809
SWIDTH 480 0
DWIDTH 8 0
BBX 8 16 0 -2
BITMAP
aa
00
00
00
00
00
00
00
00
00
00
00
00
00
00
00
ENDCHAR
STARTCHAR C0ab
ENCODING 8810
SWIDTH 480 0
DWIDTH 8 0
BBX 8 16 0 -2
BITMAP
ab
00
00
00
00
00
00
00
00
00
00
00
00
00
00
00
ENDCHAR
STARTCHAR C0ac
ENCODING 8811
SWIDTH 480 0
DWIDTH 8 0
BBX 8 16 0 -2
BITMAP
ac
00
00
00
00
00
00
00
00
00
00
00
00
00
00
00
ENDCHAR
STARTCHAR C0ad
ENCODING 8812
SWIDTH 480 0
DWIDTH 8 0
BBX 8 16 0 -2
BITMAP
ad
00
00
00
00
00
00
00
00
00
00
00
00
00
00
00
ENDCHAR
STARTCHAR C0ae
ENCODING 8813
SWIDTH 480 0
DWIDTH 8 0
BBX 8 16 0 -2
BITMAP
ae
00
00
00
00
00
00
00
00
00
00
00
00
00
00
00
ENDCHAR
STARTCHAR C0af
ENCODING 8814
SWIDTH 480 0
DWIDTH 8 0
BBX 8 16 0 -2
BITMAP
af
00
00
00
00
00
00
00
00
00
00
00
00
00
00
00
ENDCHAR
STARTCHAR C0b0
ENCODING 8815
SWIDTH 480 0
DWIDTH 8 0
BBX 8 16 0 -2
BITMAP
b0
00
00
00
00
00
00
00
00
00
00
00
00
00
00
00
ENDCHAR
STARTCHAR C0b1
ENCODING 8816
SWIDTH 480 0
DWIDTH 8 0
BBX 8 16 0 -2
BITMAP
b1
00
00
00
00
00
00
00
00
00
00
00
00
00
00
00
ENDCHAR
STARTCHAR C0b2
ENCODING 8817
SWIDTH 480 0
DWIDTH 8 0
BBX 8 16 0 -2
BITMAP
b2
00
00
00
00
00
00
00
00
00
00
00
00
00
00
00
ENDCHAR
STARTCHAR C0b3
ENCODING 8818
SWIDTH 480 0
DWIDTH 8 0
BBX 8 16 0 -2
BITMAP
b3
00
00
00
00
00
00
00
00
00
00
00
00
00
00
00
ENDCHAR
STARTCHAR C0b4
ENCODING 8819
SWIDTH 480 0
DWIDTH 8 0
BBX 8 16 0 -2
BITMAP
b4
00
00
00
00
00
00
00
00
00
00
00
00
00
00
00
ENDCHAR
STARTCHAR C0b5
ENCODING 8820
SWIDTH 480 0
DWIDTH 8 0
BBX 8 16 0 -2
BITMAP
b5
00
00
00
00
00
00
00
00
00
00
00
00
00
00
00
ENDCHAR
STARTCHAR C0b6
ENCODING 8821
SWIDTH 480 0
DWIDTH 8 0
BBX 8 16 0 -2
BITMAP
b6
00
00
00
00
00
00
00
00
00
00
00
00
00
00
00
ENDCHAR
STARTCHAR C0b7
ENCODING 8822
SWIDTH 480 0
DWIDTH 8 0
BBX 8 16 0 -2
BITMAP
b7
00
00
00
00
00
00
00
00
00
00
00
00
00
00
00
ENDCHAR
STARTCHAR C0b8
ENCODING 8823
SWIDTH 480 0
DWIDTH 8 0
BBX 8 16 0 -2
BITMAP
b8
00
00
00
00
00
00
00
00
00
00
00
00
00
00
00
ENDCHAR
STARTCHAR C0b9
ENCODING 8824
SWIDTH 480 0
DWIDTH 8 0
BBX 8 16 0 -2
BITMAP
b9
00
00
00
00
00
00
00
00
00
00
00
00
00
00
00
ENDCHAR
STARTCHAR C0ba
ENCODING 8825
SWIDTH 480 0
DWIDTH 8 0
BBX 8 16 0 -2
BITMAP
ba
00
00
00
00
00
00
00
00
00
00
00
00
00
00
00
ENDCHAR
STARTCHAR C0bb
ENCODING 8826
SWIDTH 480 0
DWIDTH 8 0
BBX 8 16 0 -2
BITMAP
bb
00
00
00
00
00
00
00
00
00
00
00
00
00
00
00
ENDCHAR
STARTCHAR C0bc
ENCODING 8827
SWIDTH 480 0
DWIDTH 8 0
BBX 8 16 0 -2
BITMAP
bc
00
00
00
00
00
00
00
00
00
00
00
00
00
00
00
ENDCHAR
STARTCHAR C0bd
ENCODING 8828
SWIDTH 480 0
DWIDTH 8 0
BBX 8 16 0 -2
BITMAP
bd
00
00
00
00
00
00
00
00
00
00
00
00
00
00
00
ENDCHAR
STARTCHAR C0be
ENCODING 8829
SWIDTH 480 0
DWIDTH 8 0
BBX 8 16 0 -2
BITMAP
be
00
00
00
00
00
00
00
00
00
00
00
00
00
00
00
ENDCHAR
STARTCHAR C0bf
ENCODING 8830
SWIDTH 480 0
DWIDTH 8 0
BBX 8 16 0 -2
BITMAP
bf
00
00
00
00
00
00
00
00
00
00
00
00
00
00
00
ENDCHAR
STARTCHAR C0c0
ENCODING 8831
SWIDTH 480 0
DWIDTH 8 0
BBX 8 16 0 -2
BITMAP
c0
00
00
00
00
00
00
00
00
00
00
00
00
00
00
00
ENDCHAR
STARTCHAR C0c1
ENCODING 8992
SWIDTH 480 0
DWIDTH 8 0
BBX 8 16 0 -2
BITMAP
c1
00
00
00
00
00
00
00
00
00
00
00
00
00
00
00
ENDCHAR
STARTCHAR C0c2
ENCODING 8993
SWIDTH 480 0
DWIDTH 8 0
BBX 8 16 0 -2
BITMAP
c2
00
00
00
00
00
00
00
00
00
00
00
00
00
00
00
ENDCHAR
STARTCHAR C0c3
ENCODING 8994
SWIDTH 480 0
DWIDTH 8 0
BBX 8 16 0 -2
BITMAP
c3
00
00
00
00
00
00
00
00
00
00
00
00
00
00
00
ENDCHAR
STARTCHAR C0c4
ENCODING 8995
SWIDTH 480 0
DWIDTH 8 0
BBX 8 16 0 -2
BITMAP
c4
00
00
00
00
00
00
00
00
00
00
00
00
00
00
00
ENDCHAR
STARTCHAR C0c5
ENCODING 8996
SWIDTH 480 0
DWIDTH 8 0
BBX 8 16 0 -2
BITMAP
c5
00
00
00
00
00
00
00
00
00
00
00
00
00
00
00
ENDCHAR
STARTCHAR C0c6
ENCODING 8997
SWIDTH 480 0
DWIDTH 8 0
BBX 8 16 0 -2
BITMAP
c6
00
00
00
00
00
00
00
00
00
00
00
00
00
00
00
ENDCHAR
STARTCHAR C0c7
ENCODING 8998
SWIDTH 480 0
DWIDTH 8 0
BBX 8 16 0 -2
BITMAP
c7
00
00
00
00
00
00
00
00
00
00
00
00
00
00
00
ENDCHAR
STARTCHAR C0c8
ENCODING 8999
SWIDTH 480 0
DWIDTH 8 0
BBX 8 16 0 -2
BITMAP
c8
00
00
00
00
00
00
00
00
00
00
00
00
00
00
00
ENDCHAR
STARTCHAR C0c9
ENCODING 9000
SWIDTH 480 0
DWIDTH 8 0
BBX 8 16 0 -2
BITMAP
c9
00
00
00
00
00
00
00
00
00
00
00
00
00
00
00
ENDCHAR
STARTCHAR C0ca
ENCODING 9001
SWIDTH 480 0
DWIDTH 8 0
BBX 8 16 0 -2
BITMAP
ca
00
00
00
00
00
00
00
00
00
00
00
00
00
00
00
ENDCHAR
STARTCHAR C0cb
ENCODING 9002
SWIDTH 480 0
DWIDTH 8 0
BBX 8 16 0 -2
BITMAP
cb
00
00
00
00
00
00
00
00
00
00
00
00
00
00
00
ENDCHAR
STARTCHAR C0cc
ENCODING 9003
SWIDTH 480 0
DWIDTH 8 0
BBX 8 16 0 -2
BITMAP
cc
00
00
00
00
00
00
00
00
00
00
00
00
00
00
00
ENDCHAR
STARTCHAR C0cd
ENCODING 9004
SWIDTH 480 0
DWIDTH 8 0
BBX 8 16 0 -2
BITMAP
cd
00
00
00
00
00
00
00
00
00
00
00
00
00
00
00
ENDCHAR
STARTCHAR C0ce
ENCODING 9005
SWIDTH 480 0
DWIDTH 8 0
BBX 8 16 0 -2
BITMAP
ce
00
00
00
00
00
00
00
00
00
00
00
00
00
00
00
ENDCHAR
STARTCHAR C0cf
ENCODING 9006
SWIDTH 480 0
DWIDTH 8 0
BBX 8 16 0 -2
BITMAP
cf
00
00
00
00
00
00
00
00
00
00
00
00
00
00
00
ENDCHAR
STARTCHAR C0d0
ENCODING 9007
SWIDTH 480 0
DWIDTH 8 0
BBX 8 16 0 -2
BITMAP
d0
00
00
00
00
00
00
00
00
00
00
00
00
00
00
00
ENDCHAR
STARTCHAR C0d1
ENCODING 9008
SWIDTH 480 0
DWIDTH 8 0
BBX 8 16 0 -2
BITMAP
d1
00
00
00
00
00
00
00
00
00
00
00
00
00
00
00
ENDCHAR
STARTCHAR C0d2
ENCODING 9009
SWIDTH 480 0
DWIDTH 8 0
BBX 8 16 0 -2
BITMAP
d2
00
00
00
00
00
00
00
00
00
00
00
00
00
00
00
ENDCHAR
STARTCHAR C0d3
ENCODING 9010
SWIDTH 480 0
DWIDTH 8 0
BBX 8 16 0 -2
BITMAP
d3
00
00
00
00
00
00
00
00
00
00
00
00
00
00
00
ENDCHAR
STARTCHAR C0d4
ENCODING 9011
SWIDTH 480 0
DWIDTH 8 0
BBX 8 16 0 -2
BITMAP
d4
00
00
00
00
00
00
00
00
00
00
00
00
00
00
00
ENDCHAR
STARTCHAR C0d5
ENCODING 9012
SWIDTH 480 0
DWIDTH 8 0
BBX 8 16 0 -2
BITMAP
d5
00
00
00
00
00
00
00
00
00
00
00
00
00
00
00
ENDCHAR
STARTCHAR C0d6
ENCODING 9013
SWIDTH 480 0
DWIDTH 8 0
BBX 8 16 0 -2
BITMAP
d6
00
00
00
00
00
00
00
00
00
00
00
00
00
00
00
ENDCHAR
STARTCHAR C0d7
ENCODING 9014
SWIDTH 480 0
DWIDTH 8 0
BBX 8 16 0 -2
BITMAP
d7
00
00
00
00
00
00
00
00
00
00
00
00
00
00
00
ENDCHAR
STARTCHAR C0d8
ENCODING 9015
SWIDTH 480 0
DWIDTH 8 0
BBX 8 16 0 -2
BITMAP
d8
00
00
00
00
00
00
00
00
00
00
00
00
00
00
00
ENDCHAR
STARTCHAR C0d9
ENCODING 9016
SWIDTH 480 0
DWIDTH 8 0
BBX 8 16 0 -2
BITMAP
d9
00
00
00
00
00
00
00
00
00
00
00
00
00
00
00
ENDCHAR
STARTCHAR C0da
ENCODING 9017
SWIDTH 480 0
DWIDTH 8 0
BBX 8 16 0 -2
BITMAP
da
00
00
00
00
00
00
00
00
00
00
00
00
00
00
00
ENDCHAR
STARTCHAR C0db
ENCODING 9018
SWIDTH 480 0
DWIDTH 8 0
BBX 8 16 0 -2
BITMAP
db
00
00
00
00
00
00
00
00
00
00
00
00
00
00
00
ENDCHAR
STARTCHAR C0dc
ENCODING 9019
SWIDTH 480 0
DWIDTH 8 0
BBX 8 16 0 -2
BITMAP
dc
00
00
00
00
00
00
00
00
00
00
00
00
00
00
00
ENDCHAR
STARTCHAR C0dd
ENCODING 9020
SWIDTH 480 0
DWIDTH 8 0
BBX 8 16 0 -2
BITMAP
dd
00
00
00
00
00
00
00
00
00
00
00
00
00
00
00
ENDCHAR
STARTCHAR C0de
ENCODING 9021
SWIDTH 480 0
DWIDTH 8 0
BBX 8 16 0 -2
BITMAP
de
00
00
00
00
00
00
00
00
00
00
00
00
00
00
00
ENDCHAR
STARTCHAR C0df
ENCODING 9022
SWIDTH 480 0
DWIDTH 8 0
BBX 8 16 0 -2
BITMAP
df
00
00
00
00
00
00
00
00
00
00
00
00
00
00
00
ENDCHAR
STARTCHAR C0e0
ENCODING 9023
SWIDTH 480 0
DWIDTH 8 0
BBX 8 16 0 -2
BITMAP
e0
00
00
00
00
00
00
00
00
00
00
00
00
00
00
00
ENDCHAR
STARTCHAR C0e1
ENCODING 9024
SWIDTH 480 0
DWIDTH 8 0
BBX 8 16 0 -2
BITMAP
e1
00
00
00
00
00
00
00
00
00
00
00
00
00
00
00
ENDCHAR
STARTCHAR C0e2
ENCODING 9025
SWIDTH 480 0
DWIDTH 8 0
BBX 8 16 0 -2
BITMAP
e2
00
00
00
00
00
00
00
00
00
00
00
00
00
00
00
ENDCHAR
STARTCHAR C0e3
ENCODING 9026
SWIDTH 480 0
DWIDTH 8 0
BBX 8 16 0 -2
BITMAP
e3
00
00
00
00
00
00
00
00
00
00
00
00
00
00
00
ENDCHAR
STARTCHAR C0e4
ENCODING 9027
SWIDTH 480 0
DWIDTH 8 0
BBX 8 16 0 -2
BITMAP
e4
00
00
00
00
00
00
00
00
00
00
00
00
00
00
00
ENDCHAR
STARTCHAR C0e5
ENCODING 9028
SWIDTH 480 0
DWIDTH 8 0
BBX 8 16 0 -2
BITMAP
e5
00
00
00
00
00
00
00
00
00
00
00
00
00
00
00
ENDCHAR
STARTCHAR C0e6
ENCODING 9029
SWIDTH 480 0
DWIDTH 8 0
BBX 8 16 0 -2
BITMAP
e6
00
00
00
00
00
00
00
00
00
00
00
00
00
00
00
ENDCHAR
STARTCHAR C0e7
ENCODING 9030
SWIDTH 480 0
DWIDTH 8 0
BBX 8 16 0 -2
BITMAP
e7
00
00
00
00
00
00
00
00
00
00
00
00
00
00
00
ENDCHAR
STARTCHAR C0e8
ENCODING 9031
SWIDTH 480 0
DWIDTH 8 0
BBX 8 16 0 -2
BITMAP
e8
00
00
00
00
00
00
00
00
00
00
00
00
00
00
00
ENDCHAR
STARTCHAR C0e9
ENCODING 9032
SWIDTH 480 0
DWIDTH 8 0
BBX 8 16 0 -2
BITMAP
e9
00
00
00
00
00
00
00
00
00
00
00
00
00
00
00
ENDCHAR
STARTCHAR C0ea
ENCODING 9033
SWIDTH 480 0
DWIDTH 8 0
BBX 8 16 0 -2
BITMAP
ea
00
00
00
00
00
00
00
00
00
00
00
00
00
00
00
ENDCHAR
STARTCHAR C0eb
ENCODING 9034
SWIDTH 480 0
DWIDTH 8 0
BBX 8 16 0 -2
BITMAP
eb
00
00
00
00
00
00
00
00
00
00
00
00
00
00
00
ENDCHAR
STARTCHAR C0ec
ENCODING 9035
SWIDTH 480 0
DWIDTH 8 0
BBX 8 16 0 -2
BITMAP
ec
00
00
00
00
00
00
00
00
00
00
00
00
00
00
00
ENDCHAR
STARTCHAR C0ed
ENCODING 9036
SWIDTH 480 0
DWIDTH 8 0
BBX 8 16 0 -2
BITMAP
ed
00
00
00
00
00
00
00
00
00
00
00
00
00
00
00
ENDCHAR
STARTCHAR C0ee
ENCODING 9037
SWIDTH 480 0
DWIDTH 8 0
BBX 8 16 0 -2
BITMAP
ee
00
00
00
00
00
00
00
00
00
00
00
00
00
00
00
ENDCHAR
STARTCHAR C0ef
ENCODING 9038
SWIDTH 480 0
DWIDTH 8 0
BBX 8 16 0 -2
BITMAP
ef
00
00
00
00
00
00
00
00
00
00
00
00
00
00
00
ENDCHAR
STARTCHAR C0f0
ENCODING 9039
SWIDTH 480 0
DWIDTH 8 0
BBX 8 16 0 -2
BITMAP
f0
00
00
00
00
00
00
00
00
00
00
00
00
00
00
00
ENDCHAR
STARTCHAR C0f1
ENCODING 9040
SWIDTH 480 0
DWIDTH 8 0
BBX 8 16 0 -2
BITMAP
f1
00
00
00
00
00
00
00
00
00
00
00
00
00
00
00
ENDCHAR
STARTCHAR C0f2
ENCODING 9041
SWIDTH 480 0
DWIDTH 8 0
BBX 8 16 0 -2
BITMAP
f2
00
00
00
00
00
00
00
00
00
00
00
00
00
00
00
ENDCHAR
STARTCHAR C0f3
ENCODING 9042
SWIDTH 480 0
DWIDTH 8 0
BBX 8 16 0 -2
BITMAP
f3
00
00
00
00
00
00
00
00
00
00
00
00
00
00
00
ENDCHAR
STARTCHAR C0f4
ENCODING 9043
SWIDTH 480 0
DWIDTH 8 0
BBX 8 16 0 -2
BITMAP
f4
00
00
00
00
00
00
00
00
00
00
00
00
00
00
00
ENDCHAR
STARTCHAR C0f5
ENCODING 9044
SWIDTH 480 0
DWIDTH 8 0
BBX 8 16 0 -2
BITMAP
f5
00
00
00
00
00
00
00
00
00
00
00
00
00
00
00
ENDCHAR
STARTCHAR C0f6
ENCODING 9045
SWIDTH 480 0
DWIDTH 8 0
BBX 8 16 0 -2
BITMAP
f6
00
00
00
00
00
00
00
00
00
00
00
00
00
00
00
ENDCHAR
STARTCHAR C0f7
ENCODING 9046
SWIDTH 480 0
DWIDTH 8 0
BBX 8 16 0 -2
BITMAP
f7
00
00
00
00
00
00
00
00
00
00
00
00
00
00
00
ENDCHAR
STARTCHAR C0f8
ENCODING 9047
SWIDTH 480 0
DWIDTH 8 0
BBX 8 16 0 -2
BITMAP
f8
00
00
00
00
00
00
00
00
00
00
00
00
00
00
00
ENDCHAR
STARTCHAR C0f9
ENCODING 9048
SWIDTH 480 0
DWIDTH 8 0
BBX 8 16 0 -2
BITMAP
f9
00
00
00
00
00
00
00
00
00
00
00
00
00
00
00
ENDCHAR
STARTCHAR C0fa
ENCODING 9049
SWIDTH 480 0
DWIDTH 8 0
BBX 8 16 0 -2
BITMAP
fa
00
00
00
00
00
00
00
00
00
00
00
00
00
00
00
ENDCHAR
STARTCHAR C0fb
ENCODING 9050
SWIDTH 480 0
DWIDTH 8 0
BBX 8 16 0 -2
BITMAP
fb
00
00
00
00
00
00
00
00
00
00
00
00
00
00
00
ENDCHAR
STARTCHAR C0fc
ENCODING 9051
SWIDTH 480 0
DWIDTH 8 0
BBX 8 16 0 -2
BITMAP
fc
00
00
00
00
00
00
00
00
00
00
00
00
00
00
00
ENDCHAR
STARTCHAR C0fd
ENCODING 9052
SWIDTH 480 0
DWIDTH 8 0
BBX 8 16 0 -2
BITMAP
fd
00
00
00
00
00
00
00
00
00
00
00
00
00
00
00
ENDCHAR
STARTCHAR C0fe
ENCODING 9053
SWIDTH 480 0
DWIDTH 8 0
BBX 8 16 0 -2
BITMAP
fe
00
00
00
00
00
00
00
00
00
00
00
00
00
00
00
ENDCHAR
STARTCHAR C0ff
ENCODING 9054
SWIDTH 480 0
DWIDTH 8 0
BBX 8 16 0 -2
BITMAP
ff
00
00
00
00
00
00
00
00
00
00
00
00
00
00
00
ENDCHAR
STARTCHAR C101
ENCODING 9055
SWIDTH 480 0
DWIDTH 8 0
BBX 8 16 0 -2
BITMAP
00
01
00
00
00
00
00
00
00
00
00
00
00
00
00
00
ENDCHAR
STARTCHAR C102
ENCODING 9056
SWIDTH 480 0
DWIDTH 8 0
BBX 8 16 0 -2
BITMAP
00
02
00
00
00
00
00
00
00
00
00
00
00
00
00
00
ENDCHAR
STARTCHAR C103
ENCODING 9057
SWIDTH 480 0
DWIDTH 8 0
BBX 8 16 0 -2
BITMAP
00
03
00
00
00
00
00
00
00
00
00
00
00
00
00
00
ENDCHAR
STARTCHAR C104
ENCODING 9058
SWIDTH 480 0
DWIDTH 8 0
BBX 8 16 0 -2
BITMAP
00
04
00
00
00
00
00
00
00
00
00
00
00
00
00
00
ENDCHAR
STARTCHAR C105
ENCODING 9059
SWIDTH 480 0
DWIDTH 8 0
BBX 8 16 0 -2
BITMAP
00
05
00
00
00
00
00
00
00
00
00
00
00
00
00
00
ENDCHAR
STARTCHAR C106
ENCODING 9060
SWIDTH 480 0
DWIDTH 8 0
BBX 8 16 0 -2
BITMAP
00
06
00
00
00
00
00
00
00
00
00
00
00
00
00
00
ENDCHAR
STARTCHAR C107
ENCODING 9061
SWIDTH 480 0
DWIDTH 8 0
BBX 8 16 0 -2
BITMAP
00
07
00
00
00
00
00
00
00
00
00
00
00
00
00
00
ENDCHAR
STARTCHAR C108
ENCODING 9062
SWIDTH 480 0
DWIDTH 8 0
BBX 8 16 0 -2
BITMAP
00
08
00
00
00
00
00
00
00
00
00
00
00
00
00
00
ENDCHAR
STARTCHAR C109
ENCODING 9063
SWIDTH 480 0
DWIDTH 8 0
BBX 8 16 0 -2
BITMAP
00
09
00
00
00
00
00
00
00
00
00
00
00
00
00
00
ENDCHAR
STARTCHAR C10a
ENCODING 9064
SWIDTH 480 0
DWIDTH 8 0
BBX 8 16 0 -2
BITMAP
00
0a
00
00
00
00
00
00
00
00
00
00
00
00
00
00
ENDCHAR
STARTCHAR C10b
ENCODING 9065
SWIDTH 480 0
DWIDTH 8 0
BBX 8 16 0 -2
BITMAP
00
0b
00
00
00
00
00
00
00
00
00
00
00
00
00
00
ENDCHAR
STARTCHAR C10c
ENCODING 9066
SWIDTH 480 0
DWIDTH 8 0
BBX 8 16 0 -2
BITMAP
00
0c
00
00
00
00
00
00
00
00
00
00
00
00
00
00
ENDCHAR
STARTCHAR C10d
ENCODING 9067
SWIDTH 480 0
DWIDTH 8 0
BBX 8 16 0 -2
BITMAP
00
0d
00
00
00
00
00
00
00
00
00
00
00
00
00
00
ENDCHAR
STARTCHAR C10e
ENCODING 9068
SWIDTH 480 0
DWIDTH 8 0
BBX 8 16 0 -2
BITMAP
00
0e
00
00
00
00
00
00
00
00
00
00
00
00
00
00
ENDCHAR
STARTCHAR C10f
ENCODING 9069
SWIDTH 480 0
DWIDTH 8 0
BBX 8 16 0 -2
BITMAP
00
0f
00
00
00
00
00
00
00
00
00
00
00
00
00
00
ENDCHAR
STARTCHAR C110
ENCODING 9070
SWIDTH 480 0
DWIDTH 8 0
BBX 8 16 0 -2
BITMAP
00
10
00
00
00
00
00
00
00
00
00
00
00
00
00
00
ENDCHAR
STARTCHAR C111
ENCODING 9071
SWIDTH 480 0
DWIDTH 8 0
BBX 8 16 0 -2
BITMAP
00
11
00
00
00
00
00
00
00
00
00
00
00
00
00
00
ENDCHAR
STARTCHAR C112
ENCODING 9072
SWIDTH 480 0
DWIDTH 8 0
BBX 8 16 0 -2
BITMAP
00
12
00
00
00
00
00
00
00
00
00
00
00
00
00
00
ENDCHAR
STARTCHAR C113
ENCODING 9073
SWIDTH 480 0
DWIDTH 8 0
BBX 8 16 0 -2
BITMAP
00
13
00
00
00
00
00
00
00
00
00
00
00
00
00
00
ENDCHAR
STARTCHAR C114
ENCODING 9074
SWIDTH 480 0
DWIDTH 8 0
BBX 8 16 0 -2
BITMAP
00
14
00
00
00
00
00
00
00
00
00
00
00
00
00
00
ENDCHAR
STARTCHAR C115
ENCODING 9075
SWIDTH 480 0
DWIDTH 8 0
BBX 8 16 0 -2
BITMAP
00
15
00
00
00
00
00
00
00
00
00
00
00
00
00
00
ENDCHAR
STARTCHAR C116
ENCODING 9076
SWIDTH 480 0
DWIDTH 8 0
BBX 8 16 0 -2
BITMAP
00
16
00
00
00
00
00
00
00
00
00
00
00
00
00
00
ENDCHAR
STARTCHAR C117
ENCODING 9077
SWIDTH 480 0
DWIDTH 8 0
BBX 8 16 0 -2
BITMAP
00
17
00
00
00
00
00
00
00
00
00
00
00
00
00
00
ENDCHAR
STARTCHAR C118
ENCODING 9078
SWIDTH 480 0
DWIDTH 8 0
BBX 8 16 0 -2
BITMAP
00
18
00
00
00
00
00
00
00
00
00
00
00
00
00
00
ENDCHAR
STARTCHAR C119
ENCODING 9079
SWIDTH 480 0
DWIDTH 8 0
BBX 8 16 0 -2
BITMAP
00
19
00
00
00
00
00
00
00
00
00
00
00
00
00
00
ENDCHAR
STARTCHAR C11a
ENCODING 9080
SWIDTH 480 0
DWIDTH 8 0
BBX 8 16 0 -2
BITMAP
00
1a
00
00
00
00
00
00
00
00
00
00
00
00
00
00
ENDCHAR
STARTCHAR C11b
ENCODING 9081
SWIDTH 480 0
DWIDTH 8 0
BBX 8 16 0 -2
BITMAP
00
1b
00
00
00
00
00
00
00
00
00
00
00
00
00
00
ENDCHAR
STARTCHAR C11c
ENCODING 9082
SWIDTH 480 0
DWIDTH 8 0
BBX 8 16 0 -2
BITMAP
00
1c
00
00
00
00
00
00
00
00
00
00
00
00
00
00
ENDCHAR
STARTCHAR C11d
ENCODING 9083
SWIDTH 480 0
DWIDTH 8 0
BBX 8 16 0 -2
BITMAP
00
1d
00
00
00
00
00
00
00
00
00
00
00
00
00
00
ENDCHAR
STARTCHAR C11e
ENCODING 9084
SWIDTH 480 0
DWIDTH 8 0
BBX 8 16 0 -2
BITMAP
00
1e
00
00
00
00
00
00
00
00
00
00
00
00
00
00
ENDCHAR
STARTCHAR C11f
ENCODING 9085
SWIDTH 480 0
DWIDTH 8 0
BBX 8 16 0 -2
BITMAP
00
1f
00
00
00
00
00
00
00
00
00
00
00
00
00
00
ENDCHAR
STARTCHAR C120
ENCODING 9086
SWIDTH 480 0
DWIDTH 8 0
BBX 8 16 0 -2
BITMAP
00
20
00
00
00
00
00
00
00
00
00
00
00
00
00
00
ENDCHAR
STARTCHAR C121
ENCODING 9087
SWIDTH 480 0
DWIDTH 8 0
BBX 8 16 0 -2
BITMAP
00
21
00
00
00
00
00
00
00
00
00
00
00
00
00
00
ENDCHAR
STARTCHAR C122
ENCODING 9248
SWIDTH 480 0
DWIDTH 8 0
BBX 8 16 0 -2
BITMAP
00
22
00
00
00
00
00
00
00
00
00
00
00
00
00
00
ENDCHAR
STARTCHAR C123
ENCODING 9249
SWIDTH 480 0
DWIDTH 8 0
BBX 8 16 0 -2
BITMAP
00
23
00
00
00
00
00
00
00
00
00
00
00
00
00
00
ENDCHAR
STARTCHAR C124
ENCODING 9250
SWIDTH 480 0
DWIDTH 8 0
BBX 8 16 0 -2
BITMAP
00
24
00
00
00
00
00
00
00
00
00
00
00
00
00
00
ENDCHAR
STARTCHAR C125
ENCODING 9251
SWIDTH 480 0
DWIDTH 8 0
BBX 8 16 0 -2
BITMAP
00
25
00
00
00
00
00
00
00
00
00
00
00
00
00
00
ENDCHAR
STARTCHAR C126
ENCODING 9252
SWIDTH 480 0
DWIDTH 8 0
BBX 8 16 0 -2
BITMAP
00
26
00
00
00
00
00
00
00
00
00
00
00
00
00
00
ENDCHAR
STARTCHAR C127
ENCODING 9253
SWIDTH 480 0
DWIDTH 8 0
BBX 8 16 0 -2
BITMAP
00
27
00
00
00
00
00
00
00
00
00
00
00
00
00
00
ENDCHAR
STARTCHAR C128
ENCODING 9254
SWIDTH 480 0
DWIDTH 8 0
BBX 8 16 0 -2
BITMAP
00
28
00
00
00
00
00
00
00
00
00
00
00
00
00
00
ENDCHAR
STARTCHAR C129
ENCODING 9255
SWIDTH 480 0
DWIDTH 8 0
BBX 8 16 0 -2
BITMAP
00
29
00
00
00
00
00
00
00
00
00
00
00
00
00
00
ENDCHAR
STARTCHAR C12a
ENCODING 9256
SWIDTH 480 0
DWIDTH 8 0
BBX 8 16 0 -2
BITMAP
00
2a
00
00
00
00
00
00
00
00
00
00
00
00
00
00
ENDCHAR
STARTCHAR C12b
ENCODING 9257
SWIDTH 480 0
DWIDTH 8 0
BBX 8 16 0 -2
BITMAP
00
2b
00
00
00
00
00
00
00
00
00
00
00
00
00
00
ENDCHAR
STARTCHAR C12c
ENCODING 9258
SWIDTH 480 0
DWIDTH 8 0
BBX 8 16 0 -2
BITMAP
00
2c
00
00
00
00
00
00
00
00
00
00
00
00
00
00
ENDCHAR
STARTCHAR C12d
ENCODING 9259
SWIDTH 480 0
DWIDTH 8 0
BBX 8 16 0 -2
BITMAP
00
2d
00
00
00
00
00
00
00
00
00
00
00
00
00
00
ENDCHAR
STARTCHAR C12e
ENCODING 9260
SWIDTH 480 0
DWIDTH 8 0
BBX 8 16 0 -2
BITMAP
00
2e
00
00
00
00
00
00
00
00
00
00
00
00
00
00
ENDCHAR
STARTCHAR C12f
ENCODING 9261
SWIDTH 480 0
DWIDTH 8 0
BBX 8 16 0 -2
BITMAP
00
2f
00
00
00
00
00
00
00
00
00
00
00
00
00
00
ENDCHAR
STARTCHAR C130
ENCODING 9262
SWIDTH 480 0
DWIDTH 8 0
BBX 8 16 0 -2
BITMAP
00
30
00
00
00
00
00
00
00
00
00
00
00
00
00
00
ENDCHAR
STARTCHAR C131
ENCODING 9263
SWIDTH 480 0
DWIDTH 8 0
BBX 8 16 0 -2
BITMAP
00
31
00
00
00
00
00
00
00
00
00
00
00
00
00
00
ENDCHAR
STARTCHAR C132
ENCODING 9264
SWIDTH 480 0
DWIDTH 8 0
BBX 8 16 0 -2
BITMAP
00
32
00
00
00
00
00
00
00
00
00
00
00
00
00
00
ENDCHAR
STARTCHAR C133
ENCODING 9265
SWIDTH 480 0
DWIDTH 8 0
BBX 8 16 0 -2
BITMAP
00
33
00
00
00
00
00
00
00
00
00
00
00
00
00
00
ENDCHAR
STARTCHAR C134
ENCODING 9266
SWIDTH 480 0
DWIDTH 8 0
BBX 8 16 0 -2
BITMAP
00
34
00
00
00
00
00
00
00
00
00
00
00
00
00
00
ENDCHAR
STARTCHAR C135
ENCODING 9267
SWIDTH 480 0
DWIDTH 8 0
BBX 8 16 0 -2
BITMAP
00
35
00
00
00
00
00
00
00
00
00
00
00
00
00
00
ENDCHAR
STARTCHAR C136
ENCODING 9268
SWIDTH 480 0
DWIDTH 8 0
BBX 8 16 0 -2
BITMAP
00
36
00
00
00
00
00
00
00
00
00
00
00
00
00
00
ENDCHAR
STARTCHAR C137
ENCODING 9269
SWIDTH 480 0
DWIDTH 8 0
BBX 8 16 0 -2
BITMAP
00
37
00
00
00
00
00
00
00
00
00
00
00
00
00
00
ENDCHAR
STARTCHAR C138
ENCODING 9270
SWIDTH 480 0
DWIDTH 8 0
BBX 8 16 0 -2
BITMAP
00
38
00
00
00
00
00
00
00
00
00
00
00
00
00
00
ENDCHAR
STARTCHAR C139
ENCODING 9271
SWIDTH 480 0
DWIDTH 8 0
BBX 8 16 0 -2
BITMAP
00
39
00
00
00
00
00
00
00
00
00
00
00
00
00
00
ENDCHAR
STARTCHAR C13a
ENCODING 9272
SWIDTH 480 0
DWIDTH 8 0
BBX 8 16 0 -2
BITMAP
00
3a
00
00
00
00
00
00
00
00
00
00
00
00
00
00
ENDCHAR
STARTCHAR C13b
ENCODING 9273
SWIDTH 480 0
DWIDTH 8 0
BBX 8 16 0 -2
BITMAP
00
3b
00
00
00
00
00
00
00
00
00
00
00
00
00
00
ENDCHAR
STARTCHAR C13c
ENCODING 9274
SWIDTH 480 0
DWIDTH 8 0
BBX 8 16 0 -2
BITMAP
00
3c
00
00
00
00
00
00
00
00
00
00
00
00
00
00
ENDCHAR
STARTCHAR C13d
ENCODING 9275
SWIDTH 480 0
DWIDTH 8 0
BBX 8 16 0 -2
BITMAP
00
3d
00
00
00
00
00
00
00
00
00
00
00
00
00
00
ENDCHAR
STARTCHAR C13e
ENCODING 9276
SWIDTH 480 0
DWIDTH 8 0
BBX 8 16 0 -2
BITMAP
00
3e
00
00
00
00
00
00
00
00
00
00
00
00
00
00
ENDCHAR
STARTCHAR C13f
ENCODING 9277
SWIDTH 480 0
DWIDTH 8 0
BBX 8 16 0 -2
BITMAP
00
3f
00
00
00
00
00
00
00
00
00
00
00
00
00
00
ENDCHAR
STARTCHAR C140
ENCODING 9278
SWIDTH 480 0
DWIDTH 8 0
BBX 8 16 0 -2
BITMAP
00
40
00
00
00
00
00
00
00
00
00
00
00
00
00
00
ENDCHAR
STARTCHAR C141
ENCODING 9279
SWIDTH 480 0
DWIDTH 8 0
BBX 8 16 0 -2
BITMAP
00
41
00
00
00
00
00
00
00
00
00
00
00
00
00
00
ENDCHAR
STARTCHAR C142
ENCODING 9280
SWIDTH 480 0
DWIDTH 8 0
BBX 8 16 0 -2
BITMAP
00
42
00
00
00
00
00
00
00
00
00
00
00
00
00
00
ENDCHAR
STARTCHAR C143
ENCODING 9281
SWIDTH 480 0
DWIDTH 8 0
BBX 8 16 0 -2
BITMAP
00
43
00
00
00
00
00
00
00
00
00
00
00
00
00
00
ENDCHAR
STARTCHAR C144
ENCODING 9282
SWIDTH 480 0
DWIDTH 8 0
BBX 8 16 0 -2
BITMAP
00
44
00
00
00
00
00
00
00
00
00
00
00
00
00
00
ENDCHAR
STARTCHAR C145
ENCODING 9283
SWIDTH 480 0
DWIDTH 8 0
BBX 8 16 0 -2
BITMAP
00
45
00
00
00
00
00
00
00
00
00
00
00
00
00
00
ENDCHAR
STARTCHAR C146
ENCODING 9284
SWIDTH 480 0
DWIDTH 8 0
BBX 8 16 0 -2
BITMAP
00
46
00
00
00
00
00
00
00
00
00
00
00
00
00
00
ENDCHAR
STARTCHAR C147
ENCODING 9285
SWIDTH 480 0
DWIDTH 8 0
BBX 8 16 0 -2
BITMAP
00
47
00
00
00
00
00
00
00
00
00
00
00
00
00
00
ENDCHAR
STARTCHAR C148
ENCODING 9286
SWIDTH 480 0
DWIDTH 8 0
BBX 8 16 0 -2
BITMAP
00
48
00
00
00
00
00
00
00
00
00
00
00
00
00
00
ENDCHAR
STARTCHAR C149
ENCODING 9287
SWIDTH 480 0
DWIDTH 8 0
BBX 8 16 0 -2
BITMAP
00
49
00
00
00
00
00
00
00
00
00
00
00
00
00
00
ENDCHAR
STARTCHAR C14a
ENCODING 9288
SWIDTH 480 0
DWIDTH 8 0
BBX 8 16 0 -2
BITMAP
00
4a
00
00
00
00
00
00
00
00
00
00
00
00
00
00
ENDCHAR
STARTCHAR C14b
ENCODING 9289
SWIDTH 480 0
DWIDTH 8 0
BBX 8 16 0 -2
BITMAP
00
4b
00
00
00
00
00
00
00
00
00
00
00
00
00
00
ENDCHAR
STARTCHAR C14c
ENCODING 9290
SWIDTH 480 0
DWIDTH 8 0
BBX 8 16 0 -2
BITMAP
00
4c
00
00
00
00
00
00
00
00
00
00
00
00
00
00
ENDCHAR
STARTCHAR C14d
ENCODING 9291
SWIDTH 480 0
DWIDTH 8 0
BBX 8 16 0 -2
BITMAP
00
4d
00
00
00
00
00
00
00
00
00
00
00
00
00
00
ENDCHAR
STARTCHAR C14e
ENCODING 9292
SWIDTH 480 0
DWIDTH 8 0
BBX 8 16 0 -2
BITMAP
00
4e
00
00
00
00
00
00
00
00
00
00
00
00
00
00
ENDCHAR
STARTCHAR C14f
ENCODING 9293
SWIDTH 480 0
DWIDTH 8 0
BBX 8 16 0 -2
BITMAP
00
4f
00
00
00
00
00
00
00
00
00
00
00
00
00
00
ENDCHAR
STARTCHAR C150
ENCODING 9294
SWIDTH 480 0
DWIDTH 8 0
BBX 8 16 0 -2
BITMAP
00
50
00
00
00
00
00
00
00
00
00
00
00
00
00
00
ENDCHAR
STARTCHAR C151
ENCODING 9295
SWIDTH 480 0
DWIDTH 8 0
BBX 8 16 0 -2
BITMAP
00
51
00
00
00
00
00
00
00
00
00
00
00
00
00
00
ENDCHAR
STARTCHAR C152
ENCODING 9296
SWIDTH 480 0
DWIDTH 8 0
BBX 8 16 0 -2
BITMAP
00
52
00
00
00
00
00
00
00
00
00
00
00
00
00
00
ENDCHAR
STARTCHAR C153
ENCODING 9297
SWIDTH 480 0
DWIDTH 8 0
BBX 8 16 0 -2
BITMAP
00
53
00
00
00
00
00
00
00
00
00
00
00
00
00
00
ENDCHAR
STARTCHAR C154
ENCODING 9298
SWIDTH 480 0
DWIDTH 8 0
BBX 8 16 0 -2
BITMAP
00
54
00
00
00
00
00
00
00
00
00
00
00
00
00
00
ENDCHAR
STARTCHAR C155
ENCODING 9299
SWIDTH 480 0
DWIDTH 8 0
BBX 8 16 0 -2
BITMAP
00
55
00
00
00
00
00
00
00
00
00
00
00
00
00
00
ENDCHAR
STARTCHAR C156
ENCODING 9300
SWIDTH 480 0
DWIDTH 8 0
BBX 8 16 0 -2
BITMAP
00
56
00
00
00
00
00
00
00
00
00
00
00
00
00
00
ENDCHAR
STARTCHAR C157
ENCODING 9301
SWIDTH 480 0
DWIDTH 8 0
BBX 8 16 0 -2
BITMAP
00
57
00
00
00
00
00
00
00
00
00
00
00
00
00
00
ENDCHAR
STARTCHAR C158
ENCODING 9302
SWIDTH 480 0
DWIDTH 8 0
BBX 8 16 0 -2
BITMAP
00
58
00
00
00
00
00
00
00
00
00
00
00
00
00
00
ENDCHAR
STARTCHAR C159
ENCODING 9303
SWIDTH 480 0
DWIDTH 8 0
BBX 8 16 0 -2
BITMAP
00
59
00
00
00
00
00
00
00
00
00
00
00
00
00
00
ENDCHAR
STARTCHAR C15a
ENCODING 9304
SWIDTH 480 0
DWIDTH 8 0
BBX 8 16 0 -2
BITMAP
00
5a
00
00
00
00
00
00
00
00
00
00
00
00
00
00
ENDCHAR
STARTCHAR C15b
ENCODING 9305
SWIDTH 480 0
DWIDTH 8 0
BBX 8 16 0 -2
BITMAP
00
5b
00
00
00
00
00
00
00
00
00
00
00
00
00
00
ENDCHAR
STARTCHAR C15c
ENCODING 9306
SWIDTH 480 0
DWIDTH 8 0
BBX 8 16 0 -2
BITMAP
00
5c
00
00
00
00
00
00
00
00
00
00
00
00
00
00
ENDCHAR
STARTCHAR C15d
ENCODING 9307
SWIDTH 480 0
DWIDTH 8 0
BBX 8 16 0 -2
BITMAP
00
5d
00
00
00
00
00
00
00
00
00
00
00
00
00
00
ENDCHAR
STARTCHAR C15e
ENCODING 9308
SWIDTH 480 0
DWIDTH 8 0
BBX 8 16 0 -2
BITMAP
00
5e
00
00
00
00
00
00
00
00
00
00
00
00
00
00
ENDCHAR
STARTCHAR C15f
ENCODING 9309
SWIDTH 480 0
DWIDTH 8 0
BBX 8 16 0 -2
BITMAP
00
5f
00
00
00
00
00
00
00
00
00
00
00
00
00
00
ENDCHAR
STARTCHAR C160
ENCODING 9310
SWIDTH 480 0
DWIDTH 8 0
BBX 8 16 0 -2
BITMAP
00
60
00
00
00
00
00
00
00
00
00
00
00
00
00
00
ENDCHAR
STARTCHAR C161
ENCODING 9311
SWIDTH 480 0
DWIDTH 8 0
BBX 8 16 0 -2
BITMAP
00
61
00
00
00
00
00
00
00
00
00
00
00
00
00
00
ENDCHAR
STARTCHAR C162
ENCODING 9312
SWIDTH 480 0
DWIDTH 8 0
BBX 8 16 0 -2
BITMAP
00
62
00
00
00
00
00
00
00
00
00
00
00
00
00
00
ENDCHAR
STARTCHAR C163
ENCODING 9313
SWIDTH 480 0
DWIDTH 8 0
BBX 8 16 0 -2
BITMAP
00
63
00
00
00
00
00
00
00
00
00
00
00
00
00
00
ENDCHAR
STARTCHAR C164
ENCODING 9314
SWIDTH 480 0
DWIDTH 8 0
BBX 8 16 0 -2
BITMAP
00
64
00
00
00
00
00
00
00
00
00
00
00
00
00
00
ENDCHAR
STARTCHAR C165
ENCODING 9315
SWIDTH 480 0
DWIDTH 8 0
BBX 8 16 0 -2
BITMAP
00
65
00
00
00
00
00
00
00
00
00
00
00
00
00
00
ENDCHAR
STARTCHAR C166
ENCODING 9316
SWIDTH 480 0
DWIDTH 8 0
BBX 8 16 0 -2
BITMAP
00
66
00
00
00
00
00
00
00
00
00
00
00
00
00
00
ENDCHAR
STARTCHAR C167
ENCODING 9317
SWIDTH 480 0
DWIDTH 8 0
BBX 8 16 0 -2
BITMAP
00
67
00
00
00
00
00
00
00
00
00
00
00
00
00
00
ENDCHAR
STARTCHAR C168
ENCODING 9318
SWIDTH 480 0
DWIDTH 8 0
BBX 8 16 0 -2
BITMAP
00
68
00
00
00
00
00
00
00
00
00
00
00
00
00
00
ENDCHAR
STARTCHAR C169
ENCODING 9319
SWIDTH 480 0
DWIDTH 8 0
BBX 8 16 0 -2
BITMAP
00
69
00
00
00
00
00
00
00
00
00
00
00
00
00
00
ENDCHAR
STARTCHAR C16a
ENCODING 9320
SWIDTH 480 0
DWIDTH 8 0
BBX 8 16 0 -2
BITMAP
00
6a
00
00
00
00
00
00
00
00
00
00
00
00
00
00
ENDCHAR
STARTCHAR C16b
ENCODING 9321
SWIDTH 480 0
DWIDTH 8 0
BBX 8 16 0 -2
BITMAP
00
6b
00
00
00
00
00
00
00
00
00
00
00
00
00
00
ENDCHAR
STARTCHAR C16c
ENCODING 9322
SWIDTH 480 0
DWIDTH 8 0
BBX 8 16 0 -2
BITMAP
00
6c
00
00
00
00
00
00
00
00
00
00
00
00
00
00
ENDCHAR
STARTCHAR C16d
ENCODING 9323
SWIDTH 480 0
DWIDTH 8 0
BBX 8 16 0 -2
BITMAP
00
6d
00
00
00
00
00
00
00
00
00
00
00
00
00
00
ENDCHAR
STARTCHAR C16e
ENCODING 9324
SWIDTH 480 0
DWIDTH 8 0
BBX 8 16 0 -2
BITMAP
00
6e
00
00
00
00
00
00
00
00
00
00
00
00
00
00
ENDCHAR
STARTCHAR C16f
ENCODING 9325
SWIDTH 480 0
DWIDTH 8 0
BBX 8 16 0 -2
BITMAP
00
6f
00
00
00
00
00
00
00
00
00
00
00
00
00
00
ENDCHAR
STARTCHAR C170
ENCODING 9326
SWIDTH 480 0
DWIDTH 8 0
BBX 8 16 0 -2
BITMAP
00
70
00
00
00
00
00
00
00
00
00
00
00
00
00
00
ENDCHAR
STARTCHAR C171
ENCODING 9327
SWIDTH 480 0
DWIDTH 8 0
BBX 8 16 0 -2
BITMAP
00
71
00
00
00
00
00
00
00
00
00
00
00
00
00
00
ENDCHAR
STARTCHAR C172
ENCODING 9328
SWIDTH 480 0
DWIDTH 8 0
BBX 8 16 0 -2
BITMAP
00
72
00
00
00
00
00
00
00
00
00
00
00
00
00
00
ENDCHAR
STARTCHAR C173
ENCODING 9329
SWIDTH 480 0
DWIDTH 8 0
BBX 8 16 0 -2
BITMAP
00
73
00
00
00
00
00
00
00
00
00
00
00
00
00
00
ENDCHAR
STARTCHAR C174
ENCODING 9330
SWIDTH 480 0
DWIDTH 8 0
BBX 8 16 0 -2
BITMAP
00
74
00
00
00
00
00
00
00
00
00
00
00
00
00
00
ENDCHAR
STARTCHAR C175
ENCODING 9331
SWIDTH 480 0
DWIDTH 8 0
BBX 8 16 0 -2
BITMAP
00
75
00
00
00
00
00
00
00
00
00
00
00
00
00
00
ENDCHAR
STARTCHAR C176
ENCODING 9332
SWIDTH 480 0
DWIDTH 8 0
BBX 8 16 0 -2
BITMAP
00
76
00
00
00
00
00
00
00
00
00
00
00
00
00
00
ENDCHAR
STARTCHAR C177
ENCODING 9333
SWIDTH 480 0
DWIDTH 8 0
BBX 8 16 0 -2
BITMAP
00
77
00
00
00
00
00
00
00
00
00
00
00
00
00
00
ENDCHAR
STARTCHAR C178
ENCODING 9334
SWIDTH 480 0
DWIDTH 8 0
BBX 8 16 0 -2
BITMAP
00
78
00
00
00
00
00
00
00
00
00
00
00
00
00
00
ENDCHAR
STARTCHAR C179
ENCODING 9335
SWIDTH 480 0
DWIDTH 8 0
BBX 8 16 0 -2
BITMAP
00
79
00
00
00
00
00
00
00
00
00
00
00
00
00
00
ENDCHAR
STARTCHAR C17a
ENCODING 9336
SWIDTH 480 0
DWIDTH 8 0
BBX 8 16 0 -2
BITMAP
00
7a
00
00
00
00
00
00
00
00
00
00
00
00
00
00
ENDCHAR
STARTCHAR C17b
ENCODING 9337
SWIDTH 480 0
DWIDTH 8 0
BBX 8 16 0 -2
BITMAP
00
7b
00
00
00
00
00
00
00
00
00
00
00
00
00
00
ENDCHAR
STARTCHAR C17c
ENCODING 9338
SWIDTH 480 0
DWIDTH 8 0
BBX 8 16 0 -2
BITMAP
00
7c
00
00
00
00
00
00
00
00
00
00
00
00
00
00
ENDCHAR
STARTCHAR C17d
ENCODING 9339
SWIDTH 480 0
DWIDTH 8 0
BBX 8 16 0 -2
BITMAP
00
7d
00
00
00
00
00
00
00
00
00
00
00
00
00
00
ENDCHAR
STARTCHAR C17e
ENCODING 9340
SWIDTH 480 0
DWIDTH 8 0
BBX 8 16 0 -2
BITMAP
00
7e
00
00
00
00
00
00
00
00
00
00
00
00
00
00
ENDCHAR
STARTCHAR C17f
ENCODING 9341
SWIDTH 480 0
DWIDTH 8 0
BBX 8 16 0 -2
BITMAP
00
7f
00
00
00
00
00
00
00
00
00
00
00
00
00
00
ENDCHAR
STARTCHAR C180
ENCODING 9342
SWIDTH 480 0
DWIDTH 8 0
BBX 8 16 0 -2
BITMAP
00
80
00
00
00
00
00
00
00
00
00
00
00
00
00
00
ENDCHAR
STARTCHAR C181
ENCODING 9343
SWIDTH 480 0
DWIDTH 8 0
BBX 8 16 0 -2
BITMAP
00
81
00
00
00
00
00
00
00
00
00
00
00
00
00
00
ENDCHAR
STARTCHAR C182
ENCODING 9504
SWIDTH 480 0
DWIDTH 8 0
BBX 8 16 0 -2
BITMAP
00
82
00
00
00
00
00
00
00
00
00
00
00
00
00
00
ENDCHAR
STARTCHAR C183
ENCODING 9505
SWIDTH 480 0
DWIDTH 8 0
BBX 8 16 0 -2
BITMAP
00
83
00
00
00
00
00
00
00
00
00
00
00
00
00
00
ENDCHAR
STARTCHAR C184
ENCODING 9506
SWIDTH 480 0
DWIDTH 8 0
BBX 8 16 0 -2
BITMAP
00
84
00
00
00
00
00
00
00
00
00
00
00
00
00
00
ENDCHAR
STARTCHAR C185
ENCODING 9507
SWIDTH 480 0
DWIDTH 8 0
BBX 8 16 0 -2
BITMAP
00
85
00
00
00
00
00
00
00
00
00
00
00
00
00
00
ENDCHAR
STARTCHAR C186
ENCODING 9508
SWIDTH 480 0
DWIDTH 8 0
BBX 8 16 0 -2
BITMAP
00
86
00
00
00
00
00
00
00
00
00
00
00
00
00
00
ENDCHAR
STARTCHAR C187
ENCODING 9509
SWIDTH 480 0
DWIDTH 8 0
BBX 8 16 0 -2
BITMAP
00
87
00
00
00
00
00
00
00
00
00
00
00
00
00
00
ENDCHAR
STARTCHAR C188
ENCODING 9510
SWIDTH 480 0
DWIDTH 8 0
BBX 8 16 0 -2
BITMAP
00
88
00
00
00
00
00
00
00
00
00
00
00
00
00
00
ENDCHAR
STARTCHAR C189
ENCODING 9511
SWIDTH 480 0
DWIDTH 8 0
BBX 8 16 0 -2
BITMAP
00
89
00
00
00
00
00
00
00
00
00
00
00
00
00
00
ENDCHAR
STARTCHAR C18a
ENCODING 9512
SWIDTH 480 0
DWIDTH 8 0
BBX 8 16 0 -2
BITMAP
00
8a
00
00
00
00
00
00
00
00
00
00
00
00
00
00
ENDCHAR
STARTCHAR C18b
ENCODING 9513
SWIDTH 480 0
DWIDTH 8 0
BBX 8 16 0 -2
BITMAP
00
8b
00
00
00
00
00
00
00
00
00
00
00
00
00
00
ENDCHAR
STARTCHAR C18c
ENCODING 9514
SWIDTH 480 0
DWIDTH 8 0
BBX 8 16 0 -2
BITMAP
00
8c
00
00
00
00
00
00
00
00
00
00
00
00
00
00
ENDCHAR
STARTCHAR C18d
ENCODING 9515
SWIDTH 480 0
DWIDTH 8 0
BBX 8 16 0 -2
BITMAP
00
8d
00
00
00
00
00
00
00
00
00
00
00
00
00
00
ENDCHAR
STARTCHAR C18e
ENCODING 9516
SWIDTH 480 0
DWIDTH 8 0
BBX 8 16 0 -2
BITMAP
00
8e
00
00
00
00
00
00
00
00
00
00
00
00
00
00
ENDCHAR
STARTCHAR C18f
ENCODING 9517
SWIDTH 480 0
DWIDTH 8 0
BBX 8 16 0 -2
BITMAP
00
8f
00
00
00
00
00
00
00
00
00
00
00
00
00
00
ENDCHAR
STARTCHAR C190
ENCODING 9518
SWIDTH 480 0
DWIDTH 8 0
BBX 8 16 0 -2
BITMAP
00
90
00
00
00
00
00
00
00
00
00
00
00
00
00
00
ENDCHAR
STARTCHAR C191
ENCODING 9519
SWIDTH 480 0
DWIDTH 8 0
BBX 8 16 0 -2
BITMAP
00
91
00
00
00
00
00
00
00
00
00
00
00
00
00
00
ENDCHAR
STARTCHAR C192
ENCODING 9520
SWIDTH 480 0
DWIDTH 8 0
BBX 8 16 0 -2
BITMAP
00
92
00
00
00
00
00
00
00
00
00
00
00
00
00
00
ENDCHAR
STARTCHAR C193
ENCODING 9521
SWIDTH 480 0
DWIDTH 8 0
BBX 8 16 0 -2
BITMAP
00
93
00
00
00
00
00
00
00
00
00
00
00
00
00
00
ENDCHAR
STARTCHAR C194
ENCODING 9522
SWIDTH 480 0
DWIDTH 8 0
BBX 8 16 0 -2
BITMAP
00
94
00
00
00
00
00
00
00
00
00
00
00
00
00
00
ENDCHAR
STARTCHAR C195
ENCODING 9523
SWIDTH 480 0
DWIDTH 8 0
BBX 8 16 0 -2
BITMAP
00
95
00
00
00
00
00
00
00
00
00
00
00
00
00
00
ENDCHAR
STARTCHAR C196
ENCODING 9524
SWIDTH 480 0
DWIDTH 8 0
BBX 8 16 0 -2
BITMAP
00
96
00
00
00
00
00
00
00
00
00
00
00
00
00
00
ENDCHAR
STARTCHAR C197
ENCODING 9525
SWIDTH 480 0
DWIDTH 8 0
BBX 8 16 0 -2
BITMAP
00
97
00
00
00
00
00
00
00
00
00
00
00
00
00
00
ENDCHAR
STARTCHAR C198
ENCODING 9526
SWIDTH 480 0
DWIDTH 8 0
BBX 8 16 0 -2
BITMAP
00
98
00
00
00
00
00
00
00
00
00
00
00
00
00
00
ENDCHAR
STARTCHAR C199
ENCODING 9527
SWIDTH 480 0
DWIDTH 8 0
BBX 8 16 0 -2
BITMAP
00
99
00
00
00
00
00
00
00
00
00
00
00
00
00
00
ENDCHAR
STARTCHAR C19a
ENCODING 9528
SWIDTH 480 0
DWIDTH 8 0
BBX 8 16 0 -2
BITMAP
00
9a
00
00
00
00
00
00
00
00
00
00
00
00
00
00
ENDCHAR
STARTCHAR C19b
ENCODING 9529
SWIDTH 480 0
DWIDTH 8 0
BBX 8 16 0 -2
BITMAP
00
9b
00
00
00
00
00
00
00
00
00
00
00
00
00
00
ENDCHAR
STARTCHAR C19c
ENCODING 9530
SWIDTH 480 0
DWIDTH 8 0
BBX 8 16 0 -2
BITMAP
00
9c
00
00
00
00
00
00
00
00
00
00
00
00
00
00
ENDCHAR
STARTCHAR C19d
ENCODING 9531
SWIDTH 480 0
DWIDTH 8 0
BBX 8 16 0 -2
BITMAP
00
9d
00
00
00
00
00
00
00
00
00
00
00
00
00
00
ENDCHAR
STARTCHAR C19e
ENCODING 9532
SWIDTH 480 0
DWIDTH 8 0
BBX 8 16 0 -2
BITMAP
00
9e
00
00
00
00
00
00
00
00
00
00
00
00
00
00
ENDCHAR
STARTCHAR C19f
ENCODING 9533
SWIDTH 480 0
DWIDTH 8 0
BBX 8 16 0 -2
BITMAP
00
9f
00
00
00
00
00
00
00
00
00
00
00
00
00
00
ENDCHAR
STARTCHAR C1a0
ENCODING 9534
SWIDTH 480 0
DWIDTH 8 0
BBX 8 16 0 -2
BITMAP
00
a0
00
00
00
00
00
00
00
00
00
00
00
00
00
00
ENDCHAR
STARTCHAR C1a1
ENCODING 9535
SWIDTH 480 0
DWIDTH 8 0
BBX 8 16 0 -2
BITMAP
00
a1
00
00
00
00
00
00
00
00
00
00
00
00
00
00
ENDCHAR
STARTCHAR C1a2
ENCODING 9536
SWIDTH 480 0
DWIDTH 8 0
BBX 8 16 0 -2
BITMAP
00
a2
00
00
00
00
00
00
00
00
00
00
00
00
00
00
ENDCHAR
STARTCHAR C1a3
ENCODING 9537
SWIDTH 480 0
DWIDTH 8 0
BBX 8 16 0 -2
BITMAP
00
a3
00
00
00
00
00
00
00
00
00
00
00
00
00
00
ENDCHAR
STARTCHAR C1a4
ENCODING 9538
SWIDTH 480 0
DWIDTH 8 0
BBX 8 16 0 -2
BITMAP
00
a4
00
00
00
00
00
00
00
00
00
00
00
00
00
00
ENDCHAR
STARTCHAR C1a5
ENCODING 9539
SWIDTH 480 0
DWIDTH 8 0
BBX 8 16 0 -2
BITMAP
00
a5
00
00
00
00
00
00
00
00
00
00
00
00
00
00
ENDCHAR
STARTCHAR C1a6
ENCODING 9540
SWIDTH 480 0
DWIDTH 8 0
BBX 8 16 0 -2
BITMAP
00
a6
00
00
00
00
00
00
00
00
00
00
00
00
00
00
ENDCHAR
STARTCHAR C1a7
ENCODING 9541
SWIDTH 480 0
DWIDTH 8 0
BBX 8 16 0 -2
BITMAP
00
a7
00
00
00
00
00
00
00
00
00
00
00
00
00
00
ENDCHAR
STARTCHAR C1a8
ENCODING 9542
SWIDTH 480 0
DWIDTH 8 0
BBX 8 16 0 -2
BITMAP
00
a8
00
00
00
00
00
00
00
00
00
00
00
00
00
00
ENDCHAR
STARTCHAR C1a9
ENCODING 9543
SWIDTH 480 0
DWIDTH 8 0
BBX 8 16 0 -2
BITMAP
00
a9
00
00
00
00
00
00
00
00
00
00
00
00
00
00
ENDCHAR
STARTCHAR C1aa
ENCODING 9544
SWIDTH 480 0
DWIDTH 8 0
BBX 8 16 0 -2
BITMAP
00
aa
00
00
00
00
00
00
00
00
00
00
00
00
00
00
ENDCHAR
STARTCHAR C1ab
ENCODING 9545
SWIDTH 480 0
DWIDTH 8 0
BBX 8 16 0 -2
BITMAP
00
ab
00
00
00
00
00
00
00
00
00
00
00
00
00
00
ENDCHAR
STARTCHAR C1ac
ENCODING 9546
SWIDTH 480 0
DWIDTH 8 0
BBX 8 16 0 -2
BITMAP
00
ac
00
00
00
00
00
00
00
00
00
00
00
00
00
00
ENDCHAR
STARTCHAR C1ad
ENCODING 9547
SWIDTH 480 0
DWIDTH 8 0
BBX 8 16 0 -2
BITMAP
00
ad
00
00
00
00
00
00
00
00
00
00
00
00
00
00
ENDCHAR
STARTCHAR C1ae
ENCODING 9548
SWIDTH 480 0
DWIDTH 8 0
BBX 8 16 0 -2
BITMAP
00
ae
00
00
00
00
00
00
00
00
00
00
00
00
00
00
ENDCHAR
STARTCHAR C1af
ENCODING 9549
SWIDTH 480 0
DWIDTH 8 0
BBX 8 16 0 -2
BITMAP
00
af
00
00
00
00
00
00
00
00
00
00
00
00
00
00
ENDCHAR
STARTCHAR C1b0
ENCODING 9550
SWIDTH 480 0
DWIDTH 8 0
BBX 8 16 0 -2
BITMAP
00
b0
00
00
00
00
00
00
00
00
00
00
00
00
00
00
ENDCHAR
STARTCHAR C1b1
ENCODING 9551
SWIDTH 480 0
DWIDTH 8 0
BBX 8 16 0 -2
BITMAP
00
b1
00
00
00
00
00
00
00
00
00
00
00
00
00
00
ENDCHAR
STARTCHAR C1b2
ENCODING 9552
SWIDTH 480 0
DWIDTH 8 0
BBX 8 16 0 -2
BITMAP
00
b2
00
00
00
00
00
00
00
00
00
00
00
00
00
00
ENDCHAR
STARTCHAR C1b3
ENCODING 9553
SWIDTH 480 0
DWIDTH 8 0
BBX 8 16 0 -2
BITMAP
00
b3
00
00
00
00
00
00
00
00
00
00
00
00
00
00
ENDCHAR
STARTCHAR C1b4
ENCODING 9554
SWIDTH 480 0
DWIDTH 8 0
BBX 8 16 0 -2
BITMAP
00
b4
00
00
00
00
00
00
00
00
00
00
00
00
00
00
ENDCHAR
STARTCHAR C1b5
ENCODING 9555
SWIDTH 480 0
DWIDTH 8 0
BBX 8 16 0 -2
BITMAP
00
b5
00
00
00
00
00
00
00
00
00
00
00
00
00
00
ENDCHAR
STARTCHAR C1b6
ENCODING 9556
SWIDTH 480 0
DWIDTH 8 0
BBX 8 16 0 -2
BITMAP
00
b6
00
00
00
00
00
00
00
00
00
00
00
00
00
00
ENDCHAR
STARTCHAR C1b7
ENCODING 9557
SWIDTH 480 0
DWIDTH 8 0
BBX 8 16 0 -2
BITMAP
00
b7
00
00
00
00
00
00
00
00
00
00
00
00
00
00
ENDCHAR
STARTCHAR C1b8
ENCODING 9558
SWIDTH 480 0
DWIDTH 8 0
BBX 8 16 0 -2
BITMAP
00
b8
00
00
00
00
00
00
00
00
00
00
00
00
00
00
ENDCHAR
STARTCHAR C1b9
ENCODING 9559
SWIDTH 480 0
DWIDTH 8 0
BBX 8 16 0 -2
BITMAP
00
b9
00
00
00
00
00
00
00
00
00
00
00
00
00
00
ENDCHAR
STARTCHAR C1ba
ENCODING 9560
SWIDTH 480 0
DWIDTH 8 0
BBX 8 16 0 -2
BITMAP
00
ba
00
00
00
00
00
00
00
00
00
00
00
00
00
00
ENDCHAR
STARTCHAR C1bb
ENCODING 9561
SWIDTH 480 0
DWIDTH 8 0
BBX 8 16 0 -2
BITMAP
00
bb
00
00
00
00
00
00
00
00
00
00
00
00
00
00
ENDCHAR
STARTCHAR C1bc
ENCODING 9562
SWIDTH 480 0
DWIDTH 8 0
BBX 8 16 0 -2
BITMAP
00
bc
00
00
00
00
00
00
00
00
00
00
00
00
00
00
ENDCHAR
STARTCHAR C1bd
ENCODING 9563
SWIDTH 480 0
DWIDTH 8 0
BBX 8 16 0 -2
BITMAP
00
bd
00
00
00
00
00
00
00
00
00
00
00
00
00
00
ENDCHAR
STARTCHAR C1be
ENCODING 9564
SWIDTH 480 0
DWIDTH 8 0
BBX 8 16 0 -2
BITMAP
00
be
00
00
00
00
00
00
00
00
00
00
00
00
00
00
ENDCHAR
STARTCHAR C1bf
ENCODING 9565
SWIDTH 480 0
DWIDTH 8 0
BBX 8 16 0 -2
BITMAP
00
bf
00
00
00
00
00
00
00
00
00
00
00
00
00
00
ENDCHAR
STARTCHAR C1c0
ENCODING 9566
SWIDTH 480 0
DWIDTH 8 0
BBX 8 16 0 -2
BITMAP
00
c0
00
00
00
00
00
00
00
00
00
00
00
00
00
00
ENDCHAR
STARTCHAR C1c1
ENCODING 9567
SWIDTH 480 0
DWIDTH 8 0
BBX 8 16 0 -2
BITMAP
00
c1
00
00
00
00
00
00
00
00
00
00
00
00
00
00
ENDCHAR
STARTCHAR C1c2
ENCODING 9568
SWIDTH 480 0
DWIDTH 8 0
BBX 8 16 0 -2
BITMAP
00
c2
00
00
00
00
00
00
00
00
00
00
00
00
00
00
ENDCHAR
STARTCHAR C1c3
ENCODING 9569
SWIDTH 480 0
DWIDTH 8 0
BBX 8 16 0 -2
BITMAP
00
c3
00
00
00
00
00
00
00
00
00
00
00
00
00
00
ENDCHAR
STARTCHAR C1c4
ENCODING 9570
SWIDTH 480 0
DWIDTH 8 0
BBX 8 16 0 -2
BITMAP
00
c4
00
00
00
00
00
00
00
00
00
00
00
00
00
00
ENDCHAR
STARTCHAR C1c5
ENCODING 9571
SWIDTH 480 0
DWIDTH 8 0
BBX 8 16 0 -2
BITMAP
00
c5
00
00
00
00
00
00
00
00
00
00
00
00
00
00
ENDCHAR
STARTCHAR C1c6
ENCODING 9572
SWIDTH 480 0
DWIDTH 8 0
BBX 8 16 0 -2
BITMAP
00
c6
00
00
00
00
00
00
00
00
00
00
00
00
00
00
ENDCHAR
STARTCHAR C1c7
ENCODING 9573
SWIDTH 480 0
DWIDTH 8 0
BBX 8 16 0 -2
BITMAP
00
c7
00
00
00
00
00
00
00
00
00
00
00
00
00
00
ENDCHAR
STARTCHAR C1c8
ENCODING 9574
SWIDTH 480 0
DWIDTH 8 0
BBX 8 16 0 -2
BITMAP
00
c8
00
00
00
00
00
00
00
00
00
00
00
00
00
00
ENDCHAR
STARTCHAR C1c9
ENCODING 9575
SWIDTH 480 0
DWIDTH 8 0
BBX 8 16 0 -2
BITMAP
00
c9
00
00
00
00
00
00
00
00
00
00
00
00
00
00
ENDCHAR
STARTCHAR C1ca
ENCODING 9576
SWIDTH 480 0
DWIDTH 8 0
BBX 8 16 0 -2
BITMAP
00
ca
00
00
00
00
00
00
00
00
00
00
00
00
00
00
ENDCHAR
STARTCHAR C1cb
ENCODING 9577
SWIDTH 480 0
DWIDTH 8 0
BBX 8 16 0 -2
BITMAP
00
cb
00
00
00
00
00
00
00
00
00
00
00
00
00
00
ENDCHAR
STARTCHAR C1cc
ENCODING 9578
SWIDTH 480 0
DWIDTH 8 0
BBX 8 16 0 -2
BITMAP
00
cc
00
00
00
00
00
00
00
00
00
00
00
00
00
00
ENDCHAR
STARTCHAR C1cd
ENCODING 9579
SWIDTH 480 0
DWIDTH 8 0
BBX 8 16 0 -2
BITMAP
00
cd
00
00
00
00
00
00
00
00
00
00
00
00
00
00
ENDCHAR
STARTCHAR C1ce
ENCODING 9580
SWIDTH 480 0
DWIDTH 8 0
BBX 8 16 0 -2
BITMAP
00
ce
00
00
00
00
00
00
00
00
00
00
00
00
00
00
ENDCHAR
STARTCHAR C1cf
ENCODING 9581
SWIDTH 480 0
DWIDTH 8 0
BBX 8 16 0 -2
BITMAP
00
cf
00
00
00
00
00
00
00
00
00
00
00
00
00
00
ENDCHAR
STARTCHAR C1d0
ENCODING 9582
SWIDTH 480 0
DWIDTH 8 0
BBX 8 16 0 -2
BITMAP
00
d0
00
00
00
00
00
00
00
00
00
00
00
00
00
00
ENDCHAR
STARTCHAR C1d1
ENCODING 9583
SWIDTH 480 0
DWIDTH 8 0
BBX 8 16 0 -2
BITMAP
00
d1
00
00
00
00
00
00
00
00
00
00
00
00
00
00
ENDCHAR
STARTCHAR C1d2
ENCODING 9584
SWIDTH 480 0
DWIDTH 8 0
BBX 8 16 0 -2
BITMAP
00
d2
00
00
00
00
00
00
00
00
00
00
00
00
00
00
ENDCHAR
STARTCHAR C1d3
ENCODING 9585
SWIDTH 480 0
DWIDTH 8 0
BBX 8 16 0 -2
BITMAP
00
d3
00
00
00
00
00
00
00
00
00
00
00
00
00
00
ENDCHAR
STARTCHAR C1d4
ENCODING 9586
SWIDTH 480 0
DWIDTH 8 0
BBX 8 16 0 -2
BITMAP
00
d4
00
00
00
00
00
00
00
00
00
00
00
00
00
00
ENDCHAR
STARTCHAR C1d5
ENCODING 9587
SWIDTH 480 0
DWIDTH 8 0
BBX 8 16 0 -2
BITMAP
00
d5
00
00
00
00
00
00
00
00
00
00
00
00
00
00
ENDCHAR
STARTCHAR C1d6
ENCODING 9588
SWIDTH 480 0
DWIDTH 8 0
BBX 8 16 0 -2
BITMAP
00
d6
00
00
00
00
00
00
00
00
00
00
00
00
00
00
ENDCHAR
STARTCHAR C1d7
ENCODING 9589
SWIDTH 480 0
DWIDTH 8 0
BBX 8 16 0 -2
BITMAP
00
d7
00
00
00
00
00
00
00
00
00
00
00
00
00
00
ENDCHAR
STARTCHAR C1d8
ENCODING 9590
SWIDTH 480 0
DWIDTH 8 0
BBX 8 16 0 -2
BITMAP
00
d8
00
00
00
00
00
00
00
00
00
00
00
00
00
00
ENDCHAR
STARTCHAR C1d9
ENCODING 9591
SWIDTH 480 0
DWIDTH 8 0
BBX 8 16 0 -2
BITMAP
00
d9
00
00
00
00
00
00
00
00
00
00
00
00
00
00
ENDCHAR
STARTCHAR C1da
ENCODING 9592
SWIDTH 480 0
DWIDTH 8 0
BBX 8 16 0 -2
BITMAP
00
da
00
00
00
00
00
00
00
00
00
00
00
00
00
00
ENDCHAR
STARTCHAR C1db
ENCODING 9593
SWIDTH 480 0
DWIDTH 8 0
BBX 8 16 0 -2
BITMAP
00
db
00
00
00
00
00
00
00
00
00
00
00
00
00
00
ENDCHAR
STARTCHAR C1dc
ENCODING 9594
SWIDTH 480 0
DWIDTH 8 0
BBX 8 16 0 -2
BITMAP
00
dc
00
00
00
00
00
00
00
00
00
00
00
00
00
00
ENDCHAR
STARTCHAR C1dd
ENCODING 9595
SWIDTH 480 0
DWIDTH 8 0
BBX 8 16 0 -2
BITMAP
00
dd
00
00
00
00
00
00
00
00
00
00
00
00
00
00
ENDCHAR
STARTCHAR C1de
ENCODING 9596
SWIDTH 480 0
DWIDTH 8 0
BBX 8 16 0 -2
BITMAP
00
de
00
00
00
00
00
00
00
00
00
00
00
00
00
00
ENDCHAR
STARTCHAR C1df
ENCODING 9597
SWIDTH 480 0
DWIDTH 8 0
BBX 8 16 0 -2
BITMAP
00
df
00
00
00
00
00
00
00
00
00
00
00
00
00
00
ENDCHAR
STARTCHAR C1e0
ENCODING 9598
SWIDTH 480 0
DWIDTH 8 0
BBX 8 16 0 -2
BITMAP
00
e0
00
00
00
00
00
00
00
00
00
00
00
00
00
00
ENDCHAR
STARTCHAR C1e1
ENCODING 9599
SWIDTH 480 0
DWIDTH 8 0
BBX 8 16 0 -2
BITMAP
00
e1
00
00
00
00
00
00
00
00
00
00
00
00
00
00
ENDCHAR
STARTCHAR C1e2
ENCODING 9760
SWIDTH 480 0
DWIDTH 8 0
BBX 8 16 0 -2
BITMAP
00
e2
00
00
00
00
00
00
00
00
00
00
00
00
00
00
ENDCHAR
STARTCHAR C1e3
ENCODING 9761
SWIDTH 480 0
DWIDTH 8 0
BBX 8 16 0 -2
BITMAP
00
e3
00
00
00
00
00
00
00
00
00
00
00
00
00
00
ENDCHAR
STARTCHAR C1e4
ENCODING 9762
SWIDTH 480 0
DWIDTH 8 0
BBX 8 16 0 -2
BITMAP
00
e4
00
00
00
00
00
00
00
00
00
00
00
00
00
00
ENDCHAR
STARTCHAR C1e5
ENCODING 9763
SWIDTH 480 0
DWIDTH 8 0
BBX 8 16 0 -2
BITMAP
00
e5
00
00
00
00
00
00
00
00
00
00
00
00
00
00
ENDCHAR
STARTCHAR C1e6
ENCODING 9764
SWIDTH 480 0
DWIDTH 8 0
BBX 8 16 0 -2
BITMAP
00
e6
00
00
00
00
00
00
00
00
00
00
00
00
00
00
ENDCHAR
STARTCHAR C1e7
ENCODING 9765
SWIDTH 480 0
DWIDTH 8 0
BBX 8 16 0 -2
BITMAP
00
e7
00
00
00
00
00
00
00
00
00
00
00
00
00
00
ENDCHAR
STARTCHAR C1e8
ENCODING 9766
SWIDTH 480 0
DWIDTH 8 0
BBX 8 16 0 -2
BITMAP
00
e8
00
00
00
00
00
00
00
00
00
00
00
00
00
00
ENDCHAR
STARTCHAR C1e9
ENCODING 9767
SWIDTH 480 0
DWIDTH 8 0
BBX 8 16 0 -2
BITMAP
00
e9
00
00
00
00
00
00
00
00
00
00
00
00
00
00
ENDCHAR
STARTCHAR C1ea
ENCODING 9768
SWIDTH 480 0
DWIDTH 8 0
BBX 8 16 0 -2
BITMAP
00
ea
00
00
00
00
00
00
00
00
00
00
00
00
00
00
ENDCHAR
STARTCHAR C1eb
ENCODING 9769
SWIDTH 480 0
DWIDTH 8 0
BBX 8 16 0 -2
BITMAP
00
eb
00
00
00
00
00
00
00
00
00
00
00
00
00
00
ENDCHAR
STARTCHAR C1ec
ENCODING 9770
SWIDTH 480 0
DWIDTH 8 0
BBX 8 16 0 -2
BITMAP
00
ec
00
00
00
00
00
00
00
00
00
00
00
00
00
00
ENDCHAR
STARTCHAR C1ed
ENCODING 9771
SWIDTH 480 0
DWIDTH 8 0
BBX 8 16 0 -2
BITMAP
00
ed
00
00
00
00
00
00
00
00
00
00
00
00
00
00
ENDCHAR
STARTCHAR C1ee
ENCODING 9772
SWIDTH 480 0
DWIDTH 8 0
BBX 8 16 0 -2
BITMAP
00
ee
00
00
00
00
00
00
00
00
00
00
00
00
00
00
ENDCHAR
STARTCHAR C1ef
ENCODING 9773
SWIDTH 480 0
DWIDTH 8 0
BBX 8 16 0 -2
BITMAP
00
ef
00
00
00
00
00
00
00
00
00
00
00
00
00
00
ENDCHAR
STARTCHAR C1f0
ENCODING 9774
SWIDTH 480 0
DWIDTH 8 0
BBX 8 16 0 -2
BITMAP
00
f0
00
00
00
00
00
00
00
00
00
00
00
00
00
00
ENDCHAR
STARTCHAR C1f1
ENCODING 9775
SWIDTH 480 0
DWIDTH 8 0
BBX 8 16 0 -2
BITMAP
00
f1
00
00
00
00
00
00
00
00
00
00
00
00
00
00
ENDCHAR
STARTCHAR C1f2
ENCODING 9776
SWIDTH 480 0
DWIDTH 8 0
BBX 8 16 0 -2
BITMAP
00
f2
00
00
00
00
00
00
00
00
00
00
00
00
00
00
ENDCHAR
STARTCHAR C1f3
ENCODING 9777
SWIDTH 480 0
DWIDTH 8 0
BBX 8 16 0 -2
BITMAP
00
f3
00
00
00
00
00
00
00
00
00
00
00
00
00
00
ENDCHAR
STARTCHAR C1f4
ENCODING 9778
SWIDTH 480 0
DWIDTH 8 0
BBX 8 16 0 -2
BITMAP
00
f4
00
00
00
00
00
00
00
00
00
00
00
00
00
00
ENDCHAR
STARTCHAR C1f5
ENCODING 9779
SWIDTH 480 0
DWIDTH 8 0
BBX 8 16 0 -2
BITMAP
00
f5
00
00
00
00
00
00
00
00
00
00
00
00
00
00
ENDCHAR
STARTCHAR C1f6
ENCODING 9780
SWIDTH 480 0
DWIDTH 8 0
BBX 8 16 0 -2
BITMAP
00
f6
00
00
00
00
00
00
00
00
00
00
00
00
00
00
ENDCHAR
STARTCHAR C1f7
ENCODING 9781
SWIDTH 480 0
DWIDTH 8 0
BBX 8 16 0 -2
BITMAP
00
f7
00
00
00
00
00
00
00
00
00
00
00
00
00
00
ENDCHAR
STARTCHAR C1f8
ENCODING 9782
SWIDTH 480 0
DWIDTH 8 0
BBX 8 16 0 -2
BITMAP
00
f8
00
00
00
00
00
00
00
00
00
00
00
00
00
00
ENDCHAR
STARTCHAR C1f9
ENCODING 9783
SWIDTH 480 0
DWIDTH 8 0
BBX 8 16 0 -2
BITMAP
00
f9
00
00
00
00
00
00
00
00
00
00
00
00
00
00
ENDCHAR
STARTCHAR C1fa
ENCODING 9784
SWIDTH 480 0
DWIDTH 8 0
BBX 8 16 0 -2
BITMAP
00
fa
00
00
00
00
00
00
00
00
00
00
00
00
00
00
ENDCHAR
STARTCHAR C1fb
ENCODING 9785
SWIDTH 480 0
DWIDTH 8 0
BBX 8 16 0 -2
BITMAP
00
fb
00
00
00
00
00
00
00
00
00
00
00
00
00
00
ENDCHAR
STARTCHAR C1fc
ENCODING 9786
SWIDTH 480 0
DWIDTH 8 0
BBX 8 16 0 -2
BITMAP
00
fc
00
00
00
00
00
00
00
00
00
00
00
00
00
00
ENDCHAR
STARTCHAR C1fd
ENCODING 9787
SWIDTH 480 0
DWIDTH 8 0
BBX 8 16 0 -2
BITMAP
00
fd
00
00
00
00
00
00
00
00
00
00
00
00
00
00
ENDCHAR
STARTCHAR C1fe
ENCODING 9788
SWIDTH 480 0
DWIDTH 8 0
BBX 8 16 0 -2
BITMAP
00
fe
00
00
00
00
00
00
00
00
00
00
00
00
00
00
ENDCHAR
STARTCHAR C1ff
ENCODING 9789
SWIDTH 480 0
DWIDTH 8 0
BBX 8 16 0 -2
BITMAP
00
ff
00
00
00
00
00
00
00
00
00
00
00
00
00
00
ENDCHAR
STARTCHAR C201
ENCODING 9790
SWIDTH 480 0
DWIDTH 8 0
BBX 8 16 0 -2
BITMAP
00
00
01
00
00
00
00
00
00
00
00
00
00
00
00
00
ENDCHAR
STARTCHAR C202
ENCODING 9791
SWIDTH 480 0
DWIDTH 8 0
BBX 8 16 0 -2
BITMAP
00
00
02
00
00
00
00
00
00
00
00
00
00
00
00
00
ENDCHAR
STARTCHAR C203
ENCODING 9792
SWIDTH 480 0
DWIDTH 8 0
BBX 8 16 0 -2
BITMAP
00
00
03
00
00
00
00
00
00
00
00
00
00
00
00
00
ENDCHAR
STARTCHAR C204
ENCODING 9793
SWIDTH 480 0
DWIDTH 8 0
BBX 8 16 0 -2
BITMAP
00
00
04
00
00
00
00
00
00
00
00
00
00
00
00
00
ENDCHAR
STARTCHAR C205
ENCODING 9794
SWIDTH 480 0
DWIDTH 8 0
BBX 8 16 0 -2
BITMAP
00
00
05
00
00
00
00
00
00
00
00
00
00
00
00
00
ENDCHAR
STARTCHAR C206
ENCODING 9795
SWIDTH 480 0
DWIDTH 8 0
BBX 8 16 0 -2
BITMAP
00
00
06
00
00
00
00
00
00
00
00
00
00
00
00
00
ENDCHAR
STARTCHAR C207
ENCODING 9796
SWIDTH 480 0
DWIDTH 8 0
BBX 8 16 0 -2
BITMAP
00
00
07
00
00
00
00
00
00
00
00
00
00
00
00
00
ENDCHAR
STARTCHAR C208
ENCODING 9797
SWIDTH 480 0
DWIDTH 8 0
BBX 8 16 0 -2
BITMAP
00
00
08
00
00
00
00
00
00
00
00
00
00
00
00
00
ENDCHAR
STARTCHAR C209
ENCODING 9798
SWIDTH 480 0
DWIDTH 8 0
BBX 8 16 0 -2
BITMAP
00
00
09
00
00
00
00
00
00
00
00
00
00
00
00
00
ENDCHAR
STARTCHAR C20a
ENCODING 9799
SWIDTH 480 0
DWIDTH 8 0
BBX 8 16 0 -2
BITMAP
00
00
0a
00
00
00
00
00
00
00
00
00
00
00
00
00
ENDCHAR
STARTCHAR C20b
ENCODING 9800
SWIDTH 480 0
DWIDTH 8 0
BBX 8 16 0 -2
BITMAP
00
00
0b
00
00
00
00
00
00
00
00
00
00
00
00
00
ENDCHAR
STARTCHAR C20c
ENCODING 9801
SWIDTH 480 0
DWIDTH 8 0
BBX 8 16 0 -2
BITMAP
00
00
0c
00
00
00
00
00
00
00
00
00
00
00
00
00
ENDCHAR
STARTCHAR C20d
ENCODING 9802
SWIDTH 480 0
DWIDTH 8 0
BBX 8 16 0 -2
BITMAP
00
00
0d
00
00
00
00
00
00
00
00
00
00
00
00
00
ENDCHAR
STARTCHAR C20e
ENCODING 9803
SWIDTH 480 0
DWIDTH 8 0
BBX 8 16 0 -2
BITMAP
00
00
0e
00
00
00
00
00
00
00
00
00
00
00
00
00
ENDCHAR
STARTCHAR C20f
ENCODING 9804
SWIDTH 480 0
DWIDTH 8 0
BBX 8 16 0 -2
BITMAP
00
00
0f
00
00
00
00
00
00
00
00
00
00
00
00
00
ENDCHAR
STARTCHAR C210
ENCODING 9805
SWIDTH 480 0
DWIDTH 8 0
BBX 8 16 0 -2
BITMAP
00
00
10
00
00
00
00
00
00
00
00
00
00
00
00
00
ENDCHAR
STARTCHAR C211
ENCODING 9806
SWIDTH 480 0
DWIDTH 8 0
BBX 8 16 0 -2
BITMAP
00
00
11
00
00
00
00
00
00
00
00
00
00
00
00
00
ENDCHAR
STARTCHAR C212
ENCODING 9807
SWIDTH 480 0
DWIDTH 8 0
BBX 8 16 0 -2
BITMAP
00
00
12
00
00
00
00
00
00
00
00
00
00
00
00
00
ENDCHAR
STARTCHAR C213
ENCODING 9808
SWIDTH 480 0
DWIDTH 8 0
BBX 8 16 0 -2
BITMAP
00
00
13
00
00
00
00
00
00
00
00
00
00
00
00
00
ENDCHAR
STARTCHAR C214
ENCODING 9809
SWIDTH 480 0
DWIDTH 8 0
BBX 8 16 0 -2
BITMAP
00
00
14
00
00
00
00
00
00
00
00
00
00
00
00
00
ENDCHAR
STARTCHAR C215
ENCODING 9810
SWIDTH 480 0
DWIDTH 8 0
BBX 8 16 0 -2
BITMAP
00
00
15
00
00
00
00
00
00
00
00
00
00
00
00
00
ENDCHAR
STARTCHAR C216
ENCODING 9811
SWIDTH 480 0
DWIDTH 8 0
BBX 8 16 0 -2
BITMAP
00
00
16
00
00
00
00
00
00
00
00
00
00
00
00
00
ENDCHAR
STARTCHAR C217
ENCODING 9812
SWIDTH 480 0
DWIDTH 8 0
BBX 8 16 0 -2
BITMAP
00
00
17
00
00
00
00
00
00
00
00
00
00
00
00
00
ENDCHAR
STARTCHAR C218
ENCODING 9813
SWIDTH 480 0
DWIDTH 8 0
BBX 8 16 0 -2
BITMAP
00
00
18
00
00
00
00
00
00
00
00
00
00
00
00
00
ENDCHAR
STARTCHAR C219
ENCODING 9814
SWIDTH 480 0
DWIDTH 8 0
BBX 8 16 0 -2
BITMAP
00
00
19
00
00
00
00
00
00
00
00
00
00
00
00
00
ENDCHAR
STARTCHAR C21a
ENCODING 9815
SWIDTH 480 0
DWIDTH 8 0
BBX 8 16 0 -2
BITMAP
00
00
1a
00
00
00
00
00
00
00
00
00
00
00
00
00
ENDCHAR
STARTCHAR C21b
ENCODING 9816
SWIDTH 480 0
DWIDTH 8 0
BBX 8 16 0 -2
BITMAP
00
00
1b
00
00
00
00
00
00
00
00
00
00
00
00
00
ENDCHAR
STARTCHAR C21c
ENCODING 9817
SWIDTH 480 0
DWIDTH 8 0
BBX 8 16 0 -2
BITMAP
00
00
1c
00
00
00
00
00
00
00
00
00
00
00
00
00
ENDCHAR
STARTCHAR C21d
ENCODING 9818
SWIDTH 480 0
DWIDTH 8 0
BBX 8 16 0 -2
BITMAP
00
00
1d
00
00
00
00
00
00
00
00
00
00
00
00
00
ENDCHAR
STARTCHAR C21e
ENCODING 9819
SWIDTH 480 0
DWIDTH 8 0
BBX 8 16 0 -2
BITMAP
00
00
1e
00
00
00
00
00
00
00
00
00
00
00
00
00
ENDCHAR
STARTCHAR C21f
ENCODING 9820
SWIDTH 480 0
DWIDTH 8 0
BBX 8 16 0 -2
BITMAP
00
00
1f
00
00
00
00
00
00
00
00
00
00
00
00
00
ENDCHAR
STARTCHAR C220
ENCODING 9821
SWIDTH 480 0
DWIDTH 8 0
BBX 8 16 0 -2
BITMAP
00
00
20
00
00
00
00
00
00
00
00
00
00
00
00
00
ENDCHAR
STARTCHAR C221
ENCODING 9822
SWIDTH 480 0
DWIDTH 8 0
BBX 8 16 0 -2
BITMAP
00
00
21
00
00
00
00
00
00
00
00
00
00
00
00
00
ENDCHAR
STARTCHAR C222
ENCODING 9823
SWIDTH 480 0
DWIDTH 8 0
BBX 8 16 0 -2
BITMAP
00
00
22
00
00
00
00
00
00
00
00
00
00
00
00
00
ENDCHAR
STARTCHAR C223
ENCODING 9824
SWIDTH 480 0
DWIDTH 8 0
BBX 8 16 0 -2
BITMAP
00
00
23
00
00
00
00
00
00
00
00
00
00
00
00
00
ENDCHAR
STARTCHAR C224
ENCODING 9825
SWIDTH 480 0
DWIDTH 8 0
BBX 8 16 0 -2
BITMAP
00
00
24
00
00
00
00
00
00
00
00
00
00
00
00
00
ENDCHAR
STARTCHAR C225
ENCODING 9826
SWIDTH 480 0
DWIDTH 8 0
BBX 8 16 0 -2
BITMAP
00
00
25
00
00
00
00
00
00
00
00
00
00
00
00
00
ENDCHAR
STARTCHAR C226
ENCODING 9827
SWIDTH 480 0
DWIDTH 8 0
BBX 8 16 0 -2
BITMAP
00
00
26
00
00
00
00
00
00
00
00
00
00
00
00
00
ENDCHAR
STARTCHAR C227
ENCODING 9828
SWIDTH 480 0
DWIDTH 8 0
BBX 8 16 0 -2
BITMAP
00
00
27
00
00
00
00
00
00
00
00
00
00
00
00
00
ENDCHAR
STARTCHAR C228
ENCODING 9829
SWIDTH 480 0
DWIDTH 8 0
BBX 8 16 0 -2
BITMAP
00
00
28
00
00
00
00
00
00
00
00
00
00
00
00
00
ENDCHAR
STARTCHAR C229
ENCODING 9830
SWIDTH 480 0
DWIDTH 8 0
BBX 8 16 0 -2
BITMAP
00
00
29
00
00
00
00
00
00
00
00
00
00
00
00
00
ENDCHAR
STARTCHAR C22a
ENCODING 9831
SWIDTH 480 0
DWIDTH 8 0
BBX 8 16 0 -2
BITMAP
00
00
2a
00
00
00
00
00
00
00
00
00
00
00
00
00
ENDCHAR
STARTCHAR C22b
ENCODING 9832
SWIDTH 480 0
DWIDTH 8 0
BBX 8 16 0 -2
BITMAP
00
00
2b
00
00
00
00
00
00
00
00
00
00
00
00
00
ENDCHAR
STARTCHAR C22c
ENCODING 9833
SWIDTH 480 0
DWIDTH 8 0
BBX 8 16 0 -2
BITMAP
00
00
2c
00
00
00
00
00
00
00
00
00
00
00
00
00
ENDCHAR
STARTCHAR C22d
ENCODING 9834
SWIDTH 480 0
DWIDTH 8 0
BBX 8 16 0 -2
BITMAP
00
00
2d
00
00
00
00
00
00
00
00
00
00
00
00
00
ENDCHAR
STARTCHAR C22e
ENCODING 9835
SWIDTH 480 0
DWIDTH 8 0
BBX 8 16 0 -2
BITMAP
00
00
2e
00
00
00
00
00
00
00
00
00
00
00
00
00
ENDCHAR
STARTCHAR C22f
ENCODING 9836
SWIDTH 480 0
DWIDTH 8 0
BBX 8 16 0 -2
BITMAP
00
00
2f
00
00
00
00
00
00
00
00
00
00
00
00
00
ENDCHAR
STARTCHAR C230
ENCODING 9837
SWIDTH 480 0
DWIDTH 8 0
BBX 8 16 0 -2
BITMAP
00
00
30
00
00
00
00
00
00
00
00
00
00
00
00
00
ENDCHAR
STARTCHAR C231
ENCODING 9838
SWIDTH 480 0
DWIDTH 8 0
BBX 8 16 0 -2
BITMAP
00
00
31
00
00
00
00
00
00
00
00
00
00
00
00
00
ENDCHAR
STARTCHAR C232
ENCODING 9839
SWIDTH 480 0
DWIDTH 8 0
BBX 8 16 0 -2
BITMAP
00
00
32
00
00
00
00
00
00
00
00
00
00
00
00
00
ENDCHAR
STARTCHAR C233
ENCODING 9840
SWIDTH 480 0
DWIDTH 8 0
BBX 8 16 0 -2
BITMAP
00
00
33
00
00
00
00
00
00
00
00
00
00
00
00
00
ENDCHAR
STARTCHAR C234
ENCODING 9841
SWIDTH 480 0
DWIDTH 8 0
BBX 8 16 0 -2
BITMAP
00
00
34
00
00
00
00
00
00
00
00
00
00
00
00
00
ENDCHAR
STARTCHAR C235
ENCODING 9842
SWIDTH 480 0
DWIDTH 8 0
BBX 8 16 0 -2
BITMAP
00
00
35
00
00
00
00
00
00
00
00
00
00
00
00
00
ENDCHAR
STARTCHAR C236
ENCODING 9843
SWIDTH 480 0
DWIDTH 8 0
BBX 8 16 0 -2
BITMAP
00
00
36
00
00
00
00
00
00
00
00
00
00
00
00
00
ENDCHAR
STARTCHAR C237
ENCODING 9844
SWIDTH 480 0
DWIDTH 8 0
BBX 8 16 0 -2
BITMAP
00
00
37
00
00
00
00
00
00
00
00
00
00
00
00
00
ENDCHAR
STARTCHAR C238
ENCODING 9845
SWIDTH 480 0
DWIDTH 8 0
BBX 8 16 0 -2
BITMAP
00
00
38
00
00
00
00
00
00
00
00
00
00
00
00
00
ENDCHAR
STARTCHAR C239
ENCODING 9846
SWIDTH 480 0
DWIDTH 8 0
BBX 8 16 0 -2
BITMAP
00
00
39
00
00
00
00
00
00
00
00
00
00
00
00
00
ENDCHAR
STARTCHAR C23a
ENCODING 9847
SWIDTH 480 0
DWIDTH 8 0
BBX 8 16 0 -2
BITMAP
00
00
3a
00
00
00
00
00
00
00
00
00
00
00
00
00
ENDCHAR
STARTCHAR C23b
ENCODING 9848
SWIDTH 480 0
DWIDTH 8 0
BBX 8 16 0 -2
BITMAP
00
00
3b
00
00
00
00
00
00
00
00
00
00
00
00
00
ENDCHAR
STARTCHAR C23c
ENCODING 9849
SWIDTH 480 0
DWIDTH 8 0
BBX 8 16 0 -2
BITMAP
00
00
3c
00
00
00
00
00
00
00
00
00
00
00
00
00
ENDCHAR
STARTCHAR C23d
ENCODING 9850
SWIDTH 480 0
DWIDTH 8 0
BBX 8 16 0 -2
BITMAP
00
00
3d
00
00
00
00
00
00
00
00
00
00
00
00
00
ENDCHAR
STARTCHAR C23e
ENCODING 9851
SWIDTH 480 0
DWIDTH 8 0
BBX 8 16 0 -2
BITMAP
00
00
3e
00
00
00
00
00
00
00
00
00
00
00
00
00
ENDCHAR
STARTCHAR C23f
ENCODING 9852
SWIDTH 480 0
DWIDTH 8 0
BBX 8 16 0 -2
BITMAP
00
00
3f
00
00
00
00
00
00
00
00
00
00
00
00
00
ENDCHAR
STARTCHAR C240
ENCODING 9853
SWIDTH 480 0
DWIDTH 8 0
BBX 8 16 0 -2
BITMAP
00
00
40
00
00
00
00
00
00
00
00
00
00
00
00
00
ENDCHAR
STARTCHAR C241
ENCODING 9854
SWIDTH 480 0
DWIDTH 8 0
BBX 8 16 0 -2
BITMAP
00
00
41
00
00
00
00
00
00
00
00
00
00
00
00
00
ENDCHAR
STARTCHAR C242
ENCODING 9855
SWIDTH 480 0
DWIDTH 8 0
BBX 8 16 0 -2
BITMAP
00
00
42
00
00
00
00
00
00
00
00
00
00
00
00
00
ENDCHAR
STARTCHAR C243
ENCODING 10016
SWIDTH 480 0
DWIDTH 8 0
BBX 8 16 0 -2
BITMAP
00
00
43
00
00
00
00
00
00
00
00
00
00
00
00
00
ENDCHAR
STARTCHAR C244
ENCODING 10017
SWIDTH 480 0
DWIDTH 8 0
BBX 8 16 0 -2
BITMAP
00
00
44
00
00
00
00
00
00
00
00
00
00
00
00
00
ENDCHAR
STARTCHAR C245
ENCODING 10018
SWIDTH 480 0
DWIDTH 8 0
BBX 8 16 0 -2
BITMAP
00
00
45
00
00
00
00
00
00
00
00
00
00
00
00
00
ENDCHAR
STARTCHAR C246
ENCODING 10019
SWIDTH 480 0
DWIDTH 8 0
BBX 8 16 0 -2
BITMAP
00
00
46
00
00
00
00
00
00
00
00
00
00
00
00
00
ENDCHAR
STARTCHAR C247
ENCODING 10020
SWIDTH 480 0
DWIDTH 8 0
BBX 8 16 0 -2
BITMAP
00
00
47
00
00
00
00
00
00
00
00
00
00
00
00
00
ENDCHAR
STARTCHAR C248
ENCODING 10021
SWIDTH 480 0
DWIDTH 8 0
BBX 8 16 0 -2
BITMAP
00
00
48
00
00
00
00
00
00
00
00
00
00
00
00
00
ENDCHAR
STARTCHAR C249
ENCODING 10022
SWIDTH 480 0
DWIDTH 8 0
BBX 8 16 0 -2
BITMAP
00
00
49
00
00
00
00
00
00
00
00
00
00
00
00
00
ENDCHAR
STARTCHAR C24a
ENCODING 10023
SWIDTH 480 0
DWIDTH 8 0
BBX 8 16 0 -2
BITMAP
00
00
4a
00
00
00
00
00
00
00
00
00
00
00
00
00
ENDCHAR
STARTCHAR C24b
ENCODING 10024
SWIDTH 480 0
DWIDTH 8 0
BBX 8 16 0 -2
BITMAP
00
00
4b
00
00
00
00
00
00
00
00
00
00
00
00
00
ENDCHAR
STARTCHAR C24c
ENCODING 10025
SWIDTH 480 0
DWIDTH 8 0
BBX 8 16 0 -2
BITMAP
00
00
4c
00
00
00
00
00
00
00
00
00
00
00
00
00
ENDCHAR
STARTCHAR C24d
ENCODING 10026
SWIDTH 480 0
DWIDTH 8 0
BBX 8 16 0 -2
BITMAP
00
00
4d
00
00
00
00
00
00
00
00
00
00
00
00
00
ENDCHAR
STARTCHAR C24e
ENCODING 10027
SWIDTH 480 0
DWIDTH 8 0
BBX 8 16 0 -2
BITMAP
00
00
4e
00
00
00
00
00
00
00
00
00
00
00
00
00
ENDCHAR
STARTCHAR C24f
ENCODING 10028
SWIDTH 480 0
DWIDTH 8 0
BBX 8 16 0 -2
BITMAP
00
00
4f
00
00
00
00
00
00
00
00
00
00
00
00
00
ENDCHAR
STARTCHAR C250
ENCODING 10029
SWIDTH 480 0
DWIDTH 8 0
BBX 8 16 0 -2
BITMAP
00
00
50
00
00
00
00
00
00
00
00
00
00
00
00
00
ENDCHAR
STARTCHAR C251
ENCODING 10030
SWIDTH 480 0
DWIDTH 8 0
BBX 8 16 0 -2
BITMAP
00
00
51
00
00
00
00
00
00
00
00
00
00
00
00
00
ENDCHAR
STARTCHAR C252
ENCODING 10031
SWIDTH 480 0
DWIDTH 8 0
BBX 8 16 0 -2
BITMAP
00
00
52
00
00
00
00
00
00
00
00
00
00
00
00
00
ENDCHAR
STARTCHAR C253
ENCODING 10032
SWIDTH 480 0
DWIDTH 8 0
BBX 8 16 0 -2
BITMAP
00
00
53
00
00
00
00
00
00
00
00
00
00
00
00
00
ENDCHAR
STARTCHAR C254
ENCODING 10033
SWIDTH 480 0
DWIDTH 8 0
BBX 8 16 0 -2
BITMAP
00
00
54
00
00
00
00
00
00
00
00
00
00
00
00
00
ENDCHAR
STARTCHAR C255
ENCODING 10034
SWIDTH 480 0
DWIDTH 8 0
BBX 8 16 0 -2
BITMAP
00
00
55
00
00
00
00
00
00
00
00
00
00
00
00
00
ENDCHAR
STARTCHAR C256
ENCODING 10035
SWIDTH 480 0
DWIDTH 8 0
BBX 8 16 0 -2
BITMAP
00
00
56
00
00
00
00
00
00
00
00
00
00
00
00
00
ENDCHAR
STARTCHAR C257
ENCODING 10036
SWIDTH 480 0
DWIDTH 8 0
BBX 8 16 0 -2
BITMAP
00
00
57
00
00
00
00
00
00
00
00
00
00
00
00
00
ENDCHAR
STARTCHAR C258
ENCODING 10037
SWIDTH 480 0
DWIDTH 8 0
BBX 8 16 0 -2
BITMAP
00
00
58
00
00
00
00
00
00
00
00
00
00
00
00
00
ENDCHAR
STARTCHAR C259
ENCODING 10038
SWIDTH 480 0
DWIDTH 8 0
BBX 8 16 0 -2
BITMAP
00
00
59
00
00
00
00
00
00
00
00
00
00
00
00
00
ENDCHAR
STARTCHAR C25a
ENCODING 10039
SWIDTH 480 0
DWIDTH 8 0
BBX 8 16 0 -2
BITMAP
00
00
5a
00
00
00
00
00
00
00
00
00
00
00
00
00
ENDCHAR
STARTCHAR C25b
ENCODING 10040
SWIDTH 480 0
DWIDTH 8 0
BBX 8 16 0 -2
BITMAP
00
00
5b
00
00
00
00
00
00
00
00
00
00
00
00
00
ENDCHAR
STARTCHAR C25c
ENCODING 10041
SWIDTH 480 0
DWIDTH 8 0
BBX 8 16 0 -2
BITMAP
00
00
5c
00
00
00
00
00
00
00
00
00
00
00
00
00
ENDCHAR
STARTCHAR C25d
ENCODING 10042
SWIDTH 480 0
DWIDTH 8 0
BBX 8 16 0 -2
BITMAP
00
00
5d
00
00
00
00
00
00
00
00
00
00
00
00
00
ENDCHAR
STARTCHAR C25e
ENCODING 10043
SWIDTH 480 0
DWIDTH 8 0
BBX 8 16 0 -2
BITMAP
00
00
5e
00
00
00
00
00
00
00
00
00
00
00
00
00
ENDCHAR
STARTCHAR C25f
ENCODING 10044
SWIDTH 480 0
DWIDTH 8 0
BBX 8 16 0 -2
BITMAP
00
00
5f
00
00
00
00
00
00
00
00
00
00
00
00
00
ENDCHAR
STARTCHAR C260
ENCODING 10045
SWIDTH 480 0
DWIDTH 8 0
BBX 8 16 0 -2
BITMAP
00
00
60
00
00
00
00
00
00
00
00
00
00
00
00
00
ENDCHAR
STARTCHAR C261
ENCODING 10046
SWIDTH 480 0
DWIDTH 8 0
BBX 8 16 0 -2
BITMAP
00
00
61
00
00
00
00
00
00
00
00
00
00
00
00
00
ENDCHAR
STARTCHAR C262
ENCODING 10047
SWIDTH 480 0
DWIDTH 8 0
BBX 8 16 0 -2
BITMAP
00
00
62
00
00
00
00
00
00
00
00
00
00
00
00
00
ENDCHAR
STARTCHAR C263
ENCODING 10048
SWIDTH 480 0
DWIDTH 8 0
BBX 8 16 0 -2
BITMAP
00
00
63
00
00
00
00
00
00
00
00
00
00
00
00
00
ENDCHAR
STARTCHAR C264
ENCODING 10049
SWIDTH 480 0
DWIDTH 8 0
BBX 8 16 0 -2
BITMAP
00
00
64
00
00
00
00
00
00
00
00
00
00
00
00
00
ENDCHAR
STARTCHAR C265
ENCODING 10050
SWIDTH 480 0
DWIDTH 8 0
BBX 8 16 0 -2
BITMAP
00
00
65
00
00
00
00
00
00
00
00
00
00
00
00
00
ENDCHAR
STARTCHAR C266
ENCODING 10051
SWIDTH 480 0
DWIDTH 8 0
BBX 8 16 0 -2
BITMAP
00
00
66
00
00
00
00
00
00
00
00
00
00
00
00
00
ENDCHAR
STARTCHAR C267
ENCODING 10052
SWIDTH 480 0
DWIDTH 8 0
BBX 8 16 0 -2
BITMAP
00
00
67
00
00
00
00
00
00
00
00
00
00
00
00
00
ENDCHAR
STARTCHAR C268
ENCODING 10053
SWIDTH 480 0
DWIDTH 8 0
BBX 8 16 0 -2
BITMAP
00
00
68
00
00
00
00
00
00
00
00
00
00
00
00
00
ENDCHAR
STARTCHAR C269
ENCODING 10054
SWIDTH 480 0
DWIDTH 8 0
BBX 8 16 0 -2
BITMAP
00
00
69
00
00
00
00
00
00
00
00
00
00
00
00
00
ENDCHAR
STARTCHAR C26a
ENCODING 10055
SWIDTH 480 0
DWIDTH 8 0
BBX 8 16 0 -2
BITMAP
00
00
6a
00
00
00
00
00
00
00
00
00
00
00
00
00
ENDCHAR
STARTCHAR C26b
ENCODING 10056
SWIDTH 480 0
DWIDTH 8 0
BBX 8 16 0 -2
BITMAP
00
00
6b
00
00
00
00
00
00
00
00
00
00
00
00
00
ENDCHAR
STARTCHAR C26c
ENCODING 10057
SWIDTH 480 0
DWIDTH 8 0
BBX 8 16 0 -2
BITMAP
00
00
6c
00
00
00
00
00
00
00
00
00
00
00
00
00
ENDCHAR
STARTCHAR C26d
ENCODING 10058
SWIDTH 480 0
DWIDTH 8 0
BBX 8 16 0 -2
BITMAP
00
00
6d
00
00
00
00
00
00
00
00
00
00
00
00
00
ENDCHAR
STARTCHAR C26e
ENCODING 10059
SWIDTH 480 0
DWIDTH 8 0
BBX 8 16 0 -2
BITMAP
00
00
6e
00
00
00
00
00
00
00
00
00
00
00
00
00
ENDCHAR
STARTCHAR C26f
ENCODING 10060
SWIDTH 480 0
DWIDTH 8 0
BBX 8 16 0 -2
BITMAP
00
00
6f
00
00
00
00
00
00
00
00
00
00
00
00
00
ENDCHAR
STARTCHAR C270
ENCODING 10061
SWIDTH 480 0
DWIDTH 8 0
BBX 8 16 0 -2
BITMAP
00
00
70
00
00
00
00
00
00
00
00
00
00
00
00
00
ENDCHAR
STARTCHAR C271
ENCODING 10062
SWIDTH 480 0
DWIDTH 8 0
BBX 8 16 0 -2
BITMAP
00
00
71
00
00
00
00
00
00
00
00
00
00
00
00
00
ENDCHAR
STARTCHAR C272
ENCODING 10063
SWIDTH 480 0
DWIDTH 8 0
BBX 8 16 0 -2
BITMAP
00
00
72
00
00
00
00
00
00
00
00
00
00
00
00
00
ENDCHAR
STARTCHAR C273
ENCODING 10064
SWIDTH 480 0
DWIDTH 8 0
BBX 8 16 0 -2
BITMAP
00
00
73
00
00
00
00
00
00
00
00
00
00
00
00
00
ENDCHAR
STARTCHAR C274
ENCODING 10065
SWIDTH 480 0
DWIDTH 8 0
BBX 8 16 0 -2
BITMAP
00
00
74
00
00
00
00
00
00
00
00
00
00
00
00
00
ENDCHAR
STARTCHAR C275
ENCODING 10066
SWIDTH 480 0
DWIDTH 8 0
BBX 8 16 0 -2
BITMAP
00
00
75
00
00
00
00
00
00
00
00
00
00
00
00
00
ENDCHAR
STARTCHAR C276
ENCODING 10067
SWIDTH 480 0
DWIDTH 8 0
BBX 8 16 0 -2
BITMAP
00
00
76
00
00
00
00
00
00
00
00
00
00
00
00
00
ENDCHAR
STARTCHAR C277
ENCODING 10068
SWIDTH 480 0
DWIDTH 8 0
BBX 8 16 0 -2
BITMAP
00
00
77
00
00
00
00
00
00
00
00
00
00
00
00
00
ENDCHAR
STARTCHAR C278
ENCODING 10069
SWIDTH 480 0
DWIDTH 8 0
BBX 8 16 0 -2
BITMAP
00
00
78
00
00
00
00
00
00
00
00
00
00
00
00
00
ENDCHAR
STARTCHAR C279
ENCODING 10070
SWIDTH 480 0
DWIDTH 8 0
BBX 8 16 0 -2
BITMAP
00
00
79
00
00
00
00
00
00
00
00
00
00
00
00
00
ENDCHAR
STARTCHAR C27a
ENCODING 10071
SWIDTH 480 0
DWIDTH 8 0
BBX 8 16 0 -2
BITMAP
00
00
7a
00
00
00
00
00
00
00
00
00
00
00
00
00
ENDCHAR
STARTCHAR C27b
ENCODING 10072
SWIDTH 480 0
DWIDTH 8 0
BBX 8 16 0 -2
BITMAP
00
00
7b
00
00
00
00
00
00
00
00
00
00
00
00
00
ENDCHAR
STARTCHAR C27c
ENCODING 10073
SWIDTH 480 0
DWIDTH 8 0
BBX 8 16 0 -2
BITMAP
00
00
7c
00
00
00
00
00
00
00
00
00
00
00
00
00
ENDCHAR
STARTCHAR C27d
ENCODING 10074
SWIDTH 480 0
DWIDTH 8 0
BBX 8 16 0 -2
BITMAP
00
00
7d
00
00
00
00
00
00
00
00
00
00
00
00
00
ENDCHAR
STARTCHAR C27e
ENCODING 10075
SWIDTH 480 0
DWIDTH 8 0
BBX 8 16 0 -2
BITMAP
00
00
7e
00
00
00
00
00
00
00
00
00
00
00
00
00
ENDCHAR
STARTCHAR C27f
ENCODING 10076
SWIDTH 480 0
DWIDTH 8 0
BBX 8 16 0 -2
BITMAP
00
00
7f
00
00
00
00
00
00
00
00
00
00
00
00
00
ENDCHAR
STARTCHAR C280
ENCODING 10077
SWIDTH 480 0
DWIDTH 8 0
BBX 8 16 0 -2
BITMAP
00
00
80
00
00
00
00
00
00
00
00
00
00
00
00
00
ENDCHAR
STARTCHAR C281
ENCODING 10078
SWIDTH 480 0
DWIDTH 8 0
BBX 8 16 0 -2
BITMAP
00
00
81
00
00
00
00
00
00
00
00
00
00
00
00
00
ENDCHAR
STARTCHAR C282
ENCODING 10079
SWIDTH 480 0
DWIDTH 8 0
BBX 8 16 0 -2
BITMAP
00
00
82
00
00
00
00
00
00
00
00
00
00
00
00
00
ENDCHAR
STARTCHAR C283
ENCODING 10080
SWIDTH 480 0
DWIDTH 8 0
BBX 8 16 0 -2
BITMAP
00
00
83
00
00
00
00
00
00
00
00
00
00
00
00
00
ENDCHAR
STARTCHAR C284
ENCODING 10081
SWIDTH 480 0
DWIDTH 8 0
BBX 8 16 0 -2
BITMAP
00
00
84
00
00
00
00
00
00
00
00
00
00
00
00
00
ENDCHAR
STARTCHAR C285
ENCODING 10082
SWIDTH 480 0
DWIDTH 8 0
BBX 8 16 0 -2
BITMAP
00
00
85
00
00
00
00
00
00
00
00
00
00
00
00
00
ENDCHAR
STARTCHAR C286
ENCODING 10083
SWIDTH 480 0
DWIDTH 8 0
BBX 8 16 0 -2
BITMAP
00
00
86
00
00
00
00
00
00
00
00
00
00
00
00
00
ENDCHAR
STARTCHAR C287
ENCODING 10084
SWIDTH 480 0
DWIDTH 8 0
BBX 8 16 0 -2
BITMAP
00
00
87
00
00
00
00
00
00
00
00
00
00
00
00
00
ENDCHAR
STARTCHAR C288
ENCODING 10085
SWIDTH 480 0
DWIDTH 8 0
BBX 8 16 0 -2
BITMAP
00
00
88
00
00
00
00
00
00
00
00
00
00
00
00
00
ENDCHAR
STARTCHAR C289
ENCODING 10086
SWIDTH 480 0
DWIDTH 8 0
BBX 8 16 0 -2
BITMAP
00
00
89
00
00
00
00
00
00
00
00
00
00
00
00
00
ENDCHAR
STARTCHAR C28a
ENCODING 10087
SWIDTH 480 0
DWIDTH 8 0
BBX 8 16 0 -2
BITMAP
00
00
8a
00
00
00
00
00
00
00
00
00
00
00
00
00
ENDCHAR
STARTCHAR C28b
ENCODING 10088
SWIDTH 480 0
DWIDTH 8 0
BBX 8 16 0 -2
BITMAP
00
00
8b
00
00
00
00
00
00
00
00
00
00
00
00
00
ENDCHAR
STARTCHAR C28c
ENCODING 10089
SWIDTH 480 0
DWIDTH 8 0
BBX 8 16 0 -2
BITMAP
00
00
8c
00
00
00
00
00
00
00
00
00
00
00
00
00
ENDCHAR
STARTCHAR C28d
ENCODING 10090
SWIDTH 480 0
DWIDTH 8 0
BBX 8 16 0 -2
BITMAP
00
00
8d
00
00
00
00
00
00
00
00
00
00
00
00
00
ENDCHAR
STARTCHAR C28e
ENCODING 10091
SWIDTH 480 0
DWIDTH 8 0
BBX 8 16 0 -2
BITMAP
00
00
8e
00
00
00
00
00
00
00
00
00
00
00
00
00
ENDCHAR
STARTCHAR C28f
ENCODING 10092
SWIDTH 480 0
DWIDTH 8 0
BBX 8 16 0 -2
BITMAP
00
00
8f
00
00
00
00
00
00
00
00
00
00
00
00
00
ENDCHAR
STARTCHAR C290
ENCODING 10093
SWIDTH 480 0
DWIDTH 8 0
BBX 8 16 0 -2
BITMAP
00
00
90
00
00
00
00
00
00
00
00
00
00
00
00
00
ENDCHAR
STARTCHAR C291
ENCODING 10094
SWIDTH 480 0
DWIDTH 8 0
BBX 8 16 0 -2
BITMAP
00
00
91
00
00
00
00
00
00
00
00
00
00
00
00
00
ENDCHAR
STARTCHAR C292
ENCODING 10095
SWIDTH 480 0
DWIDTH 8 0
BBX 8 16 0 -2
BITMAP
00
00
92
00
00
00
00
00
00
00
00
00
00
00
00
00
ENDCHAR
STARTCHAR C293
ENCODING 10096
SWIDTH 480 0
DWIDTH 8 0
BBX 8 16 0 -2
BITMAP
00
00
93
00
00
00
00
00
00
00
00
00
00
00
00
00
ENDCHAR
STARTCHAR C294
ENCODING 10097
SWIDTH 480 0
DWIDTH 8 0
BBX 8 16 0 -2
BITMAP
00
00
94
00
00
00
00
00
00
00
00
00
00
00
00
00
ENDCHAR
STARTCHAR C295
ENCODING 10098
SWIDTH 480 0
DWIDTH 8 0
BBX 8 16 0 -2
BITMAP
00
00
95
00
00
00
00
00
00
00
00
00
00
00
00
00
ENDCHAR
STARTCHAR C296
ENCODING 10099
SWIDTH 480 0
DWIDTH 8 0
BBX 8 16 0 -2
BITMAP
00
00
96
00
00
00
00
00
00
00
00
00
00
00
00
00
ENDCHAR
STARTCHAR C297
ENCODING 10100
SWIDTH 480 0
DWIDTH 8 0
BBX 8 16 0 -2
BITMAP
00
00
97
00
00
00
00
00
00
00
00
00
00
00
00
00
ENDCHAR
STARTCHAR C298
ENCODING 10101
SWIDTH 480 0
DWIDTH 8 0
BBX 8 16 0 -2
BITMAP
00
00
98
00
00
00
00
00
00
00
00
00
00
00
00
00
ENDCHAR
STARTCHAR C299
ENCODING 10102
SWIDTH 480 0
DWIDTH 8 0
BBX 8 16 0 -2
BITMAP
00
00
99
00
00
00
00
00
00
00
00
00
00
00
00
00
ENDCHAR
STARTCHAR C29a
ENCODING 10103
SWIDTH 480 0
DWIDTH 8 0
BBX 8 16 0 -2
BITMAP
00
00
9a
00
00
00
00
00
00
00
00
00
00
00
00
00
ENDCHAR
STARTCHAR C29b
ENCODING 10104
SWIDTH 480 0
DWIDTH 8 0
BBX 8 16 0 -2
BITMAP
00
00
9b
00
00
00
00
00
00
00
00
00
00
00
00
00
ENDCHAR
STARTCHAR C29c
ENCODING 10105
SWIDTH 480 0
DWIDTH 8 0
BBX 8 16 0 -2
BITMAP
00
00
9c
00
00
00
00
00
00
00
00
00
00
00
00
00
ENDCHAR
STARTCHAR C29d
ENCODING 10106
SWIDTH 480 0
DWIDTH 8 0
BBX 8 16 0 -2
BITMAP
00
00
9d
00
00
00
00
00
00
00
00
00
00
00
00
00
ENDCHAR
STARTCHAR C29e
ENCODING 10107
SWIDTH 480 0
DWIDTH 8 0
BBX 8 16 0 -2
BITMAP
00
00
9e
00
00
00
00
00
00
00
00
00
00
00
00
00
ENDCHAR
STARTCHAR C29f
ENCODING 10108
SWIDTH 480 0
DWIDTH 8 0
BBX 8 16 0 -2
BITMAP
00
00
9f
00
00
00
00
00
00
00
00
00
00
00
00
00
ENDCHAR
STARTCHAR C2a0
ENCODING 10109
SWIDTH 480 0
DWIDTH 8 0
BBX 8 16 0 -2
BITMAP
00
00
a0
00
00
00
00
00
00
00
00
00
00
00
00
00
ENDCHAR
STARTCHAR C2a1
ENCODING 10110
SWIDTH 480 0
DWIDTH 8 0
BBX 8 16 0 -2
BITMAP
00
00
a1
00
00
00
00
00
00
00
00
00
00
00
00
00
ENDCHAR
STARTCHAR C2a2
ENCODING 10111
SWIDTH 480 0
DWIDTH 8 0
BBX 8 16 0 -2
BITMAP
00
00
a2
00
00
00
00
00
00
00
00
00
00
00
00
00
ENDCHAR
STARTCHAR C2a3
ENCODING 10272
SWIDTH 480 0
DWIDTH 8 0
BBX 8 16 0 -2
BITMAP
00
00
a3
00
00
00
00
00
00
00
00
00
00
00
00
00
ENDCHAR
STARTCHAR C2a4
ENCODING 10273
SWIDTH 480 0
DWIDTH 8 0
BBX 8 16 0 -2
BITMAP
00
00
a4
00
00
00
00
00
00
00
00
00
00
00
00
00
ENDCHAR
STARTCHAR C2a5
ENCODING 10274
SWIDTH 480 0
DWIDTH 8 0
BBX 8 16 0 -2
BITMAP
00
00
a5
00
00
00
00
00
00
00
00
00
00
00
00
00
ENDCHAR
STARTCHAR C2a6
ENCODING 10275
SWIDTH 480 0
DWIDTH 8 0
BBX 8 16 0 -2
BITMAP
00
00
a6
00
00
00
00
00
00
00
00
00
00
00
00
00
ENDCHAR
STARTCHAR C2a7
ENCODING 10276
SWIDTH 480 0
DWIDTH 8 0
BBX 8 16 0 -2
BITMAP
00
00
a7
00
00
00
00
00
00
00
00
00
00
00
00
00
ENDCHAR
STARTCHAR C2a8
ENCODING 10277
SWIDTH 480 0
DWIDTH 8 0
BBX 8 16 0 -2
BITMAP
00
00
a8
00
00
00
00
00
00
00
00
00
00
00
00
00
ENDCHAR
STARTCHAR C2a9
ENCODING 10278
SWIDTH 480 0
DWIDTH 8 0
BBX 8 16 0 -2
BITMAP
00
00
a9
00
00
00
00
00
00
00
00
00
00
00
00
00
ENDCHAR
STARTCHAR C2aa
ENCODING 10279
SWIDTH 480 0
DWIDTH 8 0
BBX 8 16 0 -2
BITMAP
00
00
aa
00
00
00
00
00
00
00
00
00
00
00
00
00
ENDCHAR
STARTCHAR C2ab
ENCODING 10280
SWIDTH 480 0
DWIDTH 8 0
BBX 8 16 0 -2
BITMAP
00
00
ab
00
00
00
00
00
00
00
00
00
00
00
00
00
ENDCHAR
STARTCHAR C2ac
ENCODING 10281
SWIDTH 480 0
DWIDTH 8 0
BBX 8 16 0 -2
BITMAP
00
00
ac
00
00
00
00
00
00
00
00
00
00
00
00
00
ENDCHAR
STARTCHAR C2ad
ENCODING 10282
SWIDTH 480 0
DWIDTH 8 0
BBX 8 16 0 -2
BITMAP
00
00
ad
00
00
00
00
00
00
00
00
00
00
00
00
00
ENDCHAR
STARTCHAR C2ae
ENCODING 10283
SWIDTH 480 0
DWIDTH 8 0
BBX 8 16 0 -2
BITMAP
00
00
ae
00
00
00
00
00
00
00
00
00
00
00
00
00
ENDCHAR
STARTCHAR C2af
ENCODING 10284
SWIDTH 480 0
DWIDTH 8 0
BBX 8 16 0 -2
BITMAP
00
00
af
00
00
00
00
00
00
00
00
00
00
00
00
00
ENDCHAR
STARTCHAR C2b0
ENCODING 10285
SWIDTH 480 0
DWIDTH 8 0
BBX 8 16 0 -2
BITMAP
00
00
b0
00
00
00
00
00
00
00
00
00
00
00
00
00
ENDCHAR
STARTCHAR C2b1
ENCODING 10286
SWIDTH 480 0
DWIDTH 8 0
BBX 8 16 0 -2
BITMAP
00
00
b1
00
00
00
00
00
00
00
00
00
00
00
00
00
ENDCHAR
STARTCHAR C2b2
ENCODING 10287
SWIDTH 480 0
DWIDTH 8 0
BBX 8 16 0 -2
BITMAP
00
00
b2
00
00
00
00
00
00
00
00
00
00
00
00
00
ENDCHAR
STARTCHAR C2b3
ENCODING 10288
SWIDTH 480 0
DWIDTH 8 0
BBX 8 16 0 -2
BITMAP
00
00
b3
00
00
00
00
00
00
00
00
00
00
00
00
00
ENDCHAR
STARTCHAR C2b4
ENCODING 10289
SWIDTH 480 0
DWIDTH 8 0
BBX 8 16 0 -2
BITMAP
00
00
b4
00
00
00
00
00
00
00
00
00
00
00
00
00
ENDCHAR
STARTCHAR C2b5
ENCODING 10290
SWIDTH 480 0
DWIDTH 8 0
BBX 8 16 0 -2
BITMAP
00
00
b5
00
00
00
00
00
00
00
00
00
00
00
00
00
ENDCHAR
STARTCHAR C2b6
ENCODING 10291
SWIDTH 480 0
DWIDTH 8 0
BBX 8 16 0 -2
BITMAP
00
00
b6
00
00
00
00
00
00
00
00
00
00
00
00
00
ENDCHAR
STARTCHAR C2b7
ENCODING 10292
SWIDTH 480 0
DWIDTH 8 0
BBX 8 16 0 -2
BITMAP
00
00
b7
00
00
00
00
00
00
00
00
00
00
00
00
00
ENDCHAR
STARTCHAR C2b8
ENCODING 10293
SWIDTH 480 0
DWIDTH 8 0
BBX 8 16 0 -2
BITMAP
00
00
b8
00
00
00
00
00
00
00
00
00
00
00
00
00
ENDCHAR
STARTCHAR C2b9
ENCODING 10294
SWIDTH 480 0
DWIDTH 8 0
BBX 8 16 0 -2
BITMAP
00
00
b9
00
00
00
00
00
00
00
00
00
00
00
00
00
ENDCHAR
STARTCHAR C2ba
ENCODING 10295
SWIDTH 480 0
DWIDTH 8 0
BBX 8 16 0 -2
BITMAP
00
00
ba
00
00
00
00
00
00
00
00
00
00
00
00
00
ENDCHAR
STARTCHAR C2bb
ENCODING 10296
SWIDTH 480 0
DWIDTH 8 0
BBX 8 16 0 -2
BITMAP
00
00
bb
00
00
00
00
00
00
00
00
00
00
00
00
00
ENDCHAR
STARTCHAR C2bc
ENCODING 10297
SWIDTH 480 0
DWIDTH 8 0
BBX 8 16 0 -2
BITMAP
00
00
bc
00
00
00
00
00
00
00
00
00
00
00
00
00
ENDCHAR
STARTCHAR C2bd
ENCODING 10298
SWIDTH 480 0
DWIDTH 8 0
BBX 8 16 0 -2
BITMAP
00
00
bd
00
00
00
00
00
00
00
00
00
00
00
00
00
ENDCHAR
STARTCHAR C2be
ENCODING 10299
SWIDTH 480 0
DWIDTH 8 0
BBX 8 16 0 -2
BITMAP
00
00
be
00
00
00
00
00
00
00
00
00
00
00
00
00
ENDCHAR
STARTCHAR C2bf
ENCODING 10300
SWIDTH 480 0
DWIDTH 8 0
BBX 8 16 0 -2
BITMAP
00
00
bf
00
00
00
00
00
00
00
00
00
00
00
00
00
ENDCHAR
STARTCHAR C2c0
ENCODING 10301
SWIDTH 480 0
DWIDTH 8 0
BBX 8 16 0 -2
BITMAP
00
00
c0
00
00
00
00
00
00
00
00
00
00
00
00
00
ENDCHAR
STARTCHAR C2c1
ENCODING 10302
SWIDTH 480 0
DWIDTH 8 0
BBX 8 16 0 -2
BITMAP
00
00
c1
00
00
00
00
00
00
00
00
00
00
00
00
00
ENDCHAR
STARTCHAR C2c2
ENCODING 10303
SWIDTH 480 0
DWIDTH 8 0
BBX 8 16 0 -2
BITMAP
00
00
c2
00
00
00
00
00
00
00
00
00
00
00
00
00
ENDCHAR
STARTCHAR C2c3
ENCODING 10304
SWIDTH 480 0
DWIDTH 8 0
BBX 8 16 0 -2
BITMAP
00
00
c3
00
00
00
00
00
00
00
00
00
00
00
00
00
ENDCHAR
STARTCHAR C2c4
ENCODING 10305
SWIDTH 480 0
DWIDTH 8 0
BBX 8 16 0 -2
BITMAP
00
00
c4
00
00
00
00
00
00
00
00
00
00
00
00
00
ENDCHAR
STARTCHAR C2c5
ENCODING 10306
SWIDTH 480 0
DWIDTH 8 0
BBX 8 16 0 -2
BITMAP
00
00
c5
00
00
00
00
00
00
00
00
00
00
00
00
00
ENDCHAR
STARTCHAR C2c6
ENCODING 10307
SWIDTH 480 0
DWIDTH 8 0
BBX 8 16 0 -2
BITMAP
00
00
c6
00
00
00
00
00
00
00
00
00
00
00
00
00
ENDCHAR
STARTCHAR C2c7
ENCODING 10308
SWIDTH 480 0
DWIDTH 8 0
BBX 8 16 0 -2
BITMAP
00
00
c7
00
00
00
00
00
00
00
00
00
00
00
00
00
ENDCHAR
STARTCHAR C2c8
ENCODING 10309
SWIDTH 480 0
DWIDTH 8 0
BBX 8 16 0 -2
BITMAP
00
00
c8
00
00
00
00
00
00
00
00
00
00
00
00
00
ENDCHAR
STARTCHAR C2c9
ENCODING 10310
SWIDTH 480 0
DWIDTH 8 0
BBX 8 16 0 -2
BITMAP
00
00
c9
00
00
00
00
00
00
00
00
00
00
00
00
00
ENDCHAR
STARTCHAR C2ca
ENCODING 10311
SWIDTH 480 0
DWIDTH 8 0
BBX 8 16 0 -2
BITMAP
00
00
ca
00
00
00
00
00
00
00
00
00
00
00
00
00
ENDCHAR
STARTCHAR C2cb
ENCODING 10312
SWIDTH 480 0
DWIDTH 8 0
BBX 8 16 0 -2
BITMAP
00
00
cb
00
00
00
00
00
00
00
00
00
00
00
00
00
ENDCHAR
STARTCHAR C2cc
ENCODING 10313
SWIDTH 480 0
DWIDTH 8 0
BBX 8 16 0 -2
BITMAP
00
00
cc
00
00
00
00
00
00
00
00
00
00
00
00
00
ENDCHAR
STARTCHAR C2cd
ENCODING 10314
SWIDTH 480 0
DWIDTH 8 0
BBX 8 16 0 -2
BITMAP
00
00
cd
00
00
00
00
00
00
00
00
00
00
00
00
00
ENDCHAR
STARTCHAR C2ce
ENCODING 10315
SWIDTH 480 0
DWIDTH 8 0
BBX 8 16 0 -2
BITMAP
00
00
ce
00
00
00
00
00
00
00
00
00
00
00
00
00
ENDCHAR
STARTCHAR C2cf
ENCODING 10316
SWIDTH 480 0
DWIDTH 8 0
BBX 8 16 0 -2
BITMAP
00
00
cf
00
00
00
00
00
00
00
00
00
00
00
00
00
ENDCHAR
STARTCHAR C2d0
ENCODING 10317
SWIDTH 480 0
DWIDTH 8 0
BBX 8 16 0 -2
BITMAP
00
00
d0
00
00
00
00
00
00
00
00
00
00
00
00
00
ENDCHAR
STARTCHAR C2d1
ENCODING 10318
SWIDTH 480 0
DWIDTH 8 0
BBX 8 16 0 -2
BITMAP
00
00
d1
00
00
00
00
00
00
00
00
00
00
00
00
00
ENDCHAR
STARTCHAR C2d2
ENCODING 10319
SWIDTH 480 0
DWIDTH 8 0
BBX 8 16 0 -2
BITMAP
00
00
d2
00
00
00
00
00
00
00
00
00
00
00
00
00
ENDCHAR
STARTCHAR C2d3
ENCODING 10320
SWIDTH 480 0
DWIDTH 8 0
BBX 8 16 0 -2
BITMAP
00
00
d3
00
00
00
00
00
00
00
00
00
00
00
00
00
ENDCHAR
STARTCHAR C2d4
ENCODING 10321
SWIDTH 480 0
DWIDTH 8 0
BBX 8 16 0 -2
BITMAP
00
00
d4
00
00
00
00
00
00
00
00
00
00
00
00
00
ENDCHAR
STARTCHAR C2d5
ENCODING 10322
SWIDTH 480 0
DWIDTH 8 0
BBX 8 16 0 -2
BITMAP
00
00
d5
00
00
00
00
00
00
00
00
00
00
00
00
00
ENDCHAR
STARTCHAR C2d6
ENCODING 10323
SWIDTH 480 0
DWIDTH 8 0
BBX 8 16 0 -2
BITMAP
00
00
d6
00
00
00
00
00
00
00
00
00
00
00
00
00
ENDCHAR
STARTCHAR C2d7
ENCODING 10324
SWIDTH 480 0
DWIDTH 8 0
BBX 8 16 0 -2
BITMAP
00
00
d7
00
00
00
00
00
00
00
00
00
00
00
00
00
ENDCHAR
STARTCHAR C2d8
ENCODING 10325
SWIDTH 480 0
DWIDTH 8 0
BBX 8 16 0 -2
BITMAP
00
00
d8
00
00
00
00
00
00
00
00
00
00
00
00
00
ENDCHAR
STARTCHAR C2d9
ENCODING 10326
SWIDTH 480 0
DWIDTH 8 0
BBX 8 16 0 -2
BITMAP
00
00
d9
00
00
00
00
00
00
00
00
00
00
00
00
00
ENDCHAR
STARTCHAR C2da
ENCODING 10327
SWIDTH 480 0
DWIDTH 8 0
BBX 8 16 0 -2
BITMAP
00
00
da
00
00
00
00
00
00
00
00
00
00
00
00
00
ENDCHAR
STARTCHAR C2db
ENCODING 10328
SWIDTH 480 0
DWIDTH 8 0
BBX 8 16 0 -2
BITMAP
00
00
db
00
00
00
00
00
00
00
00
00
00
00
00
00
ENDCHAR
STARTCHAR C2dc
ENCODING 10329
SWIDTH 480 0
DWIDTH 8 0
BBX 8 16 0 -2
BITMAP
00
00
dc
00
00
00
00
00
00
00
00
00
00
00
00
00
ENDCHAR
STARTCHAR C2dd
ENCODING 10330
SWIDTH 480 0
DWIDTH 8 0
BBX 8 16 0 -2
BITMAP
00
00
dd
00
00
00
00
00
00
00
00
00
00
00
00
00
ENDCHAR
STARTCHAR C2de
ENCODING 10331
SWIDTH 480 0
DWIDTH 8 0
BBX 8 16 0 -2
BITMAP
00
00
de
00
00
00
00
00
00
00
00
00
00
00
00
00
ENDCHAR
STARTCHAR C2df
ENCODING 10332
SWIDTH 480 0
DWIDTH 8 0
BBX 8 16 0 -2
BITMAP
00
00
df
00
00
00
00
00
00
00
00
00
00
00
00
00
ENDCHAR
STARTCHAR C2e0
ENCODING 10333
SWIDTH 480 0
DWIDTH 8 0
BBX 8 16 0 -2
BITMAP
00
00
e0
00
00
00
00
00
00
00
00
00
00
00
00
00
ENDCHAR
STARTCHAR C2e1
ENCODING 10334
SWIDTH 480 0
DWIDTH 8 0
BBX 8 16 0 -2
BITMAP
00
00
e1
00
00
00
00
00
00
00
00
00
00
00
00
00
ENDCHAR
STARTCHAR C2e2
ENCODING 10335
SWIDTH 480 0
DWIDTH 8 0
BBX 8 16 0 -2
BITMAP
00
00
e2
00
00
00
00
00
00
00
00
00
00
00
00
00
ENDCHAR
STARTCHAR C2e3
ENCODING 10336
SWIDTH 480 0
DWIDTH 8 0
BBX 8 16 0 -2
BITMAP
00
00
e3
00
00
00
00
00
00
00
00
00
00
00
00
00
ENDCHAR
STARTCHAR C2e4
ENCODING 10337
SWIDTH 480 0
DWIDTH 8 0
BBX 8 16 0 -2
BITMAP
00
00
e4
00
00
00
00
00
00
00
00
00
00
00
00
00
ENDCHAR
STARTCHAR C2e5
ENCODING 10338
SWIDTH 480 0
DWIDTH 8 0
BBX 8 16 0 -2
BITMAP
00
00
e5
00
00
00
00
00
00
00
00
00
00
00
00
00
ENDCHAR
STARTCHAR C2e6
ENCODING 10339
SWIDTH 480 0
DWIDTH 8 0
BBX 8 16 0 -2
BITMAP
00
00
e6
00
00
00
00
00
00
00
00
00
00
00
00
00
ENDCHAR
STARTCHAR C2e7
ENCODING 10340
SWIDTH 480 0
DWIDTH 8 0
BBX 8 16 0 -2
BITMAP
00
00
e7
00
00
00
00
00
00
00
00
00
00
00
00
00
ENDCHAR
STARTCHAR C2e8
ENCODING 10341
SWIDTH 480 0
DWIDTH 8 0
BBX 8 16 0 -2
BITMAP
00
00
e8
00
00
00
00
00
00
00
00
00
00
00
00
00
ENDCHAR
STARTCHAR C2e9
ENCODING 10342
SWIDTH 480 0
DWIDTH 8 0
BBX 8 16 0 -2
BITMAP
00
00
e9
00
00
00
00
00
00
00
00
00
00
00
00
00
ENDCHAR
STARTCHAR C2ea
ENCODING 10343
SWIDTH 480 0
DWIDTH 8 0
BBX 8 16 0 -2
BITMAP
00
00
ea
00
00
00
00
00
00
00
00
00
00
00
00
00
ENDCHAR
STARTCHAR C2eb
ENCODING 10344
SWIDTH 480 0
DWIDTH 8 0
BBX 8 16 0 -2
BITMAP
00
00
eb
00
00
00
00
00
00
00
00
00
00
00
00
00
ENDCHAR
STARTCHAR C2ec
ENCODING 10345
SWIDTH 480 0
DWIDTH 8 0
BBX 8 16 0 -2
BITMAP
00
00
ec
00
00
00
00
00
00
00
00
00
00
00
00
00
ENDCHAR
STARTCHAR C2ed
ENCODING 10346
SWIDTH 480 0
DWIDTH 8 0
BBX 8 16 0 -2
BITMAP
00
00
ed
00
00
00
00
00
00
00
00
00
00
00
00
00
ENDCHAR
STARTCHAR C2ee
ENCODING 10347
SWIDTH 480 0
DWIDTH 8 0
BBX 8 16 0 -2
BITMAP
00
00
ee
00
00
00
00
00
00
00
00
00
00
00
00
00
ENDCHAR
STARTCHAR C2ef
ENCODING 10348
SWIDTH 480 0
DWIDTH 8 0
BBX 8 16 0 -2
BITMAP
00
00
ef
00
00
00
00
00
00
00
00
00
00
00
00
00
ENDCHAR
STARTCHAR C2f0
ENCODING 10349
SWIDTH 480 0
DWIDTH 8 0
BBX 8 16 0 -2
BITMAP
00
00
f0
00
00
00
00
00
00
00
00
00
00
00
00
00
ENDCHAR
STARTCHAR C2f1
ENCODING 10350
SWIDTH 480 0
DWIDTH 8 0
BBX 8 16 0 -2
BITMAP
00
00
f1
00
00
00
00
00
00
00
00
00
00
00
00
00
ENDCHAR
STARTCHAR C2f2
ENCODING 10351
SWIDTH 480 0
DWIDTH 8 0
BBX 8 16 0 -2
BITMAP
00
00
f2
00
00
00
00
00
00
00
00
00
00
00
00
00
ENDCHAR
STARTCHAR C2f3
ENCODING 10352
SWIDTH 480 0
DWIDTH 8 0
BBX 8 16 0 -2
BITMAP
00
00
f3
00
00
00
00
00
00
00
00
00
00
00
00
00
ENDCHAR
STARTCHAR C2f4
ENCODING 10353
SWIDTH 480 0
DWIDTH 8 0
BBX 8 16 0 -2
BITMAP
00
00
f4
00
00
00
00
00
00
00
00
00
00
00
00
00
ENDCHAR
STARTCHAR C2f5
ENCODING 10354
SWIDTH 480 0
DWIDTH 8 0
BBX 8 16 0 -2
BITMAP
00
00
f5
00
00
00
00
00
00
00
00
00
00
00
00
00
ENDCHAR
STARTCHAR C2f6
ENCODING 10355
SWIDTH 480 0
DWIDTH 8 0
BBX 8 16 0 -2
BITMAP
00
00
f6
00
00
00
00
00
00
00
00
00
00
00
00
00
ENDCHAR
STARTCHAR C2f7
ENCODING 10356
SWIDTH 480 0
DWIDTH 8 0
BBX 8 16 0 -2
BITMAP
00
00
f7
00
00
00
00
00
00
00
00
00
00
00
00
00
ENDCHAR
STARTCHAR C2f8
ENCODING 10357
SWIDTH 480 0
DWIDTH 8 0
BBX 8 16 0 -2
BITMAP
00
00
f8
00
00
00
00
00
00
00
00
00
00
00
00
00
ENDCHAR
STARTCHAR C2f9
ENCODING 10358
SWIDTH 480 0
DWIDTH 8 0
BBX 8 16 0 -2
BITMAP
00
00
f9
00
00
00
00
00
00
00
00
00
00
00
00
00
ENDCHAR
STARTCHAR C2fa
ENCODING 10359
SWIDTH 480 0
DWIDTH 8 0
BBX 8 16 0 -2
BITMAP
00
00
fa
00
00
00
00
00
00
00
00
00
00
00
00
00
ENDCHAR
STARTCHAR C2fb
ENCODING 10360
SWIDTH 480 0
DWIDTH 8 0
BBX 8 16 0 -2
BITMAP
00
00
fb
00
00
00
00
00
00
00
00
00
00
00
00
00
ENDCHAR
STARTCHAR C2fc
ENCODING 10361
SWIDTH 480 0
DWIDTH 8 0
BBX 8 16 0 -2
BITMAP
00
00
fc
00
00
00
00
00
00
00
00
00
00
00
00
00
ENDCHAR
STARTCHAR C2fd
ENCODING 10362
SWIDTH 480 0
DWIDTH 8 0
BBX 8 16 0 -2
BITMAP
00
00
fd
00
00
00
00
00
00
00
00
00
00
00
00
00
ENDCHAR
STARTCHAR C2fe
ENCODING 10363
SWIDTH 480 0
DWIDTH 8 0
BBX 8 16 0 -2
BITMAP
00
00
fe
00
00
00
00
00
00
00
00
00
00
00
00
00
ENDCHAR
STARTCHAR C2ff
ENCODING 10364
SWIDTH 480 0
DWIDTH 8 0
BBX 8 16 0 -2
BITMAP
00
00
ff
00
00
00
00
00
00
00
00
00
00
00
00
00
ENDCHAR
STARTCHAR C301
ENCODING 10365
SWIDTH 480 0
DWIDTH 8 0
BBX 8 16 0 -2
BITMAP
00
00
00
01
00
00
00
00
00
00
00
00
00
00
00
00
ENDCHAR
STARTCHAR C302
ENCODING 10366
SWIDTH 480 0
DWIDTH 8 0
BBX 8 16 0 -2
BITMAP
00
00
00
02
00
00
00
00
00
00
00
00
00
00
00
00
ENDCHAR
STARTCHAR C303
ENCODING 10367
SWIDTH 480 0
DWIDTH 8 0
BBX 8 16 0 -2
BITMAP
00
00
00
03
00
00
00
00
00
00
00
00
00
00
00
00
ENDCHAR
STARTCHAR C304
ENCODING 10528
SWIDTH 480 0
DWIDTH 8 0
BBX 8 16 0 -2
BITMAP
00
00
00
04
00
00
00
00
00
00
00
00
00
00
00
00
ENDCHAR
STARTCHAR C305
ENCODING 10529
SWIDTH 480 0
DWIDTH 8 0
BBX 8 16 0 -2
BITMAP
00
00
00
05
00
00
00
00
00
00
00
00
00
00
00
00
ENDCHAR
STARTCHAR C306
ENCODING 10530
SWIDTH 480 0
DWIDTH 8 0
BBX 8 16 0 -2
BITMAP
00
00
00
06
00
00
00
00
00
00
00
00
00
00
00
00
ENDCHAR
STARTCHAR C307
ENCODING 10531
SWIDTH 480 0
DWIDTH 8 0
BBX 8 16 0 -2
BITMAP
00
00
00
07
00
00
00
00
00
00
00
00
00
00
00
00
ENDCHAR
STARTCHAR C308
ENCODING 10532
SWIDTH 480 0
DWIDTH 8 0
BBX 8 16 0 -2
BITMAP
00
00
00
08
00
00
00
00
00
00
00
00
00
00
00
00
ENDCHAR
STARTCHAR C309
ENCODING 10533
SWIDTH 480 0
DWIDTH 8 0
BBX 8 16 0 -2
BITMAP
00
00
00
09
00
00
00
00
00
00
00
00
00
00
00
00
ENDCHAR
STARTCHAR C30a
ENCODING 10534
SWIDTH 480 0
DWIDTH 8 0
BBX 8 16 0 -2
BITMAP
00
00
00
0a
00
00
00
00
00
00
00
00
00
00
00
00
ENDCHAR
STARTCHAR C30b
ENCODING 10535
SWIDTH 480 0
DWIDTH 8 0
BBX 8 16 0 -2
BITMAP
00
00
00
0b
00
00
00
00
00
00
00
00
00
00
00
00
ENDCHAR
STARTCHAR C30c
ENCODING 10536
SWIDTH 480 0
DWIDTH 8 0
BBX 8 16 0 -2
BITMAP
00
00
00
0c
00
00
00
00
00
00
00
00
00
00
00
00
ENDCHAR
STARTCHAR C30d
ENCODING 10537
SWIDTH 480 0
DWIDTH 8 0
BBX 8 16 0 -2
BITMAP
00
00
00
0d
00
00
00
00
00
00
00
00
00
00
00
00
ENDCHAR
STARTCHAR C30e
ENCODING 10538
SWIDTH 480 0
DWIDTH 8 0
BBX 8 16 0 -2
BITMAP
00
00
00
0e
00
00
00
00
00
00
00
00
00
00
00
00
ENDCHAR
STARTCHAR C30f
ENCODING 10539
SWIDTH 480 0
DWIDTH 8 0
BBX 8 16 0 -2
BITMAP
00
00
00
0f
00
00
00
00
00
00
00
00
00
00
00
00
ENDCHAR
STARTCHAR C310
ENCODING 10540
SWIDTH 480 0
DWIDTH 8 0
BBX 8 16 0 -2
BITMAP
00
00
00
10
00
00
00
00
00
00
00
00
00
00
00
00
ENDCHAR
STARTCHAR C311
ENCODING 10541
SWIDTH 480 0
DWIDTH 8 0
BBX 8 16 0 -2
BITMAP
00
00
00
11
00
00
00
00
00
00
00
00
00
00
00
00
ENDCHAR
STARTCHAR C312
ENCODING 10542
SWIDTH 480 0
DWIDTH 8 0
BBX 8 16 0 -2
BITMAP
00
00
00
12
00
00
00
00
00
00
00
00
00
00
00
00
ENDCHAR
STARTCHAR C313
ENCODING 10543
SWIDTH 480 0
DWIDTH 8 0
BBX 8 16 0 -2
BITMAP
00
00
00
13
00
00
00
00
00
00
00
00
00
00
00
00
ENDCHAR
STARTCHAR C314
ENCODING 10544
SWIDTH 480 0
DWIDTH 8 0
BBX 8 16 0 -2
BITMAP
00
00
00
14
00
00
00
00
00
00
00
00
00
00
00
00
ENDCHAR
STARTCHAR C315
ENCODING 10545
SWIDTH 480 0
DWIDTH 8 0
BBX 8 16 0 -2
BITMAP
00
00
00
15
00
00
00
00
00
00
00
00
00
00
00
00
ENDCHAR
STARTCHAR C316
ENCODING 10546
SWIDTH 480 0
DWIDTH 8 0
BBX 8 16 0 -2
BITMAP
00
00
00
16
00
00
00
00
00
00
00
00
00
00
00
00
ENDCHAR
STARTCHAR C317
ENCODING 10547
SWIDTH 480 0
DWIDTH 8 0
BBX 8 16 0 -2
BITMAP
00
00
00
17
00
00
00
00
00
00
00
00
00
00
00
00
ENDCHAR
STARTCHAR C318
ENCODING 10548
SWIDTH 480 0
DWIDTH 8 0
BBX 8 16 0 -2
BITMAP
00
00
00
18
00
00
00
00
00
00
00
00
00
00
00
00
ENDCHAR
STARTCHAR C319
ENCODING 10549
SWIDTH 480 0
DWIDTH 8 0
BBX 8 16 0 -2
BITMAP
00
00
00
19
00
00
00
00
00
00
00
00
00
00
00
00
ENDCHAR
STARTCHAR C31a
ENCODING 10550
SWIDTH 480 0
DWIDTH 8 0
BBX 8 16 0 -2
BITMAP
00
00
00
1a
00
00
00
00
00
00
00
00
00
00
00
00
ENDCHAR
STARTCHAR C31b
ENCODING 10551
SWIDTH 480 0
DWIDTH 8 0
BBX 8 16 0 -2
BITMAP
00
00
00
1b
00
00
00
00
00
00
00
00
00
00
00
00
ENDCHAR
STARTCHAR C31c
ENCODING 10552
SWIDTH 480 0
DWIDTH 8 0
BBX 8 16 0 -2
BITMAP
00
00
00
1c
00
00
00
00
00
00
00
00
00
00
00
00
ENDCHAR
STARTCHAR C31d
ENCODING 10553
SWIDTH 480 0
DWIDTH 8 0
BBX 8 16 0 -2
BITMAP
00
00
00
1d
00
00
00
00
00
00
00
00
00
00
00
00
ENDCHAR
STARTCHAR C31e
ENCODING 10554
SWIDTH 480 0
DWIDTH 8 0
BBX 8 16 0 -2
BITMAP
00
00
00
1e
00
00
00
00
00
00
00
00
00
00
00
00
ENDCHAR
STARTCHAR C31f
ENCODING 10555
SWIDTH 480 0
DWIDTH 8 0
BBX 8 16 0 -2
BITMAP
00
00
00
1f
00
00
00
00
00
00
00
00
00
00
00
00
ENDCHAR
STARTCHAR C320
ENCODING 10556
SWIDTH 480 0
DWIDTH 8 0
BBX 8 16 0 -2
BITMAP
00
00
00
20
00
00
00
00
00
00
00
00
00
00
00
00
ENDCHAR
STARTCHAR C321
ENCODING 10557
SWIDTH 480 0
DWIDTH 8 0
BBX 8 16 0 -2
BITMAP
00
00
00
21
00
00
00
00
00
00
00
00
00
00
00
00
ENDCHAR
STARTCHAR C322
ENCODING 10558
SWIDTH 480 0
DWIDTH 8 0
BBX 8 16 0 -2
BITMAP
00
00
00
22
00
00
00
00
00
00
00
00
00
00
00
00
ENDCHAR
STARTCHAR C323
ENCODING 10559
SWIDTH 480 0
DWIDTH 8 0
BBX 8 16 0 -2
BITMAP
00
00
00
23
00
00
00
00
00
00
00
00
00
00
00
00
ENDCHAR
STARTCHAR C324
ENCODING 10560
SWIDTH 480 0
DWIDTH 8 0
BBX 8 16 0 -2
BITMAP
00
00
00
24
00
00
00
00
00
00
00
00
00
00
00
00
ENDCHAR
STARTCHAR C325
ENCODING 10561
SWIDTH 480 0
DWIDTH 8 0
BBX 8 16 0 -2
BITMAP
00
00
00
25
00
00
00
00
00
00
00
00
00
00
00
00
ENDCHAR
STARTCHAR C326
ENCODING 10562
SWIDTH 480 0
DWIDTH 8 0
BBX 8 16 0 -2
BITMAP
00
00
00
26
00
00
00
00
00
00
00
00
00
00
00
00
ENDCHAR
STARTCHAR C327
ENCODING 10563
SWIDTH 480 0
DWIDTH 8 0
BBX 8 16 0 -2
BITMAP
00
00
00
27
00
00
00
00
00
00
00
00
00
00
00
00
ENDCHAR
STARTCHAR C328
ENCODING 10564
SWIDTH 480 0
DWIDTH 8 0
BBX 8 16 0 -2
BITMAP
00
00
00
28
00
00
00
00
00
00
00
00
00
00
00
00
ENDCHAR
STARTCHAR C329
ENCODING 10565
SWIDTH 480 0
DWIDTH 8 0
BBX 8 16 0 -2
BITMAP
00
00
00
29
00
00
00
00
00
00
00
00
00
00
00
00
ENDCHAR
STARTCHAR C32a
ENCODING 10566
SWIDTH 480 0
DWIDTH 8 0
BBX 8 16 0 -2
BITMAP
00
00
00
2a
00
00
00
00
00
00
00
00
00
00
00
00
ENDCHAR
STARTCHAR C32b
ENCODING 10567
SWIDTH 480 0
DWIDTH 8 0
BBX 8 16 0 -2
BITMAP
00
00
00
2b
00
00
00
00
00
00
00
00
00
00
00
00
ENDCHAR
STARTCHAR C32c
ENCODING 10568
SWIDTH 480 0
DWIDTH 8 0
BBX 8 16 0 -2
BITMAP
00
00
00
2c
00
00
00
00
00
00
00
00
00
00
00
00
ENDCHAR
STARTCHAR C32d
ENCODING 10569
SWIDTH 480 0
DWIDTH 8 0
BBX 8 16 0 -2
BITMAP
00
00
00
2d
00
00
00
00
00
00
00
00
00
00
00
00
ENDCHAR
STARTCHAR C32e
ENCODING 10570
SWIDTH 480 0
DWIDTH 8 0
BBX 8 16 0 -2
BITMAP
00
00
00
2e
00
00
00
00
00
00
00
00
00
00
00
00
ENDCHAR
STARTCHAR C32f
ENCODING 10571
SWIDTH 480 0
DWIDTH 8 0
BBX 8 16 0 -2
BITMAP
00
00
00
2f
00
00
00
00
00
00
00
00
00
00
00
00
ENDCHAR
STARTCHAR C330
ENCODING 10572
SWIDTH 480 0
DWIDTH 8 0
BBX 8 16 0 -2
BITMAP
00
00
00
30
00
00
00
00
00
00
00
00
00
00
00
00
ENDCHAR
STARTCHAR C331
ENCODING 10573
SWIDTH 480 0
DWIDTH 8 0
BBX 8 16 0 -2
BITMAP
00
00
00
31
00
00
00
00
00
00
00
00
00
00
00
00
ENDCHAR
STARTCHAR C332
ENCODING 10574
SWIDTH 480 0
DWIDTH 8 0
BBX 8 16 0 -2
BITMAP
00
00
00
32
00
00
00
00
00
00
00
00
00
00
00
00
ENDCHAR
STARTCHAR C333
ENCODING 10575
SWIDTH 480 0
DWIDTH 8 0
BBX 8 16 0 -2
BITMAP
00
00
00
33
00
00
00
00
00
00
00
00
00
00
00
00
ENDCHAR
STARTCHAR C334
ENCODING 10576
SWIDTH 480 0
DWIDTH 8 0
BBX 8 16 0 -2
BITMAP
00
00
00
34
00
00
00
00
00
00
00
00
00
00
00
00
ENDCHAR
STARTCHAR C335
ENCODING 10577
SWIDTH 480 0
DWIDTH 8 0
BBX 8 16 0 -2
BITMAP
00
00
00
35
00
00
00
00
00
00
00
00
00
00
00
00
ENDCHAR
STARTCHAR C336
ENCODING 10578
SWIDTH 480 0
DWIDTH 8 0
BBX 8 16 0 -2
BITMAP
00
00
00
36
00
00
00
00
00
00
00
00
00
00
00
00
ENDCHAR
STARTCHAR C337
ENCODING 10579
SWIDTH 480 0
DWIDTH 8 0
BBX 8 16 0 -2
BITMAP
00
00
00
37
00
00
00
00
00
00
00
00
00
00
00
00
ENDCHAR
STARTCHAR C338
ENCODING 10580
SWIDTH 480 0
DWIDTH 8 0
BBX 8 16 0 -2
BITMAP
00
00
00
38
00
00
00
00
00
00
00
00
00
00
00
00
ENDCHAR
STARTCHAR C339
ENCODING 10581
SWIDTH 480 0
DWIDTH 8 0
BBX 8 16 0 -2
BITMAP
00
00
00
39
00
00
00
00
00
00
00
00
00
00
00
00
ENDCHAR
STARTCHAR C33a
ENCODING 10582
SWIDTH 480 0
DWIDTH 8 0
BBX 8 16 0 -2
BITMAP
00
00
00
3a
00
00
00
00
00
00
00
00
00
00
00
00
ENDCHAR
STARTCHAR C33b
ENCODING 10583
SWIDTH 480 0
DWIDTH 8 0
BBX 8 16 0 -2
BITMAP
00
00
00
3b
00
00
00
00
00
00
00
00
00
00
00
00
ENDCHAR
STARTCHAR C33c
ENCODING 10584
SWIDTH 480 0
DWIDTH 8 0
BBX 8 16 0 -2
BITMAP
00
00
00
3c
00
00
00
00
00
00
00
00
00
00
00
00
ENDCHAR
STARTCHAR C33d
ENCODING 10585
SWIDTH 480 0
DWIDTH 8 0
BBX 8 16 0 -2
BITMAP
00
00
00
3d
00
00
00
00
00
00
00
00
00
00
00
00
ENDCHAR
STARTCHAR C33e
ENCODING 10586
SWIDTH 480 0
DWIDTH 8 0
BBX 8 16 0 -2
BITMAP
00
00
00
3e
00
00
00
00
00
00
00
00
00
00
00
00
ENDCHAR
STARTCHAR C33f
ENCODING 10587
SWIDTH 480 0
DWIDTH 8 0
BBX 8 16 0 -2
BITMAP
00
00
00
3f
00
00
00
00
00
00
00
00
00
00
00
00
ENDCHAR
STARTCHAR C340
ENCODING 10588
SWIDTH 480 0
DWIDTH 8 0
BBX 8 16 0 -2
BITMAP
00
00
00
40
00
00
00
00
00
00
00
00
00
00
00
00
ENDCHAR
STARTCHAR C341
ENCODING 10589
SWIDTH 480 0
DWIDTH 8 0
BBX 8 16 0 -2
BITMAP
00
00
00
41
00
00
00
00
00
00
00
00
00
00
00
00
ENDCHAR
STARTCHAR C342
ENCODING 10590
SWIDTH 480 0
DWIDTH 8 0
BBX 8 16 0 -2
BITMAP
00
00
00
42
00
00
00
00
00
00
00
00
00
00
00
00
ENDCHAR
STARTCHAR C343
ENCODING 10591
SWIDTH 480 0
DWIDTH 8 0
BBX 8 16 0 -2
BITMAP
00
00
00
43
00
00
00
00
00
00
00
00
00
00
00
00
ENDCHAR
STARTCHAR C344
ENCODING 10592
SWIDTH 480 0
DWIDTH 8 0
BBX 8 16 0 -2
BITMAP
00
00
00
44
00
00
00
00
00
00
00
00
00
00
00
00
ENDCHAR
STARTCHAR C345
ENCODING 10593
SWIDTH 480 0
DWIDTH 8 0
BBX 8 16 0 -2
BITMAP
00
00
00
45
00
00
00
00
00
00
00
00
00
00
00
00
ENDCHAR
STARTCHAR C346
ENCODING 10594
SWIDTH 480 0
DWIDTH 8 0
BBX 8 16 0 -2
BITMAP
00
00
00
46
00
00
00
00
00
00
00
00
00
00
00
00
ENDCHAR
STARTCHAR C347
ENCODING 10595
SWIDTH 480 0
DWIDTH 8 0
BBX 8 16 0 -2
BITMAP
00
00
00
47
00
00
00
00
00
00
00
00
00
00
00
00
ENDCHAR
STARTCHAR C348
ENCODING 10596
SWIDTH 480 0
DWIDTH 8 0
BBX 8 16 0 -2
BITMAP
00
00
00
48
00
00
00
00
00
00
00
00
00
00
00
00
ENDCHAR
STARTCHAR C349
ENCODING 10597
SWIDTH 480 0
DWIDTH 8 0
BBX 8 16 0 -2
BITMAP
00
00
00
49
00
00
00
00
00
00
00
00
00
00
00
00
ENDCHAR
STARTCHAR C34a
ENCODING 10598
SWIDTH 480 0
DWIDTH 8 0
BBX 8 16 0 -2
BITMAP
00
00
00
4a
00
00
00
00
00
00
00
00
00
00
00
00
ENDCHAR
STARTCHAR C34b
ENCODING 10599
SWIDTH 480 0
DWIDTH 8 0
BBX 8 16 0 -2
BITMAP
00
00
00
4b
00
00
00
00
00
00
00
00
00
00
00
00
ENDCHAR
STARTCHAR C34c
ENCODING 10600
SWIDTH 480 0
DWIDTH 8 0
BBX 8 16 0 -2
BITMAP
00
00
00
4c
00
00
00
00
00
00
00
00
00
00
00
00
ENDCHAR
STARTCHAR C34d
ENCODING 10601
SWIDTH 480 0
DWIDTH 8 0
BBX 8 16 0 -2
BITMAP
00
00
00
4d
00
00
00
00
00
00
00
00
00
00
00
00
ENDCHAR
STARTCHAR C34e
ENCODING 10602
SWIDTH 480 0
DWIDTH 8 0
BBX 8 16 0 -2
BITMAP
00
00
00
4e
00
00
00
00
00
00
00
00
00
00
00
00
ENDCHAR
STARTCHAR C34f
ENCODING 10603
SWIDTH 480 0
DWIDTH 8 0
BBX 8 16 0 -2
BITMAP
00
00
00
4f
00
00
00
00
00
00
00
00
00
00
00
00
ENDCHAR
STARTCHAR C350
ENCODING 10604
SWIDTH 480 0
DWIDTH 8 0
BBX 8 16 0 -2
BITMAP
00
00
00
50
00
00
00
00
00
00
00
00
00
00
00
00
ENDCHAR
STARTCHAR C351
ENCODING 10605
SWIDTH 480 0
DWIDTH 8 0
BBX 8 16 0 -2
BITMAP
00
00
00
51
00
00
00
00
00
00
00
00
00
00
00
00
ENDCHAR
STARTCHAR C352
ENCODING 10606
SWIDTH 480 0
DWIDTH 8 0
BBX 8 16 0 -2
BITMAP
00
00
00
52
00
00
00
00
00
00
00
00
00
00
00
00
ENDCHAR
STARTCHAR C353
ENCODING 10607
SWIDTH 480 0
DWIDTH 8 0
BBX 8 16 0 -2
BITMAP
00
00
00
53
00
00
00
00
00
00
00
00
00
00
00
00
ENDCHAR
STARTCHAR C354
ENCODING 10608
SWIDTH 480 0
DWIDTH 8 0
BBX 8 16 0 -2
BITMAP
00
00
00
54
00
00
00
00
00
00
00
00
00
00
00
00
ENDCHAR
STARTCHAR C355
ENCODING 10609
SWIDTH 480 0
DWIDTH 8 0
BBX 8 16 0 -2
BITMAP
00
00
00
55
00
00
00
00
00
00
00
00
00
00
00
00
ENDCHAR
STARTCHAR C356
ENCODING 10610
SWIDTH 480 0
DWIDTH 8 0
BBX 8 16 0 -2
BITMAP
00
00
00
56
00
00
00
00
00
00
00
00
00
00
00
00
ENDCHAR
STARTCHAR C357
ENCODING 10611
SWIDTH 480 0
DWIDTH 8 0
BBX 8 16 0 -2
BITMAP
00
00
00
57
00
00
00
00
00
00
00
00
00
00
00
00
ENDCHAR
STARTCHAR C358
ENCODING 10612
SWIDTH 480 0
DWIDTH 8 0
BBX 8 16 0 -2
BITMAP
00
00
00
58
00
00
00
00
00
00
00
00
00
00
00
00
ENDCHAR
STARTCHAR C359
ENCODING 10613
SWIDTH 480 0
DWIDTH 8 0
BBX 8 16 0 -2
BITMAP
00
00
00
59
00
00
00
00
00
00
00
00
00
00
00
00
ENDCHAR
STARTCHAR C35a
ENCODING 10614
SWIDTH 480 0
DWIDTH 8 0
BBX 8 16 0 -2
BITMAP
00
00
00
5a
00
00
00
00
00
00
00
00
00
00
00
00
ENDCHAR
STARTCHAR C35b
ENCODING 10615
SWIDTH 480 0
DWIDTH 8 0
BBX 8 16 0 -2
BITMAP
00
00
00
5b
00
00
00
00
00
00
00
00
00
00
00
00
ENDCHAR
STARTCHAR C35c
ENCODING 10616
SWIDTH 480 0
DWIDTH 8 0
BBX 8 16 0 -2
BITMAP
00
00
00
5c
00
00
00
00
00
00
00
00
00
00
00
00
ENDCHAR
STARTCHAR C35d
ENCODING 10617
SWIDTH 480 0
DWIDTH 8 0
BBX 8 16 0 -2
BITMAP
00
00
00
5d
00
00
00
00
00
00
00
00
00
00
00
00
ENDCHAR
STARTCHAR C35e
ENCODING 10618
SWIDTH 480 0
DWIDTH 8 0
BBX 8 16 0 -2
BITMAP
00
00
00
5e
00
00
00
00
00
00
00
00
00
00
00
00
ENDCHAR
STARTCHAR C35f
ENCODING 10619
SWIDTH 480 0
DWIDTH 8 0
BBX 8 16 0 -2
BITMAP
00
00
00
5f
00
00
00
00
00
00
00
00
00
00
00
00
ENDCHAR
STARTCHAR C360
ENCODING 10620
SWIDTH 480 0
DWIDTH 8 0
BBX 8 16 0 -2
BITMAP
00
00
00
60
00
00
00
00
00
00
00
00
00
00
00
00
ENDCHAR
STARTCHAR C361
ENCODING 10621
SWIDTH 480 0
DWIDTH 8 0
BBX 8 16 0 -2
BITMAP
00
00
00
61
00
00
00
00
00
00
00
00
00
00
00
00
ENDCHAR
STARTCHAR C362
ENCODING 10622
SWIDTH 480 0
DWIDTH 8 0
BBX 8 16 0 -2
BITMAP
00
00
00
62
00
00
00
00
00
00
00
00
00
00
00
00
ENDCHAR
STARTCHAR C363
ENCODING 10623
SWIDTH 480 0
DWIDTH 8 0
BBX 8 16 0 -2
BITMAP
00
00
00
63
00
00
00
00
00
00
00
00
00
00
00
00
ENDCHAR
STARTCHAR C364
ENCODING 10784
SWIDTH 480 0
DWIDTH 8 0
BBX 8 16 0 -2
BITMAP
00
00
00
64
00
00
00
00
00
00
00
00
00
00
00
00
ENDCHAR
STARTCHAR C365
ENCODING 10785
SWIDTH 480 0
DWIDTH 8 0
BBX 8 16 0 -2
BITMAP
00
00
00
65
00
00
00
00
00
00
00
00
00
00
00
00
ENDCHAR
STARTCHAR C366
ENCODING 10786
SWIDTH 480 0
DWIDTH 8 0
BBX 8 16 0 -2
BITMAP
00
00
00
66
00
00
00
00
00
00
00
00
00
00
00
00
ENDCHAR
STARTCHAR C367
ENCODING 10787
SWIDTH 480 0
DWIDTH 8 0
BBX 8 16 0 -2
BITMAP
00
00
00
67
00
00
00
00
00
00
00
00
00
00
00
00
ENDCHAR
STARTCHAR C368
ENCODING 10788
SWIDTH 480 0
DWIDTH 8 0
BBX 8 16 0 -2
BITMAP
00
00
00
68
00
00
00
00
00
00
00
00
00
00
00
00
ENDCHAR
STARTCHAR C369
ENCODING 10789
SWIDTH 480 0
DWIDTH 8 0
BBX 8 16 0 -2
BITMAP
00
00
00
69
00
00
00
00
00
00
00
00
00
00
00
00
ENDCHAR
STARTCHAR C36a
ENCODING 10790
SWIDTH 480 0
DWIDTH 8 0
BBX 8 16 0 -2
BITMAP
00
00
00
6a
00
00
00
00
00
00
00
00
00
00
00
00
ENDCHAR
STARTCHAR C36b
ENCODING 10791
SWIDTH 480 0
DWIDTH 8 0
BBX 8 16 0 -2
BITMAP
00
00
00
6b
00
00
00
00
00
00
00
00
00
00
00
00
ENDCHAR
STARTCHAR C36c
ENCODING 10792
SWIDTH 480 0
DWIDTH 8 0
BBX 8 16 0 -2
BITMAP
00
00
00
6c
00
00
00
00
00
00
00
00
00
00
00
00
ENDCHAR
STARTCHAR C36d
ENCODING 10793
SWIDTH 480 0
DWIDTH 8 0
BBX 8 16 0 -2
BITMAP
00
00
00
6d
00
00
00
00
00
00
00
00
00
00
00
00
ENDCHAR
STARTCHAR C36e
ENCODING 10794
SWIDTH 480 0
DWIDTH 8 0
BBX 8 16 0 -2
BITMAP
00
00
00
6e
00
00
00
00
00
00
00
00
00
00
00
00
ENDCHAR
STARTCHAR C36f
ENCODING 10795
SWIDTH 480 0
DWIDTH 8 0
BBX 8 16 0 -2
BITMAP
00
00
00
6f
00
00
00
00
00
00
00
00
00
00
00
00
ENDCHAR
STARTCHAR C370
ENCODING 10796
SWIDTH 480 0
DWIDTH 8 0
BBX 8 16 0 -2
BITMAP
00
00
00
70
00
00
00
00
00
00
00
00
00
00
00
00
ENDCHAR
STARTCHAR C371
ENCODING 10797
SWIDTH 480 0
DWIDTH 8 0
BBX 8 16 0 -2
BITMAP
00
00
00
71
00
00
00
00
00
00
00
00
00
00
00
00
ENDCHAR
STARTCHAR C372
ENCODING 10798
SWIDTH 480 0
DWIDTH 8 0
BBX 8 16 0 -2
BITMAP
00
00
00
72
00
00
00
00
00
00
00
00
00
00
00
00
ENDCHAR
STARTCHAR C373
ENCODING 10799
SWIDTH 480 0
DWIDTH 8 0
BBX 8 16 0 -2
BITMAP
00
00
00
73
00
00
00
00
00
00
00
00
00
00
00
00
ENDCHAR
STARTCHAR C374
ENCODING 10800
SWIDTH 480 0
DWIDTH 8 0
BBX 8 16 0 -2
BITMAP
00
00
00
74
00
00
00
00
00
00
00
00
00
00
00
00
ENDCHAR
STARTCHAR C375
ENCODING 10801
SWIDTH 480 0
DWIDTH 8 0
BBX 8 16 0 -2
BITMAP
00
00
00
75
00
00
00
00
00
00
00
00
00
00
00
00
ENDCHAR
STARTCHAR C376
ENCODING 10802
SWIDTH 480 0
DWIDTH 8 0
BBX 8 16 0 -2
BITMAP
00
00
00
76
00
00
00
00
00
00
00
00
00
00
00
00
ENDCHAR
STARTCHAR C377
ENCODING 10803
SWIDTH 480 0
DWIDTH 8 0
BBX 8 16 0 -2
BITMAP
00
00
00
77
00
00
00
00
00
00
00
00
00
00
00
00
ENDCHAR
STARTCHAR C378
ENCODING 10804
SWIDTH 480 0
DWIDTH 8 0
BBX 8 16 0 -2
BITMAP
00
00
00
78
00
00
00
00
00
00
00
00
00
00
00
00
ENDCHAR
STARTCHAR C379
ENCODING 10805
SWIDTH 480 0
DWIDTH 8 0
BBX 8 16 0 -2
BITMAP
00
00
00
79
00
00
00
00
00
00
00
00
00
00
00
00
ENDCHAR
STARTCHAR C37a
ENCODING 10806
SWIDTH 480 0
DWIDTH 8 0
BBX 8 16 0 -2
BITMAP
00
00
00
7a
00
00
00
00
00
00
00
00
00
00
00
00
ENDCHAR
STARTCHAR C37b
ENCODING 10807
SWIDTH 480 0
DWIDTH 8 0
BBX 8 16 0 -2
BITMAP
00
00
00
7b
00
00
00
00
00
00
00
00
00
00
00
00
ENDCHAR
STARTCHAR C37c
ENCODING 10808
SWIDTH 480 0
DWIDTH 8 0
BBX 8 16 0 -2
BITMAP
00
00
00
7c
00
00
00
00
00
00
00
00
00
00
00
00
ENDCHAR
STARTCHAR C37d
ENCODING 10809
SWIDTH 480 0
DWIDTH 8 0
BBX 8 16 0 -2
BITMAP
00
00
00
7d
00
00
00
00
00
00
00
00
00
00
00
00
ENDCHAR
STARTCHAR C37e
ENCODING 10810
SWIDTH 480 0
DWIDTH 8 0
BBX 8 16 0 -2
BITMAP
00
00
00
7e
00
00
00
00
00
00
00
00
00
00
00
00
ENDCHAR
STARTCHAR C37f
ENCODING 10811
SWIDTH 480 0
DWIDTH 8 0
BBX 8 16 0 -2
BITMAP
00
00
00
7f
00
00
00
00
00
00
00
00
00
00
00
00
ENDCHAR
STARTCHAR C380
ENCODING 10812
SWIDTH 480 0
DWIDTH 8 0
BBX 8 16 0 -2
BITMAP
00
00
00
80
00
00
00
00
00
00
00
00
00
00
00
00
ENDCHAR
STARTCHAR C381
ENCODING 10813
SWIDTH 480 0
DWIDTH 8 0
BBX 8 16 0 -2
BITMAP
00
00
00
81
00
00
00
00
00
00
00
00
00
00
00
00
ENDCHAR
STARTCHAR C382
ENCODING 10814
SWIDTH 480 0
DWIDTH 8 0
BBX 8 16 0 -2
BITMAP
00
00
00
82
00
00
00
00
00
00
00
00
00
00
00
00
ENDCHAR
STARTCHAR C383
ENCODING 10815
SWIDTH 480 0
DWIDTH 8 0
BBX 8 16 0 -2
BITMAP
00
00
00
83
00
00
00
00
00
00
00
00
00
00
00
00
ENDCHAR
STARTCHAR C384
ENCODING 10816
SWIDTH 480 0
DWIDTH 8 0
BBX 8 16 0 -2
BITMAP
00
00
00
84
00
00
00
00
00
00
00
00
00
00
00
00
ENDCHAR
STARTCHAR C385
ENCODING 10817
SWIDTH 480 0
DWIDTH 8 0
BBX 8 16 0 -2
BITMAP
00
00
00
85
00
00
00
00
00
00
00
00
00
00
00
00
ENDCHAR
STARTCHAR C386
ENCODING 10818
SWIDTH 480 0
DWIDTH 8 0
BBX 8 16 0 -2
BITMAP
00
00
00
86
00
00
00
00
00
00
00
00
00
00
00
00
ENDCHAR
STARTCHAR C387
ENCODING 10819
SWIDTH 480 0
DWIDTH 8 0
BBX 8 16 0 -2
BITMAP
00
00
00
87
00
00
00
00
00
00
00
00
00
00
00
00
ENDCHAR
STARTCHAR C388
ENCODING 10820
SWIDTH 480 0
DWIDTH 8 0
BBX 8 16 0 -2
BITMAP
00
00
00
88
00
00
00
00
00
00
00
00
00
00
00
00
ENDCHAR
STARTCHAR C389
ENCODING 10821
SWIDTH 480 0
DWIDTH 8 0
BBX 8 16 0 -2
BITMAP
00
00
00
89
00
00
00
00
00
00
00
00
00
00
00
00
ENDCHAR
STARTCHAR C38a
ENCODING 10822
SWIDTH 480 0
DWIDTH 8 0
BBX 8 16 0 -2
BITMAP
00
00
00
8a
00
00
00
00
00
00
00
00
00
00
00
00
ENDCHAR
STARTCHAR C38b
ENCODING 10823
SWIDTH 480 0
DWIDTH 8 0
BBX 8 16 0 -2
BITMAP
00
00
00
8b
00
00
00
00
00
00
00
00
00
00
00
00
ENDCHAR
STARTCHAR C38c
ENCODING 10824
SWIDTH 480 0
DWIDTH 8 0
BBX 8 16 0 -2
BITMAP
00
00
00
8c
00
00
00
00
00
00
00
00
00
00
00
00
ENDCHAR
STARTCHAR C38d
ENCODING 10825
SWIDTH 480 0
DWIDTH 8 0
BBX 8 16 0 -2
BITMAP
00
00
00
8d
00
00
00
00
00
00
00
00
00
00
00
00
ENDCHAR
STARTCHAR C38e
ENCODING 10826
SWIDTH 480 0
DWIDTH 8 0
BBX 8 16 0 -2
BITMAP
00
00
00
8e
00
00
00
00
00
00
00
00
00
00
00
00
ENDCHAR
STARTCHAR C38f
ENCODING 10827
SWIDTH 480 0
DWIDTH 8 0
BBX 8 16 0 -2
BITMAP
00
00
00
8f
00
00
00
00
00
00
00
00
00
00
00
00
ENDCHAR
STARTCHAR C390
ENCODING 10828
SWIDTH 480 0
DWIDTH 8 0
BBX 8 16 0 -2
BITMAP
00
00
00
90
00
00
00
00
00
00
00
00
00
00
00
00
ENDCHAR
STARTCHAR C391
ENCODING 10829
SWIDTH 480 0
DWIDTH 8 0
BBX 8 16 0 -2
BITMAP
00
00
00
91
00
00
00
00
00
00
00
00
00
00
00
00
ENDCHAR
STARTCHAR C392
ENCODING 10830
SWIDTH 480 0
DWIDTH 8 0
BBX 8 16 0 -2
BITMAP
00
00
00
92
00
00
00
00
00
00
00
00
00
00
00
00
ENDCHAR
STARTCHAR C393
ENCODING 10831
SWIDTH 480 0
DWIDTH 8 0
BBX 8 16 0 -2
BITMAP
00
00
00
93
00
00
00
00
00
00
00
00
00
00
00
00
ENDCHAR
STARTCHAR C394
ENCODING 10832
SWIDTH 480 0
DWIDTH 8 0
BBX 8 16 0 -2
BITMAP
00
00
00
94
00
00
00
00
00
00
00
00
00
00
00
00
ENDCHAR
STARTCHAR C395
ENCODING 10833
SWIDTH 480 0
DWIDTH 8 0
BBX 8 16 0 -2
BITMAP
00
00
00
95
00
00
00
00
00
00
00
00
00
00
00
00
ENDCHAR
STARTCHAR C396
ENCODING 10834
SWIDTH 480 0
DWIDTH 8 0
BBX 8 16 0 -2
BITMAP
00
00
00
96
00
00
00
00
00
00
00
00
00
00
00
00
ENDCHAR
STARTCHAR C397
ENCODING 10835
SWIDTH 480 0
DWIDTH 8 0
BBX 8 16 0 -2
BITMAP
00
00
00
97
00
00
00
00
00
00
00
00
00
00
00
00
ENDCHAR
STARTCHAR C398
ENCODING 10836
SWIDTH 480 0
DWIDTH 8 0
BBX 8 16 0 -2
BITMAP
00
00
00
98
00
00
00
00
00
00
00
00
00
00
00
00
ENDCHAR
STARTCHAR C399
ENCODING 10837
SWIDTH 480 0
DWIDTH 8 0
BBX 8 16 0 -2
BITMAP
00
00
00
99
00
00
00
00
00
00
00
00
00
00
00
00
ENDCHAR
STARTCHAR C39a
ENCODING 10838
SWIDTH 480 0
DWIDTH 8 0
BBX 8 16 0 -2
BITMAP
00
00
00
9a
00
00
00
00
00
00
00
00
00
00
00
00
ENDCHAR
STARTCHAR C39b
ENCODING 10839
SWIDTH 480 0
DWIDTH 8 0
BBX 8 16 0 -2
BITMAP
00
00
00
9b
00
00
00
00
00
00
00
00
00
00
00
00
ENDCHAR
STARTCHAR C39c
ENCODING 10840
SWIDTH 480 0
DWIDTH 8 0
BBX 8 16 0 -2
BITMAP
00
00
00
9c
00
00
00
00
00
00
00
00
00
00
00
00
ENDCHAR
STARTCHAR C39d
ENCODING 10841
SWIDTH 480 0
DWIDTH 8 0
BBX 8 16 0 -2
BITMAP
00
00
00
9d
00
00
00
00
00
00
00
00
00
00
00
00
ENDCHAR
STARTCHAR C39e
ENCODING 10842
SWIDTH 480 0
DWIDTH 8 0
BBX 8 16 0 -2
BITMAP
00
00
00
9e
00
00
00
00
00
00
00
00
00
00
00
00
ENDCHAR
STARTCHAR C39f
ENCODING 10843
SWIDTH 480 0
DWIDTH 8 0
BBX 8 16 0 -2
BITMAP
00
00
00
9f
00
00
00
00
00
00
00
00
00
00
00
00
ENDCHAR
STARTCHAR C3a0
ENCODING 10844
SWIDTH 480 0
DWIDTH 8 0
BBX 8 16 0 -2
BITMAP
00
00
00
a0
00
00
00
00
00
00
00
00
00
00
00
00
ENDCHAR
STARTCHAR C3a1
ENCODING 10845
SWIDTH 480 0
DWIDTH 8 0
BBX 8 16 0 -2
BITMAP
00
00
00
a1
00
00
00
00
00
00
00
00
00
00
00
00
ENDCHAR
STARTCHAR C3a2
ENCODING 10846
SWIDTH 480 0
DWIDTH 8 0
BBX 8 16 0 -2
BITMAP
00
00
00
a2
00
00
00
00
00
00
00
00
00
00
00
00
ENDCHAR
STARTCHAR C3a3
ENCODING 10847
SWIDTH 480 0
DWIDTH 8 0
BBX 8 16 0 -2
BITMAP
00
00
00
a3
00
00
00
00
00
00
00
00
00
00
00
00
ENDCHAR
STARTCHAR C3a4
ENCODING 10848
SWIDTH 480 0
DWIDTH 8 0
BBX 8 16 0 -2
BITMAP
00
00
00
a4
00
00
00
00
00
00
00
00
00
00
00
00
ENDCHAR
STARTCHAR C3a5
ENCODING 10849
SWIDTH 480 0
DWIDTH 8 0
BBX 8 16 0 -2
BITMAP
00
00
00
a5
00
00
00
00
00
00
00
00
00
00
00
00
ENDCHAR
STARTCHAR C3a6
ENCODING 10850
SWIDTH 480 0
DWIDTH 8 0
BBX 8 16 0 -2
BITMAP
00
00
00
a6
00
00
00
00
00
00
00
00
00
00
00
00
ENDCHAR
STARTCHAR C3a7
ENCODING 10851
SWIDTH 480 0
DWIDTH 8 0
BBX 8 16 0 -2
BITMAP
00
00
00
a7
00
00
00
00
00
00
00
00
00
00
00
00
ENDCHAR
STARTCHAR C3a8
ENCODING 10852
SWIDTH 480 0
DWIDTH 8 0
BBX 8 16 0 -2
BITMAP
00
00
00
a8
00
00
00
00
00
00
00
00
00
00
00
00
ENDCHAR
STARTCHAR C3a9
ENCODING 10853
SWIDTH 480 0
DWIDTH 8 0
BBX 8 16 0 -2
BITMAP
00
00
00
a9
00
00
00
00
00
00
00
00
00
00
00
00
ENDCHAR
STARTCHAR C3aa
ENCODING 10854
SWIDTH 480 0
DWIDTH 8 0
BBX 8 16 0 -2
BITMAP
00
00
00
aa
00
00
00
00
00
00
00
00
00
00
00
00
ENDCHAR
STARTCHAR C3ab
ENCODING 10855
SWIDTH 480 0
DWIDTH 8 0
BBX 8 16 0 -2
BITMAP
00
00
00
ab
00
00
00
00
00
00
00
00
00
00
00
00
ENDCHAR
STARTCHAR C3ac
ENCODING 10856
SWIDTH 480 0
DWIDTH 8 0
BBX 8 16 0 -2
BITMAP
00
00
00
ac
00
00
00
00
00
00
00
00
00
00
00
00
ENDCHAR
STARTCHAR C3ad
ENCODING 10857
SWIDTH 480 0
DWIDTH 8 0
BBX 8 16 0 -2
BITMAP
00
00
00
ad
00
00
00
00
00
00
00
00
00
00
00
00
ENDCHAR
STARTCHAR C3ae
ENCODING 10858
SWIDTH 480 0
DWIDTH 8 0
BBX 8 16 0 -2
BITMAP
00
00
00
ae
00
00
00
00
00
00
00
00
00
00
00
00
ENDCHAR
STARTCHAR C3af
ENCODING 10859
SWIDTH 480 0
DWIDTH 8 0
BBX 8 16 0 -2
BITMAP
00
00
00
af
00
00
00
00
00
00
00
00
00
00
00
00
ENDCHAR
STARTCHAR C3b0
ENCODING 10860
SWIDTH 480 0
DWIDTH 8 0
BBX 8 16 0 -2
BITMAP
00
00
00
b0
00
00
00
00
00
00
00
00
00
00
00
00
ENDCHAR
STARTCHAR C3b1
ENCODING 10861
SWIDTH 480 0
DWIDTH 8 0
BBX 8 16 0 -2
BITMAP
00
00
00
b1
00
00
00
00
00
00
00
00
00
00
00
00
ENDCHAR
STARTCHAR C3b2
ENCODING 10862
SWIDTH 480 0
DWIDTH 8 0
BBX 8 16 0 -2
BITMAP
00
00
00
b2
00
00
00
00
00
00
00
00
00
00
00
00
ENDCHAR
STARTCHAR C3b3
ENCODING 10863
SWIDTH 480 0
DWIDTH 8 0
BBX 8 16 0 -2
BITMAP
00
00
00
b3
00
00
00
00
00
00
00
00
00
00
00
00
ENDCHAR
STARTCHAR C3b4
ENCODING 10864
SWIDTH 480 0
DWIDTH 8 0
BBX 8 16 0 -2
BITMAP
00
00
00
b4
00
00
00
00
00
00
00
00
00
00
00
00
ENDCHAR
STARTCHAR C3b5
ENCODING 10865
SWIDTH 480 0
DWIDTH 8 0
BBX 8 16 0 -2
BITMAP
00
00
00
b5
00
00
00
00
00
00
00
00
00
00
00
00
ENDCHAR
STARTCHAR C3b6
ENCODING 10866
SWIDTH 480 0
DWIDTH 8 0
BBX 8 16 0 -2
BITMAP
00
00
00
b6
00
00
00
00
00
00
00
00
00
00
00
00
ENDCHAR
STARTCHAR C3b7
ENCODING 10867
SWIDTH 480 0
DWIDTH 8 0
BBX 8 16 0 -2
BITMAP
00
00
00
b7
00
00
00
00
00
00
00
00
00
00
00
00
ENDCHAR
STARTCHAR C3b8
ENCODING 10868
SWIDTH 480 0
DWIDTH 8 0
BBX 8 16 0 -2
BITMAP
00
00
00
b8
00
00
00
00
00
00
00
00
00
00
00
00
ENDCHAR
STARTCHAR C3b9
ENCODING 10869
SWIDTH 480 0
DWIDTH 8 0
BBX 8 16 0 -2
BITMAP
00
00
00
b9
00
00
00
00
00
00
00
00
00
00
00
00
ENDCHAR
STARTCHAR C3ba
ENCODING 10870
SWIDTH 480 0
DWIDTH 8 0
BBX 8 16 0 -2
BITMAP
00
00
00
ba
00
00
00
00
00
00
00
00
00
00
00
00
ENDCHAR
STARTCHAR C3bb
ENCODING 10871
SWIDTH 480 0
DWIDTH 8 0
BBX 8 16 0 -2
BITMAP
00
00
00
bb
00
00
00
00
00
00
00
00
00
00
00
00
ENDCHAR
STARTCHAR C3bc
ENCODING 10872
SWIDTH 480 0
DWIDTH 8 0
BBX 8 16 0 -2
BITMAP
00
00
00
bc
00
00
00
00
00
00
00
00
00
00
00
00
ENDCHAR
STARTCHAR C3bd
ENCODING 10873
SWIDTH 480 0
DWIDTH 8 0
BBX 8 16 0 -2
BITMAP
00
00
00
bd
00
00
00
00
00
00
00
00
00
00
00
00
ENDCHAR
STARTCHAR C3be
ENCODING 10874
SWIDTH 480 0
DWIDTH 8 0
BBX 8 16 0 -2
BITMAP
00
00
00
be
00
00
00
00
00
00
00
00
00
00
00
00
ENDCHAR
STARTCHAR C3bf
ENCODING 10875
SWIDTH 480 0
DWIDTH 8 0
BBX 8 16 0 -2
BITMAP
00
00
00
bf
00
00
00
00
00
00
00
00
00
00
00
00
ENDCHAR
STARTCHAR C3c0
ENCODING 10876
SWIDTH 480 0
DWIDTH 8 0
BBX 8 16 0 -2
BITMAP
00
00
00
c0
00
00
00
00
00
00
00
00
00
00
00
00
ENDCHAR
STARTCHAR C3c1
ENCODING 10877
SWIDTH 480 0
DWIDTH 8 0
BBX 8 16 0 -2
BITMAP
00
00
00
c1
00
00
00
00
00
00
00
00
00
00
00
00
ENDCHAR
STARTCHAR C3c2
ENCODING 10878
SWIDTH 480 0
DWIDTH 8 0
BBX 8 16 0 -2
BITMAP
00
00
00
c2
00
00
00
00
00
00
00
00
00
00
00
00
ENDCHAR
STARTCHAR C3c3
ENCODING 10879
SWIDTH 480 0
DWIDTH 8 0
BBX 8 16 0 -2
BITMAP
00
00
00
c3
00
00
00
00
00
00
00
00
00
00
00
00
ENDCHAR
STARTCHAR C3c4
ENCODING 11040
SWIDTH 480 0
DWIDTH 8 0
BBX 8 16 0 -2
BITMAP
00
00
00
c4
00
00
00
00
00
00
00
00
00
00
00
00
ENDCHAR
STARTCHAR C3c5
ENCODING 11041
SWIDTH 480 0
DWIDTH 8 0
BBX 8 16 0 -2
BITMAP
00
00
00
c5
00
00
00
00
00
00
00
00
00
00
00
00
ENDCHAR
STARTCHAR C3c6
ENCODING 11042
SWIDTH 480 0
DWIDTH 8 0
BBX 8 16 0 -2
BITMAP
00
00
00
c6
00
00
00
00
00
00
00
00
00
00
00
00
ENDCHAR
STARTCHAR C3c7
ENCODING 11043
SWIDTH 480 0
DWIDTH 8 0
BBX 8 16 0 -2
BITMAP
00
00
00
c7
00
00
00
00
00
00
00
00
00
00
00
00
ENDCHAR
STARTCHAR C3c8
ENCODING 11044
SWIDTH 480 0
DWIDTH 8 0
BBX 8 16 0 -2
BITMAP
00
00
00
c8
00
00
00
00
00
00
00
00
00
00
00
00
ENDCHAR
STARTCHAR C3c9
ENCODING 11045
SWIDTH 480 0
DWIDTH 8 0
BBX 8 16 0 -2
BITMAP
00
00
00
c9
00
00
00
00
00
00
00
00
00
00
00
00
ENDCHAR
STARTCHAR C3ca
ENCODING 11046
SWIDTH 480 0
DWIDTH 8 0
BBX 8 16 0 -2
BITMAP
00
00
00
ca
00
00
00
00
00
00
00
00
00
00
00
00
ENDCHAR
STARTCHAR C3cb
ENCODING 11047
SWIDTH 480 0
DWIDTH 8 0
BBX 8 16 0 -2
BITMAP
00
00
00
cb
00
00
00
00
00
00
00
00
00
00
00
00
ENDCHAR
STARTCHAR C3cc
ENCODING 11048
SWIDTH 480 0
DWIDTH 8 0
BBX 8 16 0 -2
BITMAP
00
00
00
cc
00
00
00
00
00
00
00
00
00
00
00
00
ENDCHAR
STARTCHAR C3cd
ENCODING 11049
SWIDTH 480 0
DWIDTH 8 0
BBX 8 16 0 -2
BITMAP
00
00
00
cd
00
00
00
00
00
00
00
00
00
00
00
00
ENDCHAR
STARTCHAR C3ce
ENCODING 11050
SWIDTH 480 0
DWIDTH 8 0
BBX 8 16 0 -2
BITMAP
00
00
00
ce
00
00
00
00
00
00
00
00
00
00
00
00
ENDCHAR
STARTCHAR C3cf
ENCODING 11051
SWIDTH 480 0
DWIDTH 8 0
BBX 8 16 0 -2
BITMAP
00
00
00
cf
00
00
00
00
00
00
00
00
00
00
00
00
ENDCHAR
STARTCHAR C3d0
ENCODING 11052
SWIDTH 480 0
DWIDTH 8 0
BBX 8 16 0 -2
BITMAP
00
00
00
d0
00
00
00
00
00
00
00
00
00
00
00
00
ENDCHAR
STARTCHAR C3d1
ENCODING 11053
SWIDTH 480 0
DWIDTH 8 0
BBX 8 16 0 -2
BITMAP
00
00
00
d1
00
00
00
00
00
00
00
00
00
00
00
00
ENDCHAR
STARTCHAR C3d2
ENCODING 11054
SWIDTH 480 0
DWIDTH 8 0
BBX 8 16 0 -2
BITMAP
00
00
00
d2
00
00
00
00
00
00
00
00
00
00
00
00
ENDCHAR
STARTCHAR C3d3
ENCODING 11055
SWIDTH 480 0
DWIDTH 8 0
BBX 8 16 0 -2
BITMAP
00
00
00
d3
00
00
00
00
00
00
00
00
00
00
00
00
ENDCHAR
STARTCHAR C3d4
ENCODING 11056
SWIDTH 480 0
DWIDTH 8 0
BBX 8 16 0 -2
BITMAP
00
00
00
d4
00
00
00
00
00
00
00
00
00
00
00
00
ENDCHAR
STARTCHAR C3d5
ENCODING 11057
SWIDTH 480 0
DWIDTH 8 0
BBX 8 16 0 -2
BITMAP
00
00
00
d5
00
00
00
00
00
00
00
00
00
00
00
00
ENDCHAR
STARTCHAR C3d6
ENCODING 11058
SWIDTH 480 0
DWIDTH 8 0
BBX 8 16 0 -2
BITMAP
00
00
00
d6
00
00
00
00
00
00
00
00
00
00
00
00
ENDCHAR
STARTCHAR C3d7
ENCODING 11059
SWIDTH 480 0
DWIDTH 8 0
BBX 8 16 0 -2
BITMAP
00
00
00
d7
00
00
00
00
00
00
00
00
00
00
00
00
ENDCHAR
STARTCHAR C3d8
ENCODING 11060
SWIDTH 480 0
DWIDTH 8 0
BBX 8 16 0 -2
BITMAP
00
00
00
d8
00
00
00
00
00
00
00
00
00
00
00
00
ENDCHAR
STARTCHAR C3d9
ENCODING 11061
SWIDTH 480 0
DWIDTH 8 0
BBX 8 16 0 -2
BITMAP
00
00
00
d9
00
00
00
00
00
00
00
00
00
00
00
00
ENDCHAR
STARTCHAR C3da
ENCODING 11062
SWIDTH 480 0
DWIDTH 8 0
BBX 8 16 0 -2
BITMAP
00
00
00
da
00
00
00
00
00
00
00
00
00
00
00
00
ENDCHAR
STARTCHAR C3db
ENCODING 11063
SWIDTH 480 0
DWIDTH 8 0
BBX 8 16 0 -2
BITMAP
00
00
00
db
00
00
00
00
00
00
00
00
00
00
00
00
ENDCHAR
STARTCHAR C3dc
ENCODING 11064
SWIDTH 480 0
DWIDTH 8 0
BBX 8 16 0 -2
BITMAP
00
00
00
dc
00
00
00
00
00
00
00
00
00
00
00
00
ENDCHAR
STARTCHAR C3dd
ENCODING 11065
SWIDTH 480 0
DWIDTH 8 0
BBX 8 16 0 -2
BITMAP
00
00
00
dd
00
00
00
00
00
00
00
00
00
00
00
00
ENDCHAR
STARTCHAR C3de
ENCODING 11066
SWIDTH 480 0
DWIDTH 8 0
BBX 8 16 0 -2
BITMAP
00
00
00
de
00
00
00
00
00
00
00
00
00
00
00
00
ENDCHAR
STARTCHAR C3df
ENCODING 11067
SWIDTH 480 0
DWIDTH 8 0
BBX 8 16 0 -2
BITMAP
00
00
00
df
00
00
00
00
00
00
00
00
00
00
00
00
ENDCHAR
STARTCHAR C3e0
ENCODING 11068
SWIDTH 480 0
DWIDTH 8 0
BBX 8 16 0 -2
BITMAP
00
00
00
e0
00
00
00
00
00
00
00
00
00
00
00
00
ENDCHAR
STARTCHAR C3e1
ENCODING 11069
SWIDTH 480 0
DWIDTH 8 0
BBX 8 16 0 -2
BITMAP
00
00
00
e1
00
00
00
00
00
00
00
00
00
00
00
00
ENDCHAR
STARTCHAR C3e2
ENCODING 11070
SWIDTH 480 0
DWIDTH 8 0
BBX 8 16 0 -2
BITMAP
00
00
00
e2
00
00
00
00
00
00
00
00
00
00
00
00
ENDCHAR
STARTCHAR C3e3
ENCODING 11071
SWIDTH 480 0
DWIDTH 8 0
BBX 8 16 0 -2
BITMAP
00
00
00
e3
00
00
00
00
00
00
00
00
00
00
00
00
ENDCHAR
STARTCHAR C3e4
ENCODING 11072
SWIDTH 480 0
DWIDTH 8 0
BBX 8 16 0 -2
BITMAP
00
00
00
e4
00
00
00
00
00
00
00
00
00
00
00
00
ENDCHAR
STARTCHAR C3e5
ENCODING 11073
SWIDTH 480 0
DWIDTH 8 0
BBX 8 16 0 -2
BITMAP
00
00
00
e5
00
00
00
00
00
00
00
00
00
00
00
00
ENDCHAR
STARTCHAR C3e6
ENCODING 11074
SWIDTH 480 0
DWIDTH 8 0
BBX 8 16 0 -2
BITMAP
00
00
00
e6
00
00
00
00
00
00
00
00
00
00
00
00
ENDCHAR
STARTCHAR C3e7
ENCODING 11075
SWIDTH 480 0
DWIDTH 8 0
BBX 8 16 0 -2
BITMAP
00
00
00
e7
00
00
00
00
00
00
00
00
00
00
00
00
ENDCHAR
STARTCHAR C3e8
ENCODING 11076
SWIDTH 480 0
DWIDTH 8 0
BBX 8 16 0 -2
BITMAP
00
00
00
e8
00
00
00
00
00
00
00
00
00
00
00
00
ENDCHAR
STARTCHAR C3e9
ENCODING 11077
SWIDTH 480 0
DWIDTH 8 0
BBX 8 16 0 -2
BITMAP
00
00
00
e9
00
00
00
00
00
00
00
00
00
00
00
00
ENDCHAR
STARTCHAR C3ea
ENCODING 11078
SWIDTH 480 0
DWIDTH 8 0
BBX 8 16 0 -2
BITMAP
00
00
00
ea
00
00
00
00
00
00
00
00
00
00
00
00
ENDCHAR
STARTCHAR C3eb
ENCODING 11079
SWIDTH 480 0
DWIDTH 8 0
BBX 8 16 0 -2
BITMAP
00
00
00
eb
00
00
00
00
00
00
00
00
00
00
00
00
ENDCHAR
STARTCHAR C3ec
ENCODING 11080
SWIDTH 480 0
DWIDTH 8 0
BBX 8 16 0 -2
BITMAP
00
00
00
ec
00
00
00
00
00
00
00
00
00
00
00
00
ENDCHAR
STARTCHAR C3ed
ENCODING 11081
SWIDTH 480 0
DWIDTH 8 0
BBX 8 16 0 -2
BITMAP
00
00
00
ed
00
00
00
00
00
00
00
00
00
00
00
00
ENDCHAR
STARTCHAR C3ee
ENCODING 11082
SWIDTH 480 0
DWIDTH 8 0
BBX 8 16 0 -2
BITMAP
00
00
00
ee
00
00
00
00
00
00
00
00
00
00
00
00
ENDCHAR
STARTCHAR C3ef
ENCODING 11083
SWIDTH 480 0
DWIDTH 8 0
BBX 8 16 0 -2
BITMAP
00
00
00
ef
00
00
00
00
00
00
00
00
00
00
00
00
ENDCHAR
STARTCHAR C3f0
ENCODING 11084
SWIDTH 480 0
DWIDTH 8 0
BBX 8 16 0 -2
BITMAP
00
00
00
f0
00
00
00
00
00
00
00
00
00
00
00
00
ENDCHAR
STARTCHAR C3f1
ENCODING 11085
SWIDTH 480 0
DWIDTH 8 0
BBX 8 16 0 -2
BITMAP
00
00
00
f1
00
00
00
00
00
00
00
00
00
00
00
00
ENDCHAR
STARTCHAR C3f2
ENCODING 11086
SWIDTH 480 0
DWIDTH 8 0
BBX 8 16 0 -2
BITMAP
00
00
00
f2
00
00
00
00
00
00
00
00
00
00
00
00
ENDCHAR
STARTCHAR C3f3
ENCODING 11087
SWIDTH 480 0
DWIDTH 8 0
BBX 8 16 0 -2
BITMAP
00
00
00
f3
00
00
00
00
00
00
00
00
00
00
00
00
ENDCHAR
STARTCHAR C3f4
ENCODING 11088
SWIDTH 480 0
DWIDTH 8 0
BBX 8 16 0 -2
BITMAP
00
00
00
f4
00
00
00
00
00
00
00
00
00
00
00
00
ENDCHAR
STARTCHAR C3f5
ENCODING 11089
SWIDTH 480 0
DWIDTH 8 0
BBX 8 16 0 -2
BITMAP
00
00
00
f5
00
00
00
00
00
00
00
00
00
00
00
00
ENDCHAR
STARTCHAR C3f6
ENCODING 11090
SWIDTH 480 0
DWIDTH 8 0
BBX 8 16 0 -2
BITMAP
00
00
00
f6
00
00
00
00
00
00
00
00
00
00
00
00
ENDCHAR
STARTCHAR C3f7
ENCODING 11091
SWIDTH 480 0
DWIDTH 8 0
BBX 8 16 0 -2
BITMAP
00
00
00
f7
00
00
00
00
00
00
00
00
00
00
00
00
ENDCHAR
STARTCHAR C3f8
ENCODING 11092
SWIDTH 480 0
DWIDTH 8 0
BBX 8 16 0 -2
BITMAP
00
00
00
f8
00
00
00
00
00
00
00
00
00
00
00
00
ENDCHAR
STARTCHAR C3f9
ENCODING 11093
SWIDTH 480 0
DWIDTH 8 0
BBX 8 16 0 -2
BITMAP
00
00
00
f9
00
00
00
00
00
00
00
00
00
00
00
00
ENDCHAR
STARTCHAR C3fa
ENCODING 11094
SWIDTH 480 0
DWIDTH 8 0
BBX 8 16 0 -2
BITMAP
00
00
00
fa
00
00
00
00
00
00
00
00
00
00
00
00
ENDCHAR
STARTCHAR C3fb
ENCODING 11095
SWIDTH 480 0
DWIDTH 8 0
BBX 8 16 0 -2
BITMAP
00
00
00
fb
00
00
00
00
00
00
00
00
00
00
00
00
ENDCHAR
STARTCHAR C3fc
ENCODING 11096
SWIDTH 480 0
DWIDTH 8 0
BBX 8 16 0 -2
BITMAP
00
00
00
fc
00
00
00
00
00
00
00
00
00
00
00
00
ENDCHAR
STARTCHAR C3fd
ENCODING 11097
SWIDTH 480 0
DWIDTH 8 0
BBX 8 16 0 -2
BITMAP
00
00
00
fd
00
00
00
00
00
00
00
00
00
00
00
00
ENDCHAR
STARTCHAR C3fe
ENCODING 11098
SWIDTH 480 0
DWIDTH 8 0
BBX 8 16 0 -2
BITMAP
00
00
00
fe
00
00
00
00
00
00
00
00
00
00
00
00
ENDCHAR
STARTCHAR C3ff
ENCODING 11099
SWIDTH 480 0
DWIDTH 8 0
BBX 8 16 0 -2
BITMAP
00
00
00
ff
00
00
00
00
00
00
00
00
00
00
00
00
ENDCHAR
STARTCHAR C401
ENCODING 11100
SWIDTH 480 0
DWIDTH 8 0
BBX 8 16 0 -2
BITMAP
00
00
00
00
01
00
00
00
00
00
00
00
00
00
00
00
ENDCHAR
STARTCHAR C402
ENCODING 11101
SWIDTH 480 0
DWIDTH 8 0
BBX 8 16 0 -2
BITMAP
00
00
00
00
02
00
00
00
00
00
00
00
00
00
00
00
ENDCHAR
STARTCHAR C403
ENCODING 11102
SWIDTH 480 0
DWIDTH 8 0
BBX 8 16 0 -2
BITMAP
00
00
00
00
03
00
00
00
00
00
00
00
00
00
00
00
ENDCHAR
STARTCHAR C404
ENCODING 11103
SWIDTH 480 0
DWIDTH 8 0
BBX 8 16 0 -2
BITMAP
00
00
00
00
04
00
00
00
00
00
00
00
00
00
00
00
ENDCHAR
STARTCHAR C405
ENCODING 11104
SWIDTH 480 0
DWIDTH 8 0
BBX 8 16 0 -2
BITMAP
00
00
00
00
05
00
00
00
00
00
00
00
00
00
00
00
ENDCHAR
STARTCHAR C406
ENCODING 11105
SWIDTH 480 0
DWIDTH 8 0
BBX 8 16 0 -2
BITMAP
00
00
00
00
06
00
00
00
00
00
00
00
00
00
00
00
ENDCHAR
STARTCHAR C407
ENCODING 11106
SWIDTH 480 0
DWIDTH 8 0
BBX 8 16 0 -2
BITMAP
00
00
00
00
07
00
00
00
00
00
00
00
00
00
00
00
ENDCHAR
STARTCHAR C408
ENCODING 11107
SWIDTH 480 0
DWIDTH 8 0
BBX 8 16 0 -2
BITMAP
00
00
00
00
08
00
00
00
00
00
00
00
00
00
00
00
ENDCHAR
STARTCHAR C409
ENCODING 11108
SWIDTH 480 0
DWIDTH 8 0
BBX 8 16 0 -2
BITMAP
00
00
00
00
09
00
00
00
00
00
00
00
00
00
00
00
ENDCHAR
STARTCHAR C40a
ENCODING 11109
SWIDTH 480 0
DWIDTH 8 0
BBX 8 16 0 -2
BITMAP
00
00
00
00
0a
00
00
00
00
00
00
00
00
00
00
00
ENDCHAR
STARTCHAR C40b
ENCODING 11110
SWIDTH 480 0
DWIDTH 8 0
BBX 8 16 0 -2
BITMAP
00
00
00
00
0b
00
00
00
00
00
00
00
00
00
00
00
ENDCHAR
STARTCHAR C40c
ENCODING 11111
SWIDTH 480 0
DWIDTH 8 0
BBX 8 16 0 -2
BITMAP
00
00
00
00
0c
00
00
00
00
00
00
00
00
00
00
00
ENDCHAR
STARTCHAR C40d
ENCODING 11112
SWIDTH 480 0
DWIDTH 8 0
BBX 8 16 0 -2
BITMAP
00
00
00
00
0d
00
00
00
00
00
00
00
00
00
00
00
ENDCHAR
STARTCHAR C40e
ENCODING 11113
SWIDTH 480 0
DWIDTH 8 0
BBX 8 16 0 -2
BITMAP
00
00
00
00
0e
00
00
00
00
00
00
00
00
00
00
00
ENDCHAR
STARTCHAR C40f
ENCODING 11114
SWIDTH 480 0
DWIDTH 8 0
BBX 8 16 0 -2
BITMAP
00
00
00
00
0f
00
00
00
00
00
00
00
00
00
00
00
ENDCHAR
STARTCHAR C410
ENCODING 11115
SWIDTH 480 0
DWIDTH 8 0
BBX 8 16 0 -2
BITMAP
00
00
00
00
10
00
00
00
00
00
00
00
00
00
00
00
ENDCHAR
STARTCHAR C411
ENCODING 11116
SWIDTH 480 0
DWIDTH 8 0
BBX 8 16 0 -2
BITMAP
00
00
00
00
11
00
00
00
00
00
00
00
00
00
00
00
ENDCHAR
STARTCHAR C412
ENCODING 11117
SWIDTH 480 0
DWIDTH 8 0
BBX 8 16 0 -2
BITMAP
00
00
00
00
12
00
00
00
00
00
00
00
00
00
00
00
ENDCHAR
STARTCHAR C413
ENCODING 11118
SWIDTH 480 0
DWIDTH 8 0
BBX 8 16 0 -2
BITMAP
00
00
00
00
13
00
00
00
00
00
00
00
00
00
00
00
ENDCHAR
STARTCHAR C414
ENCODING 11119
SWIDTH 480 0
DWIDTH 8 0
BBX 8 16 0 -2
BITMAP
00
00
00
00
14
00
00
00
00
00
00
00
00
00
00
00
ENDCHAR
STARTCHAR C415
ENCODING 11120
SWIDTH 480 0
DWIDTH 8 0
BBX 8 16 0 -2
BITMAP
00
00
00
00
15
00
00
00
00
00
00
00
00
00
00
00
ENDCHAR
STARTCHAR C416
ENCODING 11121
SWIDTH 480 0
DWIDTH 8 0
BBX 8 16 0 -2
BITMAP
00
00
00
00
16
00
00
00
00
00
00
00
00
00
00
00
ENDCHAR
STARTCHAR C417
ENCODING 11122
SWIDTH 480 0
DWIDTH 8 0
BBX 8 16 0 -2
BITMAP
00
00
00
00
17
00
00
00
00
00
00
00
00
00
00
00
ENDCHAR
STARTCHAR C418
ENCODING 11123
SWIDTH 480 0
DWIDTH 8 0
BBX 8 16 0 -2
BITMAP
00
00
00
00
18
00
00
00
00
00
00
00
00
00
00
00
ENDCHAR
STARTCHAR C419
ENCODING 11124
SWIDTH 480 0
DWIDTH 8 0
BBX 8 16 0 -2
BITMAP
00
00
00
00
19
00
00
00
00
00
00
00
00
00
00
00
ENDCHAR
STARTCHAR C41a
ENCODING 11125
SWIDTH 480 0
DWIDTH 8 0
BBX 8 16 0 -2
BITMAP
00
00
00
00
1a
00
00
00
00
00
00
00
00
00
00
00
ENDCHAR
STARTCHAR C41b
ENCODING 11126
SWIDTH 480 0
DWIDTH 8 0
BBX 8 16 0 -2
BITMAP
00
00
00
00
1b
00
00
00
00
00
00
00
00
00
00
00
ENDCHAR
STARTCHAR C41c
ENCODING 11127
SWIDTH 480 0
DWIDTH 8 0
BBX 8 16 0 -2
BITMAP
00
00
00
00
1c
00
00
00
00
00
00
00
00
00
00
00
ENDCHAR
STARTCHAR C41d
ENCODING 11128
SWIDTH 480 0
DWIDTH 8 0
BBX 8 16 0 -2
BITMAP
00
00
00
00
1d
00
00
00
00
00
00
00
00
00
00
00
ENDCHAR
STARTCHAR C41e
ENCODING 11129
SWIDTH 480 0
DWIDTH 8 0
BBX 8 16 0 -2
BITMAP
00
00
00
00
1e
00
00
00
00
00
00
00
00
00
00
00
ENDCHAR
STARTCHAR C41f
ENCODING 11130
SWIDTH 480 0
DWIDTH 8 0
BBX 8 16 0 -2
BITMAP
00
00
00
00
1f
00
00
00
00
00
00
00
00
00
00
00
ENDCHAR
STARTCHAR C420
ENCODING 11131
SWIDTH 480 0
DWIDTH 8 0
BBX 8 16 0 -2
BITMAP
00
00
00
00
20
00
00
00
00
00
00
00
00
00
00
00
ENDCHAR
STARTCHAR C421
ENCODING 11132
SWIDTH 480 0
DWIDTH 8 0
BBX 8 16 0 -2
BITMAP
00
00
00
00
21
00
00
00
00
00
00
00
00
00
00
00
ENDCHAR
STARTCHAR C422
ENCODING 11133
SWIDTH 480 0
DWIDTH 8 0
BBX 8 16 0 -2
BITMAP
00
00
00
00
22
00
00
00
00
00
00
00
00
00
00
00
ENDCHAR
STARTCHAR C423
ENCODING 11134
SWIDTH 480 0
DWIDTH 8 0
BBX 8 16 0 -2
BITMAP
00
00
00
00
23
00
00
00
00
00
00
00
00
00
00
00
ENDCHAR
STARTCHAR C424
ENCODING 11135
SWIDTH 480 0
DWIDTH 8 0
BBX 8 16 0 -2
BITMAP
00
00
00
00
24
00
00
00
00
00
00
00
00
00
00
00
ENDCHAR
STARTCHAR C425
ENCODING 11296
SWIDTH 480 0
DWIDTH 8 0
BBX 8 16 0 -2
BITMAP
00
00
00
00
25
00
00
00
00
00
00
00
00
00
00
00
ENDCHAR
STARTCHAR C426
ENCODING 11297
SWIDTH 480 0
DWIDTH 8 0
BBX 8 16 0 -2
BITMAP
00
00
00
00
26
00
00
00
00
00
00
00
00
00
00
00
ENDCHAR
STARTCHAR C427
ENCODING 11298
SWIDTH 480 0
DWIDTH 8 0
BBX 8 16 0 -2
BITMAP
00
00
00
00
27
00
00
00
00
00
00
00
00
00
00
00
ENDCHAR
STARTCHAR C428
ENCODING 11299
SWIDTH 480 0
DWIDTH 8 0
BBX 8 16 0 -2
BITMAP
00
00
00
00
28
00
00
00
00
00
00
00
00
00
00
00
ENDCHAR
STARTCHAR C429
ENCODING 11300
SWIDTH 480 0
DWIDTH 8 0
BBX 8 16 0 -2
BITMAP
00
00
00
00
29
00
00
00
00
00
00
00
00
00
00
00
ENDCHAR
STARTCHAR C42a
ENCODING 11301
SWIDTH 480 0
DWIDTH 8 0
BBX 8 16 0 -2
BITMAP
00
00
00
00
2a
00
00
00
00
00
00
00
00
00
00
00
ENDCHAR
STARTCHAR C42b
ENCODING 11302
SWIDTH 480 0
DWIDTH 8 0
BBX 8 16 0 -2
BITMAP
00
00
00
00
2b
00
00
00
00
00
00
00
00
00
00
00
ENDCHAR
STARTCHAR C42c
ENCODING 11303
SWIDTH 480 0
DWIDTH 8 0
BBX 8 16 0 -2
BITMAP
00
00
00
00
2c
00
00
00
00
00
00
00
00
00
00
00
ENDCHAR
STARTCHAR C42d
ENCODING 11304
SWIDTH 480 0
DWIDTH 8 0
BBX 8 16 0 -2
BITMAP
00
00
00
00
2d
00
00
00
00
00
00
00
00
00
00
00
ENDCHAR
STARTCHAR C42e
ENCODING 11305
SWIDTH 480 0
DWIDTH 8 0
BBX 8 16 0 -2
BITMAP
00
00
00
00
2e
00
00
00
00
00
00
00
00
00
00
00
ENDCHAR
STARTCHAR C42f
ENCODING 11306
SWIDTH 480 0
DWIDTH 8 0
BBX 8 16 0 -2
BITMAP
00
00
00
00
2f
00
00
00
00
00
00
00
00
00
00
00
ENDCHAR
STARTCHAR C430
ENCODING 11307
SWIDTH 480 0
DWIDTH 8 0
BBX 8 16 0 -2
BITMAP
00
00
00
00
30
00
00
00
00
00
00
00
00
00
00
00
ENDCHAR
STARTCHAR C431
ENCODING 11308
SWIDTH 480 0
DWIDTH 8 0
BBX 8 16 0 -2
BITMAP
00
00
00
00
31
00
00
00
00
00
00
00
00
00
00
00
ENDCHAR
STARTCHAR C432
ENCODING 11309
SWIDTH 480 0
DWIDTH 8 0
BBX 8 16 0 -2
BITMAP
00
00
00
00
32
00
00
00
00
00
00
00
00
00
00
00
ENDCHAR
STARTCHAR C433
ENCODING 11310
SWIDTH 480 0
DWIDTH 8 0
BBX 8 16 0 -2
BITMAP
00
00
00
00
33
00
00
00
00
00
00
00
00
00
00
00
ENDCHAR
STARTCHAR C434
ENCODING 11311
SWIDTH 480 0
DWIDTH 8 0
BBX 8 16 0 -2
BITMAP
00
00
00
00
34
00
00
00
00
00
00
00
00
00
00
00
ENDCHAR
STARTCHAR C435
ENCODING 11312
SWIDTH 480 0
DWIDTH 8 0
BBX 8 16 0 -2
BITMAP
00
00
00
00
35
00
00
00
00
00
00
00
00
00
00
00
ENDCHAR
STARTCHAR C436
ENCODING 11313
SWIDTH 480 0
DWIDTH 8 0
BBX 8 16 0 -2
BITMAP
00
00
00
00
36
00
00
00
00
00
00
00
00
00
00
00
ENDCHAR
STARTCHAR C437
ENCODING 11314
SWIDTH 480 0
DWIDTH 8 0
BBX 8 16 0 -2
BITMAP
00
00
00
00
37
00
00
00
00
00
00
00
00
00
00
00
ENDCHAR
STARTCHAR C438
ENCODING 11315
SWIDTH 480 0
DWIDTH 8 0
BBX 8 16 0 -2
BITMAP
00
00
00
00
38
00
00
00
00
00
00
00
00
00
00
00
ENDCHAR
STARTCHAR C439
ENCODING 11316
SWIDTH 480 0
DWIDTH 8 0
BBX 8 16 0 -2
BITMAP
00
00
00
00
39
00
00
00
00
00
00
00
00
00
00
00
ENDCHAR
STARTCHAR C43a
ENCODING 11317
SWIDTH 480 0
DWIDTH 8 0
BBX 8 16 0 -2
BITMAP
00
00
00
00
3a
00
00
00
00
00
00
00
00
00
00
00
ENDCHAR
STARTCHAR C43b
ENCODING 11318
SWIDTH 480 0
DWIDTH 8 0
BBX 8 16 0 -2
BITMAP
00
00
00
00
3b
00
00
00
00
00
00
00
00
00
00
00
ENDCHAR
STARTCHAR C43c
ENCODING 11319
SWIDTH 480 0
DWIDTH 8 0
BBX 8 16 0 -2
BITMAP
00
00
00
00
3c
00
00
00
00
00
00
00
00
00
00
00
ENDCHAR
STARTCHAR C43d
ENCODING 11320
SWIDTH 480 0
DWIDTH 8 0
BBX 8 16 0 -2
BITMAP
00
00
00
00
3d
00
00
00
00
00
00
00
00
00
00
00
ENDCHAR
STARTCHAR C43e
ENCODING 11321
SWIDTH 480 0
DWIDTH 8 0
BBX 8 16 0 -2
BITMAP
00
00
00
00
3e
00
00
00
00
00
00
00
00
00
00
00
ENDCHAR
STARTCHAR C43f
ENCODING 11322
SWIDTH 480 0
DWIDTH 8 0
BBX 8 16 0 -2
BITMAP
00
00
00
00
3f
00
00
00
00
00
00
00
00
00
00
00
ENDCHAR
STARTCHAR C440
ENCODING 11323
SWIDTH 480 0
DWIDTH 8 0
BBX 8 16 0 -2
BITMAP
00
00
00
00
40
00
00
00
00
00
00
00
00
00
00
00
ENDCHAR
STARTCHAR C441
ENCODING 11324
SWIDTH 480 0
DWIDTH 8 0
BBX 8 16 0 -2
BITMAP
00
00
00
00
41
00
00
00
00
00
00
00
00
00
00
00
ENDCHAR
STARTCHAR C442
ENCODING 11325
SWIDTH 480 0
DWIDTH 8 0
BBX 8 16 0 -2
BITMAP
00
00
00
00
42
00
00
00
00
00
00
00
00
00
00
00
ENDCHAR
STARTCHAR C443
ENCODING 11326
SWIDTH 480 0
DWIDTH 8 0
BBX 8 16 0 -2
BITMAP
00
00
00
00
43
00
00
00
00
00
00
00
00
00
00
00
ENDCHAR
STARTCHAR C444
ENCODING 11327
SWIDTH 480 0
DWIDTH 8 0
BBX 8 16 0 -2
BITMAP
00
00
00
00
44
00
00
00
00
00
00
00
00
00
00
00
ENDCHAR
STARTCHAR C445
ENCODING 11328
SWIDTH 480 0
DWIDTH 8 0
BBX 8 16 0 -2
BITMAP
00
00
00
00
45
00
00
00
00
00
00
00
00
00
00
00
ENDCHAR
STARTCHAR C446
ENCODING 11329
SWIDTH 480 0
DWIDTH 8 0
BBX 8 16 0 -2
BITMAP
00
00
00
00
46
00
00
00
00
00
00
00
00
00
00
00
ENDCHAR
STARTCHAR C447
ENCODING 11330
SWIDTH 480 0
DWIDTH 8 0
BBX 8 16 0 -2
BITMAP
00
00
00
00
47
00
00
00
00
00
00
00
00
00
00
00
ENDCHAR
STARTCHAR C448
ENCODING 11331
SWIDTH 480 0
DWIDTH 8 0
BBX 8 16 0 -2
BITMAP
00
00
00
00
48
00
00
00
00
00
00
00
00
00
00
00
ENDCHAR
STARTCHAR C449
ENCODING 11332
SWIDTH 480 0
DWIDTH 8 0
BBX 8 16 0 -2
BITMAP
00
00
00
00
49
00
00
00
00
00
00
00
00
00
00
00
ENDCHAR
STARTCHAR C44a
ENCODING 11333
SWIDTH 480 0
DWIDTH 8 0
BBX 8 16 0 -2
BITMAP
00
00
00
00
4a
00
00
00
00
00
00
00
00
00
00
00
ENDCHAR
STARTCHAR C44b
ENCODING 11334
SWIDTH 480 0
DWIDTH 8 0
BBX 8 16 0 -2
BITMAP
00
00
00
00
4b
00
00
00
00
00
00
00
00
00
00
00
ENDCHAR
STARTCHAR C44c
ENCODING 11335
SWIDTH 480 0
DWIDTH 8 0
BBX 8 16 0 -2
BITMAP
00
00
00
00
4c
00
00
00
00
00
00
00
00
00
00
00
ENDCHAR
STARTCHAR C44d
ENCODING 11336
SWIDTH 480 0
DWIDTH 8 0
BBX 8 16 0 -2
BITMAP
00
00
00
00
4d
00
00
00
00
00
00
00
00
00
00
00
ENDCHAR
STARTCHAR C44e
ENCODING 11337
SWIDTH 480 0
DWIDTH 8 0
BBX 8 16 0 -2
BITMAP
00
00
00
00
4e
00
00
00
00
00
00
00
00
00
00
00
ENDCHAR
STARTCHAR C44f
ENCODING 11338
SWIDTH 480 0
DWIDTH 8 0
BBX 8 16 0 -2
BITMAP
00
00
00
00
4f
00
00
00
00
00
00
00
00
00
00
00
ENDCHAR
STARTCHAR C450
ENCODING 11339
SWIDTH 480 0
DWIDTH 8 0
BBX 8 16 0 -2
BITMAP
00
00
00
00
50
00
00
00
00
00
00
00
00
00
00
00
ENDCHAR
STARTCHAR C451
ENCODING 11340
SWIDTH 480 0
DWIDTH 8 0
BBX 8 16 0 -2
BITMAP
00
00
00
00
51
00
00
00
00
00
00
00
00
00
00
00
ENDCHAR
STARTCHAR C452
ENCODING 11341
SWIDTH 480 0
DWIDTH 8 0
BBX 8 16 0 -2
BITMAP
00
00
00
00
52
00
00
00
00
00
00
00
00
00
00
00
ENDCHAR
STARTCHAR C453
ENCODING 11342
SWIDTH 480 0
DWIDTH 8 0
BBX 8 16 0 -2
BITMAP
00
00
00
00
53
00
00
00
00
00
00
00
00
00
00
00
ENDCHAR
STARTCHAR C454
ENCODING 11343
SWIDTH 480 0
DWIDTH 8 0
BBX 8 16 0 -2
BITMAP
00
00
00
00
54
00
00
00
00
00
00
00
00
00
00
00
ENDCHAR
STARTCHAR C455
ENCODING 11344
SWIDTH 480 0
DWIDTH 8 0
BBX 8 16 0 -2
BITMAP
00
00
00
00
55
00
00
00
00
00
00
00
00
00
00
00
ENDCHAR
STARTCHAR C456
ENCODING 11345
SWIDTH 480 0
DWIDTH 8 0
BBX 8 16 0 -2
BITMAP
00
00
00
00
56
00
00
00
00
00
00
00
00
00
00
00
ENDCHAR
STARTCHAR C457
ENCODING 11346
SWIDTH 480 0
DWIDTH 8 0
BBX 8 16 0 -2
BITMAP
00
00
00
00
57
00
00
00
00
00
00
00
00
00
00
00
ENDCHAR
STARTCHAR C458
ENCODING 11347
SWIDTH 480 0
DWIDTH 8 0
BBX 8 16 0 -2
BITMAP
00
00
00
00
58
00
00
00
00
00
00
00
00
00
00
00
ENDCHAR
STARTCHAR C459
ENCODING 11348
SWIDTH 480 0
DWIDTH 8 0
BBX 8 16 0 -2
BITMAP
00
00
00
00
59
00
00
00
00
00
00
00
00
00
00
00
ENDCHAR
STARTCHAR C45a
ENCODING 11349
SWIDTH 480 0
DWIDTH 8 0
BBX 8 16 0 -2
BITMAP
00
00
00
00
5a
00
00
00
00
00
00
00
00
00
00
00
ENDCHAR
STARTCHAR C45b
ENCODING 11350
SWIDTH 480 0
DWIDTH 8 0
BBX 8 16 0 -2
BITMAP
00
00
00
00
5b
00
00
00
00
00
00
00
00
00
00
00
ENDCHAR
STARTCHAR C45c
ENCODING 11351
SWIDTH 480 0
DWIDTH 8 0
BBX 8 16 0 -2
BITMAP
00
00
00
00
5c
00
00
00
00
00
00
00
00
00
00
00
ENDCHAR
STARTCHAR C45d
ENCODING 11352
SWIDTH 480 0
DWIDTH 8 0
BBX 8 16 0 -2
BITMAP
00
00
00
00
5d
00
00
00
00
00
00
00
00
00
00
00
ENDCHAR
STARTCHAR C45e
ENCODING 11353
SWIDTH 480 0
DWIDTH 8 0
BBX 8 16 0 -2
BITMAP
00
00
00
00
5e
00
00
00
00
00
00
00
00
00
00
00
ENDCHAR
STARTCHAR C45f
ENCODING 11354
SWIDTH 480 0
DWIDTH 8 0
BBX 8 16 0 -2
BITMAP
00
00
00
00
5f
00
00
00
00
00
00
00
00
00
00
00
ENDCHAR
STARTCHAR C460
ENCODING 11355
SWIDTH 480 0
DWIDTH 8 0
BBX 8 16 0 -2
BITMAP
00
00
00
00
60
00
00
00
00
00
00
00
00
00
00
00
ENDCHAR
STARTCHAR C461
ENCODING 11356
SWIDTH 480 0
DWIDTH 8 0
BBX 8 16 0 -2
BITMAP
00
00
00
00
61
00
00
00
00
00
00
00
00
00
00
00
ENDCHAR
STARTCHAR C462
ENCODING 11357
SWIDTH 480 0
DWIDTH 8 0
BBX 8 16 0 -2
BITMAP
00
00
00
00
62
00
00
00
00
00
00
00
00
00
00
00
ENDCHAR
STARTCHAR C463
ENCODING 11358
SWIDTH 480 0
DWIDTH 8 0
BBX 8 16 0 -2
BITMAP
00
00
00
00
63
00
00
00
00
00
00
00
00
00
00
00
ENDCHAR
STARTCHAR C464
ENCODING 11359
SWIDTH 480 0
DWIDTH 8 0
BBX 8 16 0 -2
BITMAP
00
00
00
00
64
00
00
00
00
00
00
00
00
00
00
00
ENDCHAR
STARTCHAR C465
ENCODING 11360
SWIDTH 480 0
DWIDTH 8 0
BBX 8 16 0 -2
BITMAP
00
00
00
00
65
00
00
00
00
00
00
00
00
00
00
00
ENDCHAR
STARTCHAR C466
ENCODING 11361
SWIDTH 480 0
DWIDTH 8 0
BBX 8 16 0 -2
BITMAP
00
00
00
00
66
00
00
00
00
00
00
00
00
00
00
00
ENDCHAR
STARTCHAR C467
ENCODING 11362
SWIDTH 480 0
DWIDTH 8 0
BBX 8 16 0 -2
BITMAP
00
00
00
00
67
00
00
00
00
00
00
00
00
00
00
00
ENDCHAR
STARTCHAR C468
ENCODING 11363
SWIDTH 480 0
DWIDTH 8 0
BBX 8 16 0 -2
BITMAP
00
00
00
00
68
00
00
00
00
00
00
00
00
00
00
00
ENDCHAR
STARTCHAR C469
ENCODING 11364
SWIDTH 480 0
DWIDTH 8 0
BBX 8 16 0 -2
BITMAP
00
00
00
00
69
00
00
00
00
00
00
00
00
00
00
00
ENDCHAR
STARTCHAR C46a
ENCODING 11365
SWIDTH 480 0
DWIDTH 8 0
BBX 8 16 0 -2
BITMAP
00
00
00
00
6a
00
00
00
00
00
00
00
00
00
00
00
ENDCHAR
STARTCHAR C46b
ENCODING 11366
SWIDTH 480 0
DWIDTH 8 0
BBX 8 16 0 -2
BITMAP
00
00
00
00
6b
00
00
00
00
00
00
00
00
00
00
00
ENDCHAR
STARTCHAR C46c
ENCODING 11367
SWIDTH 480 0
DWIDTH 8 0
BBX 8 16 0 -2
BITMAP
00
00
00
00
6c
00
00
00
00
00
00
00
00
00
00
00
ENDCHAR
STARTCHAR C46d
ENCODING 11368
SWIDTH 480 0
DWIDTH 8 0
BBX 8 16 0 -2
BITMAP
00
00
00
00
6d
00
00
00
00
00
00
00
00
00
00
00
ENDCHAR
STARTCHAR C46e
ENCODING 11369
SWIDTH 480 0
DWIDTH 8 0
BBX 8 16 0 -2
BITMAP
00
00
00
00
6e
00
00
00
00
00
00
00
00
00
00
00
ENDCHAR
STARTCHAR C46f
ENCODING 11370
SWIDTH 480 0
DWIDTH 8 0
BBX 8 16 0 -2
BITMAP
00
00
00
00
6f
00
00
00
00
00
00
00
00
00
00
00
ENDCHAR
STARTCHAR C470
ENCODING 11371
SWIDTH 480 0
DWIDTH 8 0
BBX 8 16 0 -2
BITMAP
00
00
00
00
70
00
00
00
00
00
00
00
00
00
00
00
ENDCHAR
STARTCHAR C471
ENCODING 11372
SWIDTH 480 0
DWIDTH 8 0
BBX 8 16 0 -2
BITMAP
00
00
00
00
71
00
00
00
00
00
00
00
00
00
00
00
ENDCHAR
STARTCHAR C472
ENCODING 11373
SWIDTH 480 0
DWIDTH 8 0
BBX 8 16 0 -2
BITMAP
00
00
00
00
72
00
00
00
00
00
00
00
00
00
00
00
ENDCHAR
STARTCHAR C473
ENCODING 11374
SWIDTH 480 0
DWIDTH 8 0
BBX 8 16 0 -2
BITMAP
00
00
00
00
73
00
00
00
00
00
00
00
00
00
00
00
ENDCHAR
STARTCHAR C474
ENCODING 11375
SWIDTH 480 0
DWIDTH 8 0
BBX 8 16 0 -2
BITMAP
00
00
00
00
74
00
00
00
00
00
00
00
00
00
00
00
ENDCHAR
STARTCHAR C475
ENCODING 11376
SWIDTH 480 0
DWIDTH 8 0
BBX 8 16 0 -2
BITMAP
00
00
00
00
75
00
00
00
00
00
00
00
00
00
00
00
ENDCHAR
STARTCHAR C476
ENCODING 11377
SWIDTH 480 0
DWIDTH 8 0
BBX 8 16 0 -2
BITMAP
00
00
00
00
76
00
00
00
00
00
00
00
00
00
00
00
ENDCHAR
STARTCHAR C477
ENCODING 11378
SWIDTH 480 0
DWIDTH 8 0
BBX 8 16 0 -2
BITMAP
00
00
00
00
77
00
00
00
00
00
00
00
00
00
00
00
ENDCHAR
STARTCHAR C478
ENCODING 11379
SWIDTH 480 0
DWIDTH 8 0
BBX 8 16 0 -2
BITMAP
00
00
00
00
78
00
00
00
00
00
00
00
00
00
00
00
ENDCHAR
STARTCHAR C479
ENCODING 11380
SWIDTH 480 0
DWIDTH 8 0
BBX 8 16 0 -2
BITMAP
00
00
00
00
79
00
00
00
00
00
00
00
00
00
00
00
ENDCHAR
STARTCHAR C47a
ENCODING 11381
SWIDTH 480 0
DWIDTH 8 0
BBX 8 16 0 -2
BITMAP
00
00
00
00
7a
00
00
00
00
00
00
00
00
00
00
00
ENDCHAR
STARTCHAR C47b
ENCODING 11382
SWIDTH 480 0
DWIDTH 8 0
BBX 8 16 0 -2
BITMAP
00
00
00
00
7b
00
00
00
00
00
00
00
00
00
00
00
ENDCHAR
STARTCHAR C47c
ENCODING 11383
SWIDTH 480 0
DWIDTH 8 0
BBX 8 16 0 -2
BITMAP
00
00
00
00
7c
00
00
00
00
00
00
00
00
00
00
00
ENDCHAR
STARTCHAR C47d
ENCODING 11384
SWIDTH 480 0
DWIDTH 8 0
BBX 8 16 0 -2
BITMAP
00
00
00
00
7d
00
00
00
00
00
00
00
00
00
00
00
ENDCHAR
STARTCHAR C47e
ENCODING 11385
SWIDTH 480 0
DWIDTH 8 0
BBX 8 16 0 -2
BITMAP
00
00
00
00
7e
00
00
00
00
00
00
00
00
00
00
00
ENDCHAR
STARTCHAR C47f
ENCODING 11386
SWIDTH 480 0
DWIDTH 8 0
BBX 8 16 0 -2
BITMAP
00
00
00
00
7f
00
00
00
00
00
00
00
00
00
00
00
ENDCHAR
STARTCHAR C480
ENCODING 11387
SWIDTH 480 0
DWIDTH 8 0
BBX 8 16 0 -2
BITMAP
00
00
00
00
80
00
00
00
00
00
00
00
00
00
00
00
ENDCHAR
STARTCHAR C481
ENCODING 11388
SWIDTH 480 0
DWIDTH 8 0
BBX 8 16 0 -2
BITMAP
00
00
00
00
81
00
00
00
00
00
00
00
00
00
00
00
ENDCHAR
STARTCHAR C482
ENCODING 11389
SWIDTH 480 0
DWIDTH 8 0
BBX 8 16 0 -2
BITMAP
00
00
00
00
82
00
00
00
00
00
00
00
00
00
00
00
ENDCHAR
STARTCHAR C483
ENCODING 11390
SWIDTH 480 0
DWIDTH 8 0
BBX 8 16 0 -2
BITMAP
00
00
00
00
83
00
00
00
00
00
00
00
00
00
00
00
ENDCHAR
STARTCHAR C484
ENCODING 11391
SWIDTH 480 0
DWIDTH 8 0
BBX 8 16 0 -2
BITMAP
00
00
00
00
84
00
00
00
00
00
00
00
00
00
00
00
ENDCHAR
STARTCHAR C485
ENCODING 11552
SWIDTH 480 0
DWIDTH 8 0
BBX 8 16 0 -2
BITMAP
00
00
00
00
85
00
00
00
00
00
00
00
00
00
00
00
ENDCHAR
STARTCHAR C486
ENCODING 11553
SWIDTH 480 0
DWIDTH 8 0
BBX 8 16 0 -2
BITMAP
00
00
00
00
86
00
00
00
00
00
00
00
00
00
00
00
ENDCHAR
STARTCHAR C487
ENCODING 11554
SWIDTH 480 0
DWIDTH 8 0
BBX 8 16 0 -2
BITMAP
00
00
00
00
87
00
00
00
00
00
00
00
00
00
00
00
ENDCHAR
STARTCHAR C488
ENCODING 11555
SWIDTH 480 0
DWIDTH 8 0
BBX 8 16 0 -2
BITMAP
00
00
00
00
88
00
00
00
00
00
00
00
00
00
00
00
ENDCHAR
STARTCHAR C489
ENCODING 11556
SWIDTH 480 0
DWIDTH 8 0
BBX 8 16 0 -2
BITMAP
00
00
00
00
89
00
00
00
00
00
00
00
00
00
00
00
ENDCHAR
STARTCHAR C48a
ENCODING 11557
SWIDTH 480 0
DWIDTH 8 0
BBX 8 16 0 -2
BITMAP
00
00
00
00
8a
00
00
00
00
00
00
00
00
00
00
00
ENDCHAR
STARTCHAR C48b
ENCODING 11558
SWIDTH 480 0
DWIDTH 8 0
BBX 8 16 0 -2
BITMAP
00
00
00
00
8b
00
00
00
00
00
00
00
00
00
00
00
ENDCHAR
STARTCHAR C48c
ENCODING 11559
SWIDTH 480 0
DWIDTH 8 0
BBX 8 16 0 -2
BITMAP
00
00
00
00
8c
00
00
00
00
00
00
00
00
00
00
00
ENDCHAR
STARTCHAR C48d
ENCODING 11560
SWIDTH 480 0
DWIDTH 8 0
BBX 8 16 0 -2
BITMAP
00
00
00
00
8d
00
00
00
00
00
00
00
00
00
00
00
ENDCHAR
STARTCHAR C48e
ENCODING 11561
SWIDTH 480 0
DWIDTH 8 0
BBX 8 16 0 -2
BITMAP
00
00
00
00
8e
00
00
00
00
00
00
00
00
00
00
00
ENDCHAR
STARTCHAR C48f
ENCODING 11562
SWIDTH 480 0
DWIDTH 8 0
BBX 8 16 0 -2
BITMAP
00
00
00
00
8f
00
00
00
00
00
00
00
00
00
00
00
ENDCHAR
STARTCHAR C490
ENCODING 11563
SWIDTH 480 0
DWIDTH 8 0
BBX 8 16 0 -2
BITMAP
00
00
00
00
90
00
00
00
00
00
00
00
00
00
00
00
ENDCHAR
STARTCHAR C491
ENCODING 11564
SWIDTH 480 0
DWIDTH 8 0
BBX 8 16 0 -2
BITMAP
00
00
00
00
91
00
00
00
00
00
00
00
00
00
00
00
ENDCHAR
STARTCHAR C492
ENCODING 11565
SWIDTH 480 0
DWIDTH 8 0
BBX 8 16 0 -2
BITMAP
00
00
00
00
92
00
00
00
00
00
00
00
00
00
00
00
ENDCHAR
STARTCHAR C493
ENCODING 11566
SWIDTH 480 0
DWIDTH 8 0
BBX 8 16 0 -2
BITMAP
00
00
00
00
93
00
00
00
00
00
00
00
00
00
00
00
ENDCHAR
STARTCHAR C494
ENCODING 11567
SWIDTH 480 0
DWIDTH 8 0
BBX 8 16 0 -2
BITMAP
00
00
00
00
94
00
00
00
00
00
00
00
00
00
00
00
ENDCHAR
STARTCHAR C495
ENCODING 11568
SWIDTH 480 0
DWIDTH 8 0
BBX 8 16 0 -2
BITMAP
00
00
00
00
95
00
00
00
00
00
00
00
00
00
00
00
ENDCHAR
STARTCHAR C496
ENCODING 11569
SWIDTH 480 0
DWIDTH 8 0
BBX 8 16 0 -2
BITMAP
00
00
00
00
96
00
00
00
00
00
00
00
00
00
00
00
ENDCHAR
STARTCHAR C497
ENCODING 11570
SWIDTH 480 0
DWIDTH 8 0
BBX 8 16 0 -2
BITMAP
00
00
00
00
97
00
00
00
00
00
00
00
00
00
00
00
ENDCHAR
STARTCHAR C498
ENCODING 11571
SWIDTH 480 0
DWIDTH 8 0
BBX 8 16 0 -2
BITMAP
00
00
00
00
98
00
00
00
00
00
00
00
00
00
00
00
ENDCHAR
STARTCHAR C499
ENCODING 11572
SWIDTH 480 0
DWIDTH 8 0
BBX 8 16 0 -2
BITMAP
00
00
00
00
99
00
00
00
00
00
00
00
00
00
00
00
ENDCHAR
STARTCHAR C49a
ENCODING 11573
SWIDTH 480 0
DWIDTH 8 0
BBX 8 16 0 -2
BITMAP
00
00
00
00
9a
00
00
00
00
00
00
00
00
00
00
00
ENDCHAR
STARTCHAR C49b
ENCODING 11574
SWIDTH 480 0
DWIDTH 8 0
BBX 8 16 0 -2
BITMAP
00
00
00
00
9b
00
00
00
00
00
00
00
00
00
00
00
ENDCHAR
STARTCHAR C49c
ENCODING 11575
SWIDTH 480 0
DWIDTH 8 0
BBX 8 16 0 -2
BITMAP
00
00
00
00
9c
00
00
00
00
00
00
00
00
00
00
00
ENDCHAR
STARTCHAR C49d
ENCODING 11576
SWIDTH 480 0
DWIDTH 8 0
BBX 8 16 0 -2
BITMAP
00
00
00
00
9d
00
00
00
00
00
00
00
00
00
00
00
ENDCHAR
STARTCHAR C49e
ENCODING 11577
SWIDTH 480 0
DWIDTH 8 0
BBX 8 16 0 -2
BITMAP
00
00
00
00
9e
00
00
00
00
00
00
00
00
00
00
00
ENDCHAR
STARTCHAR C49f
ENCODING 11578
SWIDTH 480 0
DWIDTH 8 0
BBX 8 16 0 -2
BITMAP
00
00
00
00
9f
00
00
00
00
00
00
00
00
00
00
00
ENDCHAR
STARTCHAR C4a0
ENCODING 11579
SWIDTH 480 0
DWIDTH 8 0
BBX 8 16 0 -2
BITMAP
00
00
00
00
a0
00
00
00
00
00
00
00
00
00
00
00
ENDCHAR
STARTCHAR C4a1
ENCODING 11580
SWIDTH 480 0
DWIDTH 8 0
BBX 8 16 0 -2
BITMAP
00
00
00
00
a1
00
00
00
00
00
00
00
00
00
00
00
ENDCHAR
STARTCHAR C4a2
ENCODING 11581
SWIDTH 480 0
DWIDTH 8 0
BBX 8 16 0 -2
BITMAP
00
00
00
00
a2
00
00
00
00
00
00
00
00
00
00
00
ENDCHAR
STARTCHAR C4a3
ENCODING 11582
SWIDTH 480 0
DWIDTH 8 0
BBX 8 16 0 -2
BITMAP
00
00
00
00
a3
00
00
00
00
00
00
00
00
00
00
00
ENDCHAR
STARTCHAR C4a4
ENCODING 11583
SWIDTH 480 0
DWIDTH 8 0
BBX 8 16 0 -2
BITMAP
00
00
00
00
a4
00
00
00
00
00
00
00
00
00
00
00
ENDCHAR
STARTCHAR C4a5
ENCODING 11584
SWIDTH 480 0
DWIDTH 8 0
BBX 8 16 0 -2
BITMAP
00
00
00
00
a5
00
00
00
00
00
00
00
00
00
00
00
ENDCHAR
STARTCHAR C4a6
ENCODING 11585
SWIDTH 480 0
DWIDTH 8 0
BBX 8 16 0 -2
BITMAP
00
00
00
00
a6
00
00
00
00
00
00
00
00
00
00
00
ENDCHAR
STARTCHAR C4a7
ENCODING 11586
SWIDTH 480 0
DWIDTH 8 0
BBX 8 16 0 -2
BITMAP
00
00
00
00
a7
00
00
00
00
00
00
00
00
00
00
00
ENDCHAR
STARTCHAR C4a8
ENCODING 11587
SWIDTH 480 0
DWIDTH 8 0
BBX 8 16 0 -2
BITMAP
00
00
00
00
a8
00
00
00
00
00
00
00
00
00
00
00
ENDCHAR
STARTCHAR C4a9
ENCODING 11588
SWIDTH 480 0
DWIDTH 8 0
BBX 8 16 0 -2
BITMAP
00
00
00
00
a9
00
00
00
00
00
00
00
00
00
00
00
ENDCHAR
STARTCHAR C4aa
ENCODING 11589
SWIDTH 480 0
DWIDTH 8 0
BBX 8 16 0 -2
BITMAP
00
00
00
00
aa
00
00
00
00
00
00
00
00
00
00
00
ENDCHAR
STARTCHAR C4ab
ENCODING 11590
SWIDTH 480 0
DWIDTH 8 0
BBX 8 16 0 -2
BITMAP
00
00
00
00
ab
00
00
00
00
00
00
00
00
00
00
00
ENDCHAR
STARTCHAR C4ac
ENCODING 11591
SWIDTH 480 0
DWIDTH 8 0
BBX 8 16 0 -2
BITMAP
00
00
00
00
ac
00
00
00
00
00
00
00
00
00
00
00
ENDCHAR
STARTCHAR C4ad
ENCODING 11592
SWIDTH 480 0
DWIDTH 8 0
BBX 8 16 0 -2
BITMAP
00
00
00
00
ad
00
00
00
00
00
00
00
00
00
00
00
ENDCHAR
STARTCHAR C4ae
ENCODING 11593
SWIDTH 480 0
DWIDTH 8 0
BBX 8 16 0 -2
BITMAP
00
00
00
00
ae
00
00
00
00
00
00
00
00
00
00
00
ENDCHAR
STARTCHAR C4af
ENCODING 11594
SWIDTH 480 0
DWIDTH 8 0
BBX 8 16 0 -2
BITMAP
00
00
00
00
af
00
00
00
00
00
00
00
00
00
00
00
ENDCHAR
STARTCHAR C4b0
ENCODING 11595
SWIDTH 480 0
DWIDTH 8 0
BBX 8 16 0 -2
BITMAP
00
00
00
00
b0
00
00
00
00
00
00
00
00
00
00
00
ENDCHAR
STARTCHAR C4b1
ENCODING 11596
SWIDTH 480 0
DWIDTH 8 0
BBX 8 16 0 -2
BITMAP
00
00
00
00
b1
00
00
00
00
00
00
00
00
00
00
00
ENDCHAR
STARTCHAR C4b2
ENCODING 11597
SWIDTH 480 0
DWIDTH 8 0
BBX 8 16 0 -2
BITMAP
00
00
00
00
b2
00
00
00
00
00
00
00
00
00
00
00
ENDCHAR
STARTCHAR C4b3
ENCODING 11598
SWIDTH 480 0
DWIDTH 8 0
BBX 8 16 0 -2
BITMAP
00
00
00
00
b3
00
00
00
00
00
00
00
00
00
00
00
ENDCHAR
STARTCHAR C4b4
ENCODING 11599
SWIDTH 480 0
DWIDTH 8 0
BBX 8 16 0 -2
BITMAP
00
00
00
00
b4
00
00
00
00
00
00
00
00
00
00
00
ENDCHAR
STARTCHAR C4b5
ENCODING 11600
SWIDTH 480 0
DWIDTH 8 0
BBX 8 16 0 -2
BITMAP
00
00
00
00
b5
00
00
00
00
00
00
00
00
00
00
00
ENDCHAR
STARTCHAR C4b6
ENCODING 11601
SWIDTH 480 0
DWIDTH 8 0
BBX 8 16 0 -2
BITMAP
00
00
00
00
b6
00
00
00
00
00
00
00
00
00
00
00
ENDCHAR
STARTCHAR C4b7
ENCODING 11602
SWIDTH 480 0
DWIDTH 8 0
BBX 8 16 0 -2
BITMAP
00
00
00
00
b7
00
00
00
00
00
00
00
00
00
00
00
ENDCHAR
STARTCHAR C4b8
ENCODING 11603
SWIDTH 480 0
DWIDTH 8 0
BBX 8 16 0 -2
BITMAP
00
00
00
00
b8
00
00
00
00
00
00
00
00
00
00
00
ENDCHAR
STARTCHAR C4b9
ENCODING 11604
SWIDTH 480 0
DWIDTH 8 0
BBX 8 16 0 -2
BITMAP
00
00
00
00
b9
00
00
00
00
00
00
00
00
00
00
00
ENDCHAR
STARTCHAR C4ba
ENCODING 11605
SWIDTH 480 0
DWIDTH 8 0
BBX 8 16 0 -2
BITMAP
00
00
00
00
ba
00
00
00
00
00
00
00
00
00
00
00
ENDCHAR
STARTCHAR C4bb
ENCODING 11606
SWIDTH 480 0
DWIDTH 8 0
BBX 8 16 0 -2
BITMAP
00
00
00
00
bb
00
00
00
00
00
00
00
00
00
00
00
ENDCHAR
STARTCHAR C4bc
ENCODING 11607
SWIDTH 480 0
DWIDTH 8 0
BBX 8 16 0 -2
BITMAP
00
00
00
00
bc
00
00
00
00
00
00
00
00
00
00
00
ENDCHAR
STARTCHAR C4bd
ENCODING 11608
SWIDTH 480 0
DWIDTH 8 0
BBX 8 16 0 -2
BITMAP
00
00
00
00
bd
00
00
00
00
00
00
00
00
00
00
00
ENDCHAR
STARTCHAR C4be
ENCODING 11609
SWIDTH 480 0
DWIDTH 8 0
BBX 8 16 0 -2
BITMAP
00
00
00
00
be
00
00
00
00
00
00
00
00
00
00
00
ENDCHAR
STARTCHAR C4bf
ENCODING 11610
SWIDTH 480 0
DWIDTH 8 0
BBX 8 16 0 -2
BITMAP
00
00
00
00
bf
00
00
00
00
00
00
00
00
00
00
00
ENDCHAR
STARTCHAR C4c0
ENCODING 11611
SWIDTH 480 0
DWIDTH 8 0
BBX 8 16 0 -2
BITMAP
00
00
00
00
c0
00
00
00
00
00
00
00
00
00
00
00
ENDCHAR
STARTCHAR C4c1
ENCODING 11612
SWIDTH 480 0
DWIDTH 8 0
BBX 8 16 0 -2
BITMAP
00
00
00
00
c1
00
00
00
00
00
00
00
00
00
00
00
ENDCHAR
STARTCHAR C4c2
ENCODING 11613
SWIDTH 480 0
DWIDTH 8 0
BBX 8 16 0 -2
BITMAP
00
00
00
00
c2
00
00
00
00
00
00
00
00
00
00
00
ENDCHAR
STARTCHAR C4c3
ENCODING 11614
SWIDTH 480 0
DWIDTH 8 0
BBX 8 16 0 -2
BITMAP
00
00
00
00
c3
00
00
00
00
00
00
00
00
00
00
00
ENDCHAR
STARTCHAR C4c4
ENCODING 11615
SWIDTH 480 0
DWIDTH 8 0
BBX 8 16 0 -2
BITMAP
00
00
00
00
c4
00
00
00
00
00
00
00
00
00
00
00
ENDCHAR
STARTCHAR C4c5
ENCODING 11616
SWIDTH 480 0
DWIDTH 8 0
BBX 8 16 0 -2
BITMAP
00
00
00
00
c5
00
00
00
00
00
00
00
00
00
00
00
ENDCHAR
STARTCHAR C4c6
ENCODING 11617
SWIDTH 480 0
DWIDTH 8 0
BBX 8 16 0 -2
BITMAP
00
00
00
00
c6
00
00
00
00
00
00
00
00
00
00
00
ENDCHAR
STARTCHAR C4c7
ENCODING 11618
SWIDTH 480 0
DWIDTH 8 0
BBX 8 16 0 -2
BITMAP
00
00
00
00
c7
00
00
00
00
00
00
00
00
00
00
00
ENDCHAR
STARTCHAR C4c8
ENCODING 11619
SWIDTH 480 0
DWIDTH 8 0
BBX 8 16 0 -2
BITMAP
00
00
00
00
c8
00
00
00
00
00
00
00
00
00
00
00
ENDCHAR
STARTCHAR C4c9
ENCODING 11620
SWIDTH 480 0
DWIDTH 8 0
BBX 8 16 0 -2
BITMAP
00
00
00
00
c9
00
00
00
00
00
00
00
00
00
00
00
ENDCHAR
STARTCHAR C4ca
ENCODING 11621
SWIDTH 480 0
DWIDTH 8 0
BBX 8 16 0 -2
BITMAP
00
00
00
00
ca
00
00
00
00
00
00
00
00
00
00
00
ENDCHAR
STARTCHAR C4cb
ENCODING 11622
SWIDTH 480 0
DWIDTH 8 0
BBX 8 16 0 -2
BITMAP
00
00
00
00
cb
00
00
00
00
00
00
00
00
00
00
00
ENDCHAR
STARTCHAR C4cc
ENCODING 11623
SWIDTH 480 0
DWIDTH 8 0
BBX 8 16 0 -2
BITMAP
00
00
00
00
cc
00
00
00
00
00
00
00
00
00
00
00
ENDCHAR
STARTCHAR C4cd
ENCODING 11624
SWIDTH 480 0
DWIDTH 8 0
BBX 8 16 0 -2
BITMAP
00
00
00
00
cd
00
00
00
00
00
00
00
00
00
00
00
ENDCHAR
STARTCHAR C4ce
ENCODING 11625
SWIDTH 480 0
DWIDTH 8 0
BBX 8 16 0 -2
BITMAP
00
00
00
00
ce
00
00
00
00
00
00
00
00
00
00
00
ENDCHAR
STARTCHAR C4cf
ENCODING 11626
SWIDTH 480 0
DWIDTH 8 0
BBX 8 16 0 -2
BITMAP
00
00
00
00
cf
00
00
00
00
00
00
00
00
00
00
00
ENDCHAR
STARTCHAR C4d0
ENCODING 11627
SWIDTH 480 0
DWIDTH 8 0
BBX 8 16 0 -2
BITMAP
00
00
00
00
d0
00
00
00
00
00
00
00
00
00
00
00
ENDCHAR
STARTCHAR C4d1
ENCODING 11628
SWIDTH 480 0
DWIDTH 8 0
BBX 8 16 0 -2
BITMAP
00
00
00
00
d1
00
00
00
00
00
00
00
00
00
00
00
ENDCHAR
STARTCHAR C4d2
ENCODING 11629
SWIDTH 480 0
DWIDTH 8 0
BBX 8 16 0 -2
BITMAP
00
00
00
00
d2
00
00
00
00
00
00
00
00
00
00
00
ENDCHAR
STARTCHAR C4d3
ENCODING 11630
SWIDTH 480 0
DWIDTH 8 0
BBX 8 16 0 -2
BITMAP
00
00
00
00
d3
00
00
00
00
00
00
00
00
00
00
00
ENDCHAR
STARTCHAR C4d4
ENCODING 11631
SWIDTH 480 0
DWIDTH 8 0
BBX 8 16 0 -2
BITMAP
00
00
00
00
d4
00
00
00
00
00
00
00
00
00
00
00
ENDCHAR
STARTCHAR C4d5
ENCODING 11632
SWIDTH 480 0
DWIDTH 8 0
BBX 8 16 0 -2
BITMAP
00
00
00
00
d5
00
00
00
00
00
00
00
00
00
00
00
ENDCHAR
STARTCHAR C4d6
ENCODING 11633
SWIDTH 480 0
DWIDTH 8 0
BBX 8 16 0 -2
BITMAP
00
00
00
00
d6
00
00
00
00
00
00
00
00
00
00
00
ENDCHAR
STARTCHAR C4d7
ENCODING 11634
SWIDTH 480 0
DWIDTH 8 0
BBX 8 16 0 -2
BITMAP
00
00
00
00
d7
00
00
00
00
00
00
00
00
00
00
00
ENDCHAR
STARTCHAR C4d8
ENCODING 11635
SWIDTH 480 0
DWIDTH 8 0
BBX 8 16 0 -2
BITMAP
00
00
00
00
d8
00
00
00
00
00
00
00
00
00
00
00
ENDCHAR
STARTCHAR C4d9
ENCODING 11636
SWIDTH 480 0
DWIDTH 8 0
BBX 8 16 0 -2
BITMAP
00
00
00
00
d9
00
00
00
00
00
00
00
00
00
00
00
ENDCHAR
STARTCHAR C4da
ENCODING 11637
SWIDTH 480 0
DWIDTH 8 0
BBX 8 16 0 -2
BITMAP
00
00
00
00
da
00
00
00
00
00
00
00
00
00
00
00
ENDCHAR
STARTCHAR C4db
ENCODING 11638
SWIDTH 480 0
DWIDTH 8 0
BBX 8 16 0 -2
BITMAP
00
00
00
00
db
00
00
00
00
00
00
00
00
00
00
00
ENDCHAR
STARTCHAR C4dc
ENCODING 11639
SWIDTH 480 0
DWIDTH 8 0
BBX 8 16 0 -2
BITMAP
00
00
00
00
dc
00
00
00
00
00
00
00
00
00
00
00
ENDCHAR
STARTCHAR C4dd
ENCODING 11640
SWIDTH 480 0
DWIDTH 8 0
BBX 8 16 0 -2
BITMAP
00
00
00
00
dd
00
00
00
00
00
00
00
00
00
00
00
ENDCHAR
STARTCHAR C4de
ENCODING 11641
SWIDTH 480 0
DWIDTH 8 0
BBX 8 16 0 -2
BITMAP
00
00
00
00
de
00
00
00
00
00
00
00
00
00
00
00
ENDCHAR
STARTCHAR C4df
ENCODING 11642
SWIDTH 480 0
DWIDTH 8 0
BBX 8 16 0 -2
BITMAP
00
00
00
00
df
00
00
00
00
00
00
00
00
00
00
00
ENDCHAR
STARTCHAR C4e0
ENCODING 11643
SWIDTH 480 0
DWIDTH 8 0
BBX 8 16 0 -2
BITMAP
00
00
00
00
e0
00
00
00
00
00
00
00
00
00
00
00
ENDCHAR
STARTCHAR C4e1
ENCODING 11644
SWIDTH 480 0
DWIDTH 8 0
BBX 8 16 0 -2
BITMAP
00
00
00
00
e1
00
00
00
00
00
00
00
00
00
00
00
ENDCHAR
STARTCHAR C4e2
ENCODING 11645
SWIDTH 480 0
DWIDTH 8 0
BBX 8 16 0 -2
BITMAP
00
00
00
00
e2
00
00
00
00
00
00
00
00
00
00
00
ENDCHAR
STARTCHAR C4e3
ENCODING 11646
SWIDTH 480 0
DWIDTH 8 0
BBX 8 16 0 -2
BITMAP
00
00
00
00
e3
00
00
00
00
00
00
00
00
00
00
00
ENDCHAR
STARTCHAR C4e4
ENCODING 11647
SWIDTH 480 0
DWIDTH 8 0
BBX 8 16 0 -2
BITMAP
00
00
00
00
e4
00
00
00
00
00
00
00
00
00
00
00
ENDCHAR
STARTCHAR C4e5
ENCODING 11808
SWIDTH 480 0
DWIDTH 8 0
BBX 8 16 0 -2
BITMAP
00
00
00
00
e5
00
00
00
00
00
00
00
00
00
00
00
ENDCHAR
STARTCHAR C4e6
ENCODING 11809
SWIDTH 480 0
DWIDTH 8 0
BBX 8 16 0 -2
BITMAP
00
00
00
00
e6
00
00
00
00
00
00
00
00
00
00
00
ENDCHAR
STARTCHAR C4e7
ENCODING 11810
SWIDTH 480 0
DWIDTH 8 0
BBX 8 16 0 -2
BITMAP
00
00
00
00
e7
00
00
00
00
00
00
00
00
00
00
00
ENDCHAR
STARTCHAR C4e8
ENCODING 11811
SWIDTH 480 0
DWIDTH 8 0
BBX 8 16 0 -2
BITMAP
00
00
00
00
e8
00
00
00
00
00
00
00
00
00
00
00
ENDCHAR
STARTCHAR C4e9
ENCODING 11812
SWIDTH 480 0
DWIDTH 8 0
BBX 8 16 0 -2
BITMAP
00
00
00
00
e9
00
00
00
00
00
00
00
00
00
00
00
ENDCHAR
STARTCHAR C4ea
ENCODING 11813
SWIDTH 480 0
DWIDTH 8 0
BBX 8 16 0 -2
BITMAP
00
00
00
00
ea
00
00
00
00
00
00
00
00
00
00
00
ENDCHAR
STARTCHAR C4eb
ENCODING 11814
SWIDTH 480 0
DWIDTH 8 0
BBX 8 16 0 -2
BITMAP
00
00
00
00
eb
00
00
00
00
00
00
00
00
00
00
00
ENDCHAR
STARTCHAR C4ec
ENCODING 11815
SWIDTH 480 0
DWIDTH 8 0
BBX 8 16 0 -2
BITMAP
00
00
00
00
ec
00
00
00
00
00
00
00
00
00
00
00
ENDCHAR
STARTCHAR C4ed
ENCODING 11816
SWIDTH 480 0
DWIDTH 8 0
BBX 8 16 0 -2
BITMAP
00
00
00
00
ed
00
00
00
00
00
00
00
00
00
00
00
ENDCHAR
STARTCHAR C4ee
ENCODING 11817
SWIDTH 480 0
DWIDTH 8 0
BBX 8 16 0 -2
BITMAP
00
00
00
00
ee
00
00
00
00
00
00
00
00
00
00
00
ENDCHAR
STARTCHAR C4ef
ENCODING 11818
SWIDTH 480 0
DWIDTH 8 0
BBX 8 16 0 -2
BITMAP
00
00
00
00
ef
00
00
00
00
00
00
00
00
00
00
00
ENDCHAR
STARTCHAR C4f0
ENCODING 11819
SWIDTH 480 0
DWIDTH 8 0
BBX 8 16 0 -2
BITMAP
00
00
00
00
f0
00
00
00
00
00
00
00
00
00
00
00
ENDCHAR
STARTCHAR C4f1
ENCODING 11820
SWIDTH 480 0
DWIDTH 8 0
BBX 8 16 0 -2
BITMAP
00
00
00
00
f1
00
00
00
00
00
00
00
00
00
00
00
ENDCHAR
STARTCHAR C4f2
ENCODING 11821
SWIDTH 480 0
DWIDTH 8 0
BBX 8 16 0 -2
BITMAP
00
00
00
00
f2
00
00
00
00
00
00
00
00
00
00
00
ENDCHAR
STARTCHAR C4f3
ENCODING 11822
SWIDTH 480 0
DWIDTH 8 0
BBX 8 16 0 -2
BITMAP
00
00
00
00
f3
00
00
00
00
00
00
00
00
00
00
00
ENDCHAR
STARTCHAR C4f4
ENCODING 11823
SWIDTH 480 0
DWIDTH 8 0
BBX 8 16 0 -2
BITMAP
00
00
00
00
f4
00
00
00
00
00
00
00
00
00
00
00
ENDCHAR
STARTCHAR C4f5
ENCODING 11824
SWIDTH 480 0
DWIDTH 8 0
BBX 8 16 0 -2
BITMAP
00
00
00
00
f5
00
00
00
00
00
00
00
00
00
00
00
ENDCHAR
STARTCHAR C4f6
ENCODING 11825
SWIDTH 480 0
DWIDTH 8 0
BBX 8 16 0 -2
BITMAP
00
00
00
00
f6
00
00
00
00
00
00
00
00
00
00
00
ENDCHAR
STARTCHAR C4f7
ENCODING 11826
SWIDTH 480 0
DWIDTH 8 0
BBX 8 16 0 -2
BITMAP
00
00
00
00
f7
00
00
00
00
00
00
00
00
00
00
00
ENDCHAR
STARTCHAR C4f8
ENCODING 11827
SWIDTH 480 0
DWIDTH 8 0
BBX 8 16 0 -2
BITMAP
00
00
00
00
f8
00
00
00
00
00
00
00
00
00
00
00
ENDCHAR
STARTCHAR C4f9
ENCODING 11828
SWIDTH 480 0
DWIDTH 8 0
BBX 8 16 0 -2
BITMAP
00
00
00
00
f9
00
00
00
00
00
00
00
00
00
00
00
ENDCHAR
STARTCHAR C4fa
ENCODING 11829
SWIDTH 480 0
DWIDTH 8 0
BBX 8 16 0 -2
BITMAP
00
00
00
00
fa
00
00
00
00
00
00
00
00
00
00
00
ENDCHAR
STARTCHAR C4fb
ENCODING 11830
SWIDTH 480 0
DWIDTH 8 0
BBX 8 16 0 -2
BITMAP
00
00
00
00
fb
00
00
00
00
00
00
00
00
00
00
00
ENDCHAR
STARTCHAR C4fc
ENCODING 11831
SWIDTH 480 0
DWIDTH 8 0
BBX 8 16 0 -2
BITMAP
00
00
00
00
fc
00
00
00
00
00
00
00
00
00
00
00
ENDCHAR
STARTCHAR C4fd
ENCODING 11832
SWIDTH 480 0
DWIDTH 8 0
BBX 8 16 0 -2
BITMAP
00
00
00
00
fd
00
00
00
00
00
00
00
00
00
00
00
ENDCHAR
STARTCHAR C4fe
ENCODING 11833
SWIDTH 480 0
DWIDTH 8 0
BBX 8 16 0 -2
BITMAP
00
00
00
00
fe
00
00
00
00
00
00
00
00
00
00
00
ENDCHAR
STARTCHAR C4ff
ENCODING 11834
SWIDTH 480 0
DWIDTH 8 0
BBX 8 16 0 -2
BITMAP
00
00
00
00
ff
00
00
00
00
00
00
00
00
00
00
00
ENDCHAR
STARTCHAR C501
ENCODING 11835
SWIDTH 480 0
DWIDTH 8 0
BBX 8 16 0 -2
BITMAP
00
00
00
00
00
01
00
00
00
00
00
00
00
00
00
00
ENDCHAR
STARTCHAR C502
ENCODING 11836
SWIDTH 480 0
DWIDTH 8 0
BBX 8 16 0 -2
BITMAP
00
00
00
00
00
02
00
00
00
00
00
00
00
00
00
00
ENDCHAR
STARTCHAR C503
ENCODING 11837
SWIDTH 480 0
DWIDTH 8 0
BBX 8 16 0 -2
BITMAP
00
00
00
00
00
03
00
00
00
00
00
00
00
00
00
00
ENDCHAR
STARTCHAR C504
ENCODING 11838
SWIDTH 480 0
DWIDTH 8 0
BBX 8 16 0 -2
BITMAP
00
00
00
00
00
04
00
00
00
00
00
00
00
00
00
00
ENDCHAR
STARTCHAR C505
ENCODING 11839
SWIDTH 480 0
DWIDTH 8 0
BBX 8 16 0 -2
BITMAP
00
00
00
00
00
05
00
00
00
00
00
00
00
00
00
00
ENDCHAR
STARTCHAR C506
ENCODING 11840
SWIDTH 480 0
DWIDTH 8 0
BBX 8 16 0 -2
BITMAP
00
00
00
00
00
06
00
00
00
00
00
00
00
00
00
00
ENDCHAR
STARTCHAR C507
ENCODING 11841
SWIDTH 480 0
DWIDTH 8 0
BBX 8 16 0 -2
BITMAP
00
00
00
00
00
07
00
00
00
00
00
00
00
00
00
00
ENDCHAR
STARTCHAR C508
ENCODING 11842
SWIDTH 480 0
DWIDTH 8 0
BBX 8 16 0 -2
BITMAP
00
00
00
00
00
08
00
00
00
00
00
00
00
00
00
00
ENDCHAR
STARTCHAR C509
ENCODING 11843
SWIDTH 480 0
DWIDTH 8 0
BBX 8 16 0 -2
BITMAP
00
00
00
00
00
09
00
00
00
00
00
00
00
00
00
00
ENDCHAR
STARTCHAR C50a
ENCODING 11844
SWIDTH 480 0
DWIDTH 8 0
BBX 8 16 0 -2
BITMAP
00
00
00
00
00
0a
00
00
00
00
00
00
00
00
00
00
ENDCHAR
STARTCHAR C50b
ENCODING 11845
SWIDTH 480 0
DWIDTH 8 0
BBX 8 16 0 -2
BITMAP
00
00
00
00
00
0b
00
00
00
00
00
00
00
00
00
00
ENDCHAR
STARTCHAR C50c
ENCODING 11846
SWIDTH 480 0
DWIDTH 8 0
BBX 8 16 0 -2
BITMAP
00
00
00
00
00
0c
00
00
00
00
00
00
00
00
00
00
ENDCHAR
STARTCHAR C50d
ENCODING 11847
SWIDTH 480 0
DWIDTH 8 0
BBX 8 16 0 -2
BITMAP
00
00
00
00
00
0d
00
00
00
00
00
00
00
00
00
00
ENDCHAR
STARTCHAR C50e
ENCODING 11848
SWIDTH 480 0
DWIDTH 8 0
BBX 8 16 0 -2
BITMAP
00
00
00
00
00
0e
00
00
00
00
00
00
00
00
00
00
ENDCHAR
STARTCHAR C50f
ENCODING 11849
SWIDTH 480 0
DWIDTH 8 0
BBX 8 16 0 -2
BITMAP
00
00
00
00
00
0f
00
00
00
00
00
00
00
00
00
00
ENDCHAR
STARTCHAR C510
ENCODING 11850
SWIDTH 480 0
DWIDTH 8 0
BBX 8 16 0 -2
BITMAP
00
00
00
00
00
10
00
00
00
00
00
00
00
00
00
00
ENDCHAR
STARTCHAR C511
ENCODING 11851
SWIDTH 480 0
DWIDTH 8 0
BBX 8 16 0 -2
BITMAP
00
00
00
00
00
11
00
00
00
00
00
00
00
00
00
00
ENDCHAR
STARTCHAR C512
ENCODING 11852
SWIDTH 480 0
DWIDTH 8 0
BBX 8 16 0 -2
BITMAP
00
00
00
00
00
12
00
00
00
00
00
00
00
00
00
00
ENDCHAR
STARTCHAR C513
ENCODING 11853
SWIDTH 480 0
DWIDTH 8 0
BBX 8 16 0 -2
BITMAP
00
00
00
00
00
13
00
00
00
00
00
00
00
00
00
00
ENDCHAR
STARTCHAR C514
ENCODING 11854
SWIDTH 480 0
DWIDTH 8 0
BBX 8 16 0 -2
BITMAP
00
00
00
00
00
14
00
00
00
00
00
00
00
00
00
00
ENDCHAR
STARTCHAR C515
ENCODING 11855
SWIDTH 480 0
DWIDTH 8 0
BBX 8 16 0 -2
BITMAP
00
00
00
00
00
15
00
00
00
00
00
00
00
00
00
00
ENDCHAR
STARTCHAR C516
ENCODING 11856
SWIDTH 480 0
DWIDTH 8 0
BBX 8 16 0 -2
BITMAP
00
00
00
00
00
16
00
00
00
00
00
00
00
00
00
00
ENDCHAR
STARTCHAR C517
ENCODING 11857
SWIDTH 480 0
DWIDTH 8 0
BBX 8 16 0 -2
BITMAP
00
00
00
00
00
17
00
00
00
00
00
00
00
00
00
00
ENDCHAR
STARTCHAR C518
ENCODING 11858
SWIDTH 480 0
DWIDTH 8 0
BBX 8 16 0 -2
BITMAP
00
00
00
00
00
18
00
00
00
00
00
00
00
00
00
00
ENDCHAR
STARTCHAR C519
ENCODING 11859
SWIDTH 480 0
DWIDTH 8 0
BBX 8 16 0 -2
BITMAP
00
00
00
00
00
19
00
00
00
00
00
00
00
00
00
00
ENDCHAR
STARTCHAR C51a
ENCODING 11860
SWIDTH 480 0
DWIDTH 8 0
BBX 8 16 0 -2
BITMAP
00
00
00
00
00
1a
00
00
00
00
00
00
00
00
00
00
ENDCHAR
STARTCHAR C51b
ENCODING 11861
SWIDTH 480 0
DWIDTH 8 0
BBX 8 16 0 -2
BITMAP
00
00
00
00
00
1b
00
00
00
00
00
00
00
00
00
00
ENDCHAR
STARTCHAR C51c
ENCODING 11862
SWIDTH 480 0
DWIDTH 8 0
BBX 8 16 0 -2
BITMAP
00
00
00
00
00
1c
00
00
00
00
00
00
00
00
00
00
ENDCHAR
STARTCHAR C51d
ENCODING 11863
SWIDTH 480 0
DWIDTH 8 0
BBX 8 16 0 -2
BITMAP
00
00
00
00
00
1d
00
00
00
00
00
00
00
00
00
00
ENDCHAR
STARTCHAR C51e
ENCODING 11864
SWIDTH 480 0
DWIDTH 8 0
BBX 8 16 0 -2
BITMAP
00
00
00
00
00
1e
00
00
00
00
00
00
00
00
00
00
ENDCHAR
STARTCHAR C51f
ENCODING 11865
SWIDTH 480 0
DWIDTH 8 0
BBX 8 16 0 -2
BITMAP
00
00
00
00
00
1f
00
00
00
00
00
00
00
00
00
00
ENDCHAR
STARTCHAR C520
ENCODING 11866
SWIDTH 480 0
DWIDTH 8 0
BBX 8 16 0 -2
BITMAP
00
00
00
00
00
20
00
00
00
00
00
00
00
00
00
00
ENDCHAR
STARTCHAR C521
ENCODING 11867
SWIDTH 480 0
DWIDTH 8 0
BBX 8 16 0 -2
BITMAP
00
00
00
00
00
21
00
00
00
00
00
00
00
00
00
00
ENDCHAR
STARTCHAR C522
ENCODING 11868
SWIDTH 480 0
DWIDTH 8 0
BBX 8 16 0 -2
BITMAP
00
00
00
00
00
22
00
00
00
00
00
00
00
00
00
00
ENDCHAR
STARTCHAR C523
ENCODING 11869
SWIDTH 480 0
DWIDTH 8 0
BBX 8 16 0 -2
BITMAP
00
00
00
00
00
23
00
00
00
00
00
00
00
00
00
00
ENDCHAR
STARTCHAR C524
ENCODING 11870
SWIDTH 480 0
DWIDTH 8 0
BBX 8 16 0 -2
BITMAP
00
00
00
00
00
24
00
00
00
00
00
00
00
00
00
00
ENDCHAR
STARTCHAR C525
ENCODING 11871
SWIDTH 480 0
DWIDTH 8 0
BBX 8 16 0 -2
BITMAP
00
00
00
00
00
25
00
00
00
00
00
00
00
00
00
00
ENDCHAR
STARTCHAR C526
ENCODING 11872
SWIDTH 480 0
DWIDTH 8 0
BBX 8 16 0 -2
BITMAP
00
00
00
00
00
26
00
00
00
00
00
00
00
00
00
00
ENDCHAR
STARTCHAR C527
ENCODING 11873
SWIDTH 480 0
DWIDTH 8 0
BBX 8 16 0 -2
BITMAP
00
00
00
00
00
27
00
00
00
00
00
00
00
00
00
00
ENDCHAR
STARTCHAR C528
ENCODING 11874
SWIDTH 480 0
DWIDTH 8 0
BBX 8 16 0 -2
BITMAP
00
00
00
00
00
28
00
00
00
00
00
00
00
00
00
00
ENDCHAR
STARTCHAR C529
ENCODING 11875
SWIDTH 480 0
DWIDTH 8 0
BBX 8 16 0 -2
BITMAP
00
00
00
00
00
29
00
00
00
00
00
00
00
00
00
00
ENDCHAR
STARTCHAR C52a
ENCODING 11876
SWIDTH 480 0
DWIDTH 8 0
BBX 8 16 0 -2
BITMAP
00
00
00
00
00
2a
00
00
00
00
00
00
00
00
00
00
ENDCHAR
STARTCHAR C52b
ENCODING 11877
SWIDTH 480 0
DWIDTH 8 0
BBX 8 16 0 -2
BITMAP
00
00
00
00
00
2b
00
00
00
00
00
00
00
00
00
00
ENDCHAR
STARTCHAR C52c
ENCODING 11878
SWIDTH 480 0
DWIDTH 8 0
BBX 8 16 0 -2
BITMAP
00
00
00
00
00
2c
00
00
00
00
00
00
00
00
00
00
ENDCHAR
STARTCHAR C52d
ENCODING 11879
SWIDTH 480 0
DWIDTH 8 0
BBX 8 16 0 -2
BITMAP
00
00
00
00
00
2d
00
00
00
00
00
00
00
00
00
00
ENDCHAR
STARTCHAR C52e
ENCODING 11880
SWIDTH 480 0
DWIDTH 8 0
BBX 8 16 0 -2
BITMAP
00
00
00
00
00
2e
00
00
00
00
00
00
00
00
00
00
ENDCHAR
STARTCHAR C52f
ENCODING 11881
SWIDTH 480 0
DWIDTH 8 0
BBX 8 16 0 -2
BITMAP
00
00
00
00
00
2f
00
00
00
00
00
00
00
00
00
00
ENDCHAR
STARTCHAR C530
ENCODING 11882
SWIDTH 480 0
DWIDTH 8 0
BBX 8 16 0 -2
BITMAP
00
00
00
00
00
30
00
00
00
00
00
00
00
00
00
00
ENDCHAR
STARTCHAR C531
ENCODING 11883
SWIDTH 480 0
DWIDTH 8 0
BBX 8 16 0 -2
BITMAP
00
00
00
00
00
31
00
00
00
00
00
00
00
00
00
00
ENDCHAR
STARTCHAR C532
ENCODING 11884
SWIDTH 480 0
DWIDTH 8 0
BBX 8 16 0 -2
BITMAP
00
00
00
00
00
32
00
00
00
00
00
00
00
00
00
00
ENDCHAR
STARTCHAR C533
ENCODING 11885
SWIDTH 480 0
DWIDTH 8 0
BBX 8 16 0 -2
BITMAP
00
00
00
00
00
33
00
00
00
00
00
00
00
00
00
00
ENDCHAR
STARTCHAR C534
ENCODING 11886
SWIDTH 480 0
DWIDTH 8 0
BBX 8 16 0 -2
BITMAP
00
00
00
00
00
34
00
00
00
00
00
00
00
00
00
00
ENDCHAR
STARTCHAR C535
ENCODING 11887
SWIDTH 480 0
DWIDTH 8 0
BBX 8 16 0 -2
BITMAP
00
00
00
00
00
35
00
00
00
00
00
00
00
00
00
00
ENDCHAR
STARTCHAR C536
ENCODING 11888
SWIDTH 480 0
DWIDTH 8 0
BBX 8 16 0 -2
BITMAP
00
00
00
00
00
36
00
00
00
00
00
00
00
00
00
00
ENDCHAR
STARTCHAR C537
ENCODING 11889
SWIDTH 480 0
DWIDTH 8 0
BBX 8 16 0 -2
BITMAP
00
00
00
00
00
37
00
00
00
00
00
00
00
00
00
00
ENDCHAR
STARTCHAR C538
ENCODING 11890
SWIDTH 480 0
DWIDTH 8 0
BBX 8 16 0 -2
BITMAP
00
00
00
00
00
38
00
00
00
00
00
00
00
00
00
00
ENDCHAR
STARTCHAR C539
ENCODING 11891
SWIDTH 480 0
DWIDTH 8 0
BBX 8 16 0 -2
BITMAP
00
00
00
00
00
39
00
00
00
00
00
00
00
00
00
00
ENDCHAR
STARTCHAR C53a
ENCODING 11892
SWIDTH 480 0
DWIDTH 8 0
BBX 8 16 0 -2
BITMAP
00
00
00
00
00
3a
00
00
00
00
00
00
00
00
00
00
ENDCHAR
STARTCHAR C53b
ENCODING 11893
SWIDTH 480 0
DWIDTH 8 0
BBX 8 16 0 -2
BITMAP
00
00
00
00
00
3b
00
00
00
00
00
00
00
00
00
00
ENDCHAR
STARTCHAR C53c
ENCODING 11894
SWIDTH 480 0
DWIDTH 8 0
BBX 8 16 0 -2
BITMAP
00
00
00
00
00
3c
00
00
00
00
00
00
00
00
00
00
ENDCHAR
STARTCHAR C53d
ENCODING 11895
SWIDTH 480 0
DWIDTH 8 0
BBX 8 16 0 -2
BITMAP
00
00
00
00
00
3d
00
00
00
00
00
00
00
00
00
00
ENDCHAR
STARTCHAR C53e
ENCODING 11896
SWIDTH 480 0
DWIDTH 8 0
BBX 8 16 0 -2
BITMAP
00
00
00
00
00
3e
00
00
00
00
00
00
00
00
00
00
ENDCHAR
STARTCHAR C53f
ENCODING 11897
SWIDTH 480 0
DWIDTH 8 0
BBX 8 16 0 -2
BITMAP
00
00
00
00
00
3f
00
00
00
00
00
00
00
00
00
00
ENDCHAR
STARTCHAR C540
ENCODING 11898
SWIDTH 480 0
DWIDTH 8 0
BBX 8 16 0 -2
BITMAP
00
00
00
00
00
40
00
00
00
00
00
00
00
00
00
00
ENDCHAR
STARTCHAR C541
ENCODING 11899
SWIDTH 480 0
DWIDTH 8 0
BBX 8 16 0 -2
BITMAP
00
00
00
00
00
41
00
00
00
00
00
00
00
00
00
00
ENDCHAR
STARTCHAR C542
ENCODING 11900
SWIDTH 480 0
DWIDTH 8 0
BBX 8 16 0 -2
BITMAP
00
00
00
00
00
42
00
00
00
00
00
00
00
00
00
00
ENDCHAR
STARTCHAR C543
ENCODING 11901
SWIDTH 480 0
DWIDTH 8 0
BBX 8 16 0 -2
BITMAP
00
00
00
00
00
43
00
00
00
00
00
00
00
00
00
00
ENDCHAR
STARTCHAR C544
ENCODING 11902
SWIDTH 480 0
DWIDTH 8 0
BBX 8 16 0 -2
BITMAP
00
00
00
00
00
44
00
00
00
00
00
00
00
00
00
00
ENDCHAR
STARTCHAR C545
ENCODING 11903
SWIDTH 480 0
DWIDTH 8 0
BBX 8 16 0 -2
BITMAP
00
00
00
00
00
45
00
00
00
00
00
00
00
00
00
00
ENDCHAR
STARTCHAR C546
ENCODING 12064
SWIDTH 480 0
DWIDTH 8 0
BBX 8 16 0 -2
BITMAP
00
00
00
00
00
46
00
00
00
00
00
00
00
00
00
00
ENDCHAR
STARTCHAR C547
ENCODING 12065
SWIDTH 480 0
DWIDTH 8 0
BBX 8 16 0 -2
BITMAP
00
00
00
00
00
47
00
00
00
00
00
00
00
00
00
00
ENDCHAR
STARTCHAR C548
ENCODING 12066
SWIDTH 480 0
DWIDTH 8 0
BBX 8 16 0 -2
BITMAP
00
00
00
00
00
48
00
00
00
00
00
00
00
00
00
00
ENDCHAR
STARTCHAR C549
ENCODING 12067
SWIDTH 480 0
DWIDTH 8 0
BBX 8 16 0 -2
BITMAP
00
00
00
00
00
49
00
00
00
00
00
00
00
00
00
00
ENDCHAR
STARTCHAR C54a
ENCODING 12068
SWIDTH 480 0
DWIDTH 8 0
BBX 8 16 0 -2
BITMAP
00
00
00
00
00
4a
00
00
00
00
00
00
00
00
00
00
ENDCHAR
STARTCHAR C54b
ENCODING 12069
SWIDTH 480 0
DWIDTH 8 0
BBX 8 16 0 -2
BITMAP
00
00
00
00
00
4b
00
00
00
00
00
00
00
00
00
00
ENDCHAR
STARTCHAR C54c
ENCODING 12070
SWIDTH 480 0
DWIDTH 8 0
BBX 8 16 0 -2
BITMAP
00
00
00
00
00
4c
00
00
00
00
00
00
00
00
00
00
ENDCHAR
STARTCHAR C54d
ENCODING 12071
SWIDTH 480 0
DWIDTH 8 0
BBX 8 16 0 -2
BITMAP
00
00
00
00
00
4d
00
00
00
00
00
00
00
00
00
00
ENDCHAR
STARTCHAR C54e
ENCODING 12072
SWIDTH 480 0
DWIDTH 8 0
BBX 8 16 0 -2
BITMAP
00
00
00
00
00
4e
00
00
00
00
00
00
00
00
00
00
ENDCHAR
STARTCHAR C54f
ENCODING 12073
SWIDTH 480 0
DWIDTH 8 0
BBX 8 16 0 -2
BITMAP
00
00
00
00
00
4f
00
00
00
00
00
00
00
00
00
00
ENDCHAR
STARTCHAR C550
ENCODING 12074
SWIDTH 480 0
DWIDTH 8 0
BBX 8 16 0 -2
BITMAP
00
00
00
00
00
50
00
00
00
00
00
00
00
00
00
00
ENDCHAR
STARTCHAR C551
ENCODING 12075
SWIDTH 480 0
DWIDTH 8 0
BBX 8 16 0 -2
BITMAP
00
00
00
00
00
51
00
00
00
00
00
00
00
00
00
00
ENDCHAR
STARTCHAR C552
ENCODING 12076
SWIDTH 480 0
DWIDTH 8 0
BBX 8 16 0 -2
BITMAP
00
00
00
00
00
52
00
00
00
00
00
00
00
00
00
00
ENDCHAR
STARTCHAR C553
ENCODING 12077
SWIDTH 480 0
DWIDTH 8 0
BBX 8 16 0 -2
BITMAP
00
00
00
00
00
53
00
00
00
00
00
00
00
00
00
00
ENDCHAR
STARTCHAR C554
ENCODING 12078
SWIDTH 480 0
DWIDTH 8 0
BBX 8 16 0 -2
BITMAP
00
00
00
00
00
54
00
00
00
00
00
00
00
00
00
00
ENDCHAR
STARTCHAR C555
ENCODING 12079
SWIDTH 480 0
DWIDTH 8 0
BBX 8 16 0 -2
BITMAP
00
00
00
00
00
55
00
00
00
00
00
00
00
00
00
00
ENDCHAR
STARTCHAR C556
ENCODING 12080
SWIDTH 480 0
DWIDTH 8 0
BBX 8 16 0 -2
BITMAP
00
00
00
00
00
56
00
00
00
00
00
00
00
00
00
00
ENDCHAR
STARTCHAR C557
ENCODING 12081
SWIDTH 480 0
DWIDTH 8 0
BBX 8 16 0 -2
BITMAP
00
00
00
00
00
57
00
00
00
00
00
00
00
00
00
00
ENDCHAR
STARTCHAR C558
ENCODING 12082
SWIDTH 480 0
DWIDTH 8 0
BBX 8 16 0 -2
BITMAP
00
00
00
00
00
58
00
00
00
00
00
00
00
00
00
00
ENDCHAR
STARTCHAR C559
ENCODING 12083
SWIDTH 480 0
DWIDTH 8 0
BBX 8 16 0 -2
BITMAP
00
00
00
00
00
59
00
00
00
00
00
00
00
00
00
00
ENDCHAR
STARTCHAR C55a
ENCODING 12084
SWIDTH 480 0
DWIDTH 8 0
BBX 8 16 0 -2
BITMAP
00
00
00
00
00
5a
00
00
00
00
00
00
00
00
00
00
ENDCHAR
STARTCHAR C55b
ENCODING 12085
SWIDTH 480 0
DWIDTH 8 0
BBX 8 16 0 -2
BITMAP
00
00
00
00
00
5b
00
00
00
00
00
00
00
00
00
00
ENDCHAR
STARTCHAR C55c
ENCODING 12086
SWIDTH 480 0
DWIDTH 8 0
BBX 8 16 0 -2
BITMAP
00
00
00
00
00
5c
00
00
00
00
00
00
00
00
00
00
ENDCHAR
STARTCHAR C55d
ENCODING 12087
SWIDTH 480 0
DWIDTH 8 0
BBX 8 16 0 -2
BITMAP
00
00
00
00
00
5d
00
00
00
00
00
00
00
00
00
00
ENDCHAR
STARTCHAR C55e
ENCODING 12088
SWIDTH 480 0
DWIDTH 8 0
BBX 8 16 0 -2
BITMAP
00
00
00
00
00
5e
00
00
00
00
00
00
00
00
00
00
ENDCHAR
STARTCHAR C55f
ENCODING 12089
SWIDTH 480 0
DWIDTH 8 0
BBX 8 16 0 -2
BITMAP
00
00
00
00
00
5f
00
00
00
00
00
00
00
00
00
00
ENDCHAR
STARTCHAR C560
ENCODING 12090
SWIDTH 480 0
DWIDTH 8 0
BBX 8 16 0 -2
BITMAP
00
00
00
00
00
60
00
00
00
00
00
00
00
00
00
00
ENDCHAR
STARTCHAR C561
ENCODING 12091
SWIDTH 480 0
DWIDTH 8 0
BBX 8 16 0 -2
BITMAP
00
00
00
00
00
61
00
00
00
00
00
00
00
00
00
00
ENDCHAR
STARTCHAR C562
ENCODING 12092
SWIDTH 480 0
DWIDTH 8 0
BBX 8 16 0 -2
BITMAP
00
00
00
00
00
62
00
00
00
00
00
00
00
00
00
00
ENDCHAR
STARTCHAR C563
ENCODING 12093
SWIDTH 480 0
DWIDTH 8 0
BBX 8 16 0 -2
BITMAP
00
00
00
00
00
63
00
00
00
00
00
00
00
00
00
00
ENDCHAR
STARTCHAR C564
ENCODING 12094
SWIDTH 480 0
DWIDTH 8 0
BBX 8 16 0 -2
BITMAP
00
00
00
00
00
64
00
00
00
00
00
00
00
00
00
00
ENDCHAR
STARTCHAR C565
ENCODING 12095
SWIDTH 480 0
DWIDTH 8 0
BBX 8 16 0 -2
BITMAP
00
00
00
00
00
65
00
00
00
00
00
00
00
00
00
00
ENDCHAR
STARTCHAR C566
ENCODING 12096
SWIDTH 480 0
DWIDTH 8 0
BBX 8 16 0 -2
BITMAP
00
00
00
00
00
66
00
00
00
00
00
00
00
00
00
00
ENDCHAR
STARTCHAR C567
ENCODING 12097
SWIDTH 480 0
DWIDTH 8 0
BBX 8 16 0 -2
BITMAP
00
00
00
00
00
67
00
00
00
00
00
00
00
00
00
00
ENDCHAR
STARTCHAR C568
ENCODING 12098
SWIDTH 480 0
DWIDTH 8 0
BBX 8 16 0 -2
BITMAP
00
00
00
00
00
68
00
00
00
00
00
00
00
00
00
00
ENDCHAR
STARTCHAR C569
ENCODING 12099
SWIDTH 480 0
DWIDTH 8 0
BBX 8 16 0 -2
BITMAP
00
00
00
00
00
69
00
00
00
00
00
00
00
00
00
00
ENDCHAR
STARTCHAR C56a
ENCODING 12100
SWIDTH 480 0
DWIDTH 8 0
BBX 8 16 0 -2
BITMAP
00
00
00
00
00
6a
00
00
00
00
00
00
00
00
00
00
ENDCHAR
STARTCHAR C56b
ENCODING 12101
SWIDTH 480 0
DWIDTH 8 0
BBX 8 16 0 -2
BITMAP
00
00
00
00
00
6b
00
00
00
00
00
00
00
00
00
00
ENDCHAR
STARTCHAR C56c
ENCODING 12102
SWIDTH 480 0
DWIDTH 8 0
BBX 8 16 0 -2
BITMAP
00
00
00
00
00
6c
00
00
00
00
00
00
00
00
00
00
ENDCHAR
STARTCHAR C56d
ENCODING 12103
SWIDTH 480 0
DWIDTH 8 0
BBX 8 16 0 -2
BITMAP
00
00
00
00
00
6d
00
00
00
00
00
00
00
00
00
00
ENDCHAR
STARTCHAR C56e
ENCODING 12104
SWIDTH 480 0
DWIDTH 8 0
BBX 8 16 0 -2
BITMAP
00
00
00
00
00
6e
00
00
00
00
00
00
00
00
00
00
ENDCHAR
STARTCHAR C56f
ENCODING 12105
SWIDTH 480 0
DWIDTH 8 0
BBX 8 16 0 -2
BITMAP
00
00
00
00
00
6f
00
00
00
00
00
00
00
00
00
00
ENDCHAR
STARTCHAR C570
ENCODING 12106
SWIDTH 480 0
DWIDTH 8 0
BBX 8 16 0 -2
BITMAP
00
00
00
00
00
70
00
00
00
00
00
00
00
00
00
00
ENDCHAR
STARTCHAR C571
ENCODING 12107
SWIDTH 480 0
DWIDTH 8 0
BBX 8 16 0 -2
BITMAP
00
00
00
00
00
71
00
00
00
00
00
00
00
00
00
00
ENDCHAR
STARTCHAR C572
ENCODING 12108
SWIDTH 480 0
DWIDTH 8 0
BBX 8 16 0 -2
BITMAP
00
00
00
00
00
72
00
00
00
00
00
00
00
00
00
00
ENDCHAR
STARTCHAR C573
ENCODING 12109
SWIDTH 480 0
DWIDTH 8 0
BBX 8 16 0 -2
BITMAP
00
00
00
00
00
73
00
00
00
00
00
00
00
00
00
00
ENDCHAR
STARTCHAR C574
ENCODING 12110
SWIDTH 480 0
DWIDTH 8 0
BBX 8 16 0 -2
BITMAP
00
00
00
00
00
74
00
00
00
00
00
00
00
00
00
00
ENDCHAR
STARTCHAR C575
ENCODING 12111
SWIDTH 480 0
DWIDTH 8 0
BBX 8 16 0 -2
BITMAP
00
00
00
00
00
75
00
00
00
00
00
00
00
00
00
00
ENDCHAR
STARTCHAR C576
ENCODING 12112
SWIDTH 480 0
DWIDTH 8 0
BBX 8 16 0 -2
BITMAP
00
00
00
00
00
76
00
00
00
00
00
00
00
00
00
00
ENDCHAR
STARTCHAR C577
ENCODING 12113
SWIDTH 480 0
DWIDTH 8 0
BBX 8 16 0 -2
BITMAP
00
00
00
00
00
77
00
00
00
00
00
00
00
00
00
00
ENDCHAR
STARTCHAR C578
ENCODING 12114
SWIDTH 480 0
DWIDTH 8 0
BBX 8 16 0 -2
BITMAP
00
00
00
00
00
78
00
00
00
00
00
00
00
00
00
00
ENDCHAR
STARTCHAR C579
ENCODING 12115
SWIDTH 480 0
DWIDTH 8 0
BBX 8 16 0 -2
BITMAP
00
00
00
00
00
79
00
00
00
00
00
00
00
00
00
00
ENDCHAR
STARTCHAR C57a
ENCODING 12116
SWIDTH 480 0
DWIDTH 8 0
BBX 8 16 0 -2
BITMAP
00
00
00
00
00
7a
00
00
00
00
00
00
00
00
00
00
ENDCHAR
STARTCHAR C57b
ENCODING 12117
SWIDTH 480 0
DWIDTH 8 0
BBX 8 16 0 -2
BITMAP
00
00
00
00
00
7b
00
00
00
00
00
00
00
00
00
00
ENDCHAR
STARTCHAR C57c
ENCODING 12118
SWIDTH 480 0
DWIDTH 8 0
BBX 8 16 0 -2
BITMAP
00
00
00
00
00
7c
00
00
00
00
00
00
00
00
00
00
ENDCHAR
STARTCHAR C57d
ENCODING 12119
SWIDTH 480 0
DWIDTH 8 0
BBX 8 16 0 -2
BITMAP
00
00
00
00
00
7d
00
00
00
00
00
00
00
00
00
00
ENDCHAR
STARTCHAR C57e
ENCODING 12120
SWIDTH 480 0
DWIDTH 8 0
BBX 8 16 0 -2
BITMAP
00
00
00
00
00
7e
00
00
00
00
00
00
00
00
00
00
ENDCHAR
STARTCHAR C57f
ENCODING 12121
SWIDTH 480 0
DWIDTH 8 0
BBX 8 16 0 -2
BITMAP
00
00
00
00
00
7f
00
00
00
00
00
00
00
00
00
00
ENDCHAR
STARTCHAR C580
ENCODING 12122
SWIDTH 480 0
DWIDTH 8 0
BBX 8 16 0 -2
BITMAP
00
00
00
00
00
80
00
00
00
00
00
00
00
00
00
00
ENDCHAR
STARTCHAR C581
ENCODING 12123
SWIDTH 480 0
DWIDTH 8 0
BBX 8 16 0 -2
BITMAP
00
00
00
00
00
81
00
00
00
00
00
00
00
00
00
00
ENDCHAR
STARTCHAR C582
ENCODING 12124
SWIDTH 480 0
DWIDTH 8 0
BBX 8 16 0 -2
BITMAP
00
00
00
00
00
82
00
00
00
00
00
00
00
00
00
00
ENDCHAR
STARTCHAR C583
ENCODING 12125
SWIDTH 480 0
DWIDTH 8 0
BBX 8 16 0 -2
BITMAP
00
00
00
00
00
83
00
00
00
00
00
00
00
00
00
00
ENDCHAR
STARTCHAR C584
ENCODING 12126
SWIDTH 480 0
DWIDTH 8 0
BBX 8 16 0 -2
BITMAP
00
00
00
00
00
84
00
00
00
00
00
00
00
00
00
00
ENDCHAR
STARTCHAR C585
ENCODING 12127
SWIDTH 480 0
DWIDTH 8 0
BBX 8 16 0 -2
BITMAP
00
00
00
00
00
85
00
00
00
00
00
00
00
00
00
00
ENDCHAR
STARTCHAR C586
ENCODING 12128
SWIDTH 480 0
DWIDTH 8 0
BBX 8 16 0 -2
BITMAP
00
00
00
00
00
86
00
00
00
00
00
00
00
00
00
00
ENDCHAR
STARTCHAR C587
ENCODING 12129
SWIDTH 480 0
DWIDTH 8 0
BBX 8 16 0 -2
BITMAP
00
00
00
00
00
87
00
00
00
00
00
00
00
00
00
00
ENDCHAR
STARTCHAR C588
ENCODING 12130
SWIDTH 480 0
DWIDTH 8 0
BBX 8 16 0 -2
BITMAP
00
00
00
00
00
88
00
00
00
00
00
00
00
00
00
00
ENDCHAR
STARTCHAR C589
ENCODING 12131
SWIDTH 480 0
DWIDTH 8 0
BBX 8 16 0 -2
BITMAP
00
00
00
00
00
89
00
00
00
00
00
00
00
00
00
00
ENDCHAR
STARTCHAR C58a
ENCODING 12132
SWIDTH 480 0
DWIDTH 8 0
BBX 8 16 0 -2
BITMAP
00
00
00
00
00
8a
00
00
00
00
00
00
00
00
00
00
ENDCHAR
STARTCHAR C58b
ENCODING 12133
SWIDTH 480 0
DWIDTH 8 0
BBX 8 16 0 -2
BITMAP
00
00
00
00
00
8b
00
00
00
00
00
00
00
00
00
00
ENDCHAR
STARTCHAR C58c
ENCODING 12134
SWIDTH 480 0
DWIDTH 8 0
BBX 8 16 0 -2
BITMAP
00
00
00
00
00
8c
00
00
00
00
00
00
00
00
00
00
ENDCHAR
STARTCHAR C58d
ENCODING 12135
SWIDTH 480 0
DWIDTH 8 0
BBX 8 16 0 -2
BITMAP
00
00
00
00
00
8d
00
00
00
00
00
00
00
00
00
00
ENDCHAR
STARTCHAR C58e
ENCODING 12136
SWIDTH 480 0
DWIDTH 8 0
BBX 8 16 0 -2
BITMAP
00
00
00
00
00
8e
00
00
00
00
00
00
00
00
00
00
ENDCHAR
STARTCHAR C58f
ENCODING 12137
SWIDTH 480 0
DWIDTH 8 0
BBX 8 16 0 -2
BITMAP
00
00
00
00
00
8f
00
00
00
00
00
00
00
00
00
00
ENDCHAR
STARTCHAR C590
ENCODING 12138
SWIDTH 480 0
DWIDTH 8 0
BBX 8 16 0 -2
BITMAP
00
00
00
00
00
90
00
00
00
00
00
00
00
00
00
00
ENDCHAR
STARTCHAR C591
ENCODING 12139
SWIDTH 480 0
DWIDTH 8 0
BBX 8 16 0 -2
BITMAP
00
00
00
00
00
91
00
00
00
00
00
00
00
00
00
00
ENDCHAR
STARTCHAR C592
ENCODING 12140
SWIDTH 480 0
DWIDTH 8 0
BBX 8 16 0 -2
BITMAP
00
00
00
00
00
92
00
00
00
00
00
00
00
00
00
00
ENDCHAR
STARTCHAR C593
ENCODING 12141
SWIDTH 480 0
DWIDTH 8 0
BBX 8 16 0 -2
BITMAP
00
00
00
00
00
93
00
00
00
00
00
00
00
00
00
00
ENDCHAR
STARTCHAR C594
ENCODING 12142
SWIDTH 480 0
DWIDTH 8 0
BBX 8 16 0 -2
BITMAP
00
00
00
00
00
94
00
00
00
00
00
00
00
00
00
00
ENDCHAR
STARTCHAR C595
ENCODING 12143
SWIDTH 480 0
DWIDTH 8 0
BBX 8 16 0 -2
BITMAP
00
00
00
00
00
95
00
00
00
00
00
00
00
00
00
00
ENDCHAR
STARTCHAR C596
ENCODING 12144
SWIDTH 480 0
DWIDTH 8 0
BBX 8 16 0 -2
BITMAP
00
00
00
00
00
96
00
00
00
00
00
00
00
00
00
00
ENDCHAR
STARTCHAR C597
ENCODING 12145
SWIDTH 480 0
DWIDTH 8 0
BBX 8 16 0 -2
BITMAP
00
00
00
00
00
97
00
00
00
00
00
00
00
00
00
00
ENDCHAR
STARTCHAR C598
ENCODING 12146
SWIDTH 480 0
DWIDTH 8 0
BBX 8 16 0 -2
BITMAP
00
00
00
00
00
98
00
00
00
00
00
00
00
00
00
00
ENDCHAR
STARTCHAR C599
ENCODING 12147
SWIDTH 480 0
DWIDTH 8 0
BBX 8 16 0 -2
BITMAP
00
00
00
00
00
99
00
00
00
00
00
00
00
00
00
00
ENDCHAR
STARTCHAR C59a
ENCODING 12148
SWIDTH 480 0
DWIDTH 8 0
BBX 8 16 0 -2
BITMAP
00
00
00
00
00
9a
00
00
00
00
00
00
00
00
00
00
ENDCHAR
STARTCHAR C59b
ENCODING 12149
SWIDTH 480 0
DWIDTH 8 0
BBX 8 16 0 -2
BITMAP
00
00
00
00
00
9b
00
00
00
00
00
00
00
00
00
00
ENDCHAR
STARTCHAR C59c
ENCODING 12150
SWIDTH 480 0
DWIDTH 8 0
BBX 8 16 0 -2
BITMAP
00
00
00
00
00
9c
00
00
00
00
00
00
00
00
00
00
ENDCHAR
STARTCHAR C59d
ENCODING 12151
SWIDTH 480 0
DWIDTH 8 0
BBX 8 16 0 -2
BITMAP
00
00
00
00
00
9d
00
00
00
00
00
00
00
00
00
00
ENDCHAR
STARTCHAR C59e
ENCODING 12152
SWIDTH 480 0
DWIDTH 8 0
BBX 8 16 0 -2
BITMAP
00
00
00
00
00
9e
00
00
00
00
00
00
00
00
00
00
ENDCHAR
STARTCHAR C59f
ENCODING 12153
SWIDTH 480 0
DWIDTH 8 0
BBX 8 16 0 -2
BITMAP
00
00
00
00
00
9f
00
00
00
00
00
00
00
00
00
00
ENDCHAR
STARTCHAR C5a0
ENCODING 12154
SWIDTH 480 0
DWIDTH 8 0
BBX 8 16 0 -2
BITMAP
00
00
00
00
00
a0
00
00
00
00
00
00
00
00
00
00
ENDCHAR
STARTCHAR C5a1
ENCODING 12155
SWIDTH 480 0
DWIDTH 8 0
BBX 8 16 0 -2
BITMAP
00
00
00
00
00
a1
00
00
00
00
00
00
00
00
00
00
ENDCHAR
STARTCHAR C5a2
ENCODING 12156
SWIDTH 480 0
DWIDTH 8 0
BBX 8 16 0 -2
BITMAP
00
00
00
00
00
a2
00
00
00
00
00
00
00
00
00
00
ENDCHAR
STARTCHAR C5a3
ENCODING 12157
SWIDTH 480 0
DWIDTH 8 0
BBX 8 16 0 -2
BITMAP
00
00
00
00
00
a3
00
00
00
00
00
00
00
00
00
00
ENDCHAR
STARTCHAR C5a4
ENCODING 12158
SWIDTH 480 0
DWIDTH 8 0
BBX 8 16 0 -2
BITMAP
00
00
00
00
00
a4
00
00
00
00
00
00
00
00
00
00
ENDCHAR
STARTCHAR C5a5
ENCODING 12159
SWIDTH 480 0
DWIDTH 8 0
BBX 8 16 0 -2
BITMAP
00
00
00
00
00
a5
00
00
00
00
00
00
00
00
00
00
ENDCHAR
STARTCHAR C5a6
ENCODING 12320
SWIDTH 480 0
DWIDTH 8 0
BBX 8 16 0 -2
BITMAP
00
00
00
00
00
a6
00
00
00
00
00
00
00
00
00
00
ENDCHAR
STARTCHAR C5a7
ENCODING 12321
SWIDTH 480 0
DWIDTH 8 0
BBX 8 16 0 -2
BITMAP
00
00
00
00
00
a7
00
00
00
00
00
00
00
00
00
00
ENDCHAR
STARTCHAR C5a8
ENCODING 12322
SWIDTH 480 0
DWIDTH 8 0
BBX 8 16 0 -2
BITMAP
00
00
00
00
00
a8
00
00
00
00
00
00
00
00
00
00
ENDCHAR
STARTCHAR C5a9
ENCODING 12323
SWIDTH 480 0
DWIDTH 8 0
BBX 8 16 0 -2
BITMAP
00
00
00
00
00
a9
00
00
00
00
00
00
00
00
00
00
ENDCHAR
STARTCHAR C5aa
ENCODING 12324
SWIDTH 480 0
DWIDTH 8 0
BBX 8 16 0 -2
BITMAP
00
00
00
00
00
aa
00
00
00
00
00
00
00
00
00
00
ENDCHAR
STARTCHAR C5ab
ENCODING 12325
SWIDTH 480 0
DWIDTH 8 0
BBX 8 16 0 -2
BITMAP
00
00
00
00
00
ab
00
00
00
00
00
00
00
00
00
00
ENDCHAR
STARTCHAR C5ac
ENCODING 12326
SWIDTH 480 0
DWIDTH 8 0
BBX 8 16 0 -2
BITMAP
00
00
00
00
00
ac
00
00
00
00
00
00
00
00
00
00
ENDCHAR
STARTCHAR C5ad
ENCODING 12327
SWIDTH 480 0
DWIDTH 8 0
BBX 8 16 0 -2
BITMAP
00
00
00
00
00
ad
00
00
00
00
00
00
00
00
00
00
ENDCHAR
STARTCHAR C5ae
ENCODING 12328
SWIDTH 480 0
DWIDTH 8 0
BBX 8 16 0 -2
BITMAP
00
00
00
00
00
ae
00
00
00
00
00
00
00
00
00
00
ENDCHAR
STARTCHAR C5af
ENCODING 12329
SWIDTH 480 0
DWIDTH 8 0
BBX 8 16 0 -2
BITMAP
00
00
00
00
00
af
00
00
00
00
00
00
00
00
00
00
ENDCHAR
STARTCHAR C5b0
ENCODING 12330
SWIDTH 480 0
DWIDTH 8 0
BBX 8 16 0 -2
BITMAP
00
00
00
00
00
b0
00
00
00
00
00
00
00
00
00
00
ENDCHAR
STARTCHAR C5b1
ENCODING 12331
SWIDTH 480 0
DWIDTH 8 0
BBX 8 16 0 -2
BITMAP
00
00
00
00
00
b1
00
00
00
00
00
00
00
00
00
00
ENDCHAR
STARTCHAR C5b2
ENCODING 12332
SWIDTH 480 0
DWIDTH 8 0
BBX 8 16 0 -2
BITMAP
00
00
00
00
00
b2
00
00
00
00
00
00
00
00
00
00
ENDCHAR
STARTCHAR C5b3
ENCODING 12333
SWIDTH 480 0
DWIDTH 8 0
BBX 8 16 0 -2
BITMAP
00
00
00
00
00
b3
00
00
00
00
00
00
00
00
00
00
ENDCHAR
STARTCHAR C5b4
ENCODING 12334
SWIDTH 480 0
DWIDTH 8 0
BBX 8 16 0 -2
BITMAP
00
00
00
00
00
b4
00
00
00
00
00
00
00
00
00
00
ENDCHAR
STARTCHAR C5b5
ENCODING 12335
SWIDTH 480 0
DWIDTH 8 0
BBX 8 16 0 -2
BITMAP
00
00
00
00
00
b5
00
00
00
00
00
00
00
00
00
00
ENDCHAR
STARTCHAR C5b6
ENCODING 12336
SWIDTH 480 0
DWIDTH 8 0
BBX 8 16 0 -2
BITMAP
00
00
00
00
00
b6
00
00
00
00
00
00
00
00
00
00
ENDCHAR
STARTCHAR C5b7
ENCODING 12337
SWIDTH 480 0
DWIDTH 8 0
BBX 8 16 0 -2
BITMAP
00
00
00
00
00
b7
00
00
00
00
00
00
00
00
00
00
ENDCHAR
STARTCHAR C5b8
ENCODING 12338
SWIDTH 480 0
DWIDTH 8 0
BBX 8 16 0 -2
BITMAP
00
00
00
00
00
b8
00
00
00
00
00
00
00
00
00
00
ENDCHAR
STARTCHAR C5b9
ENCODING 12339
SWIDTH 480 0
DWIDTH 8 0
BBX 8 16 0 -2
BITMAP
00
00
00
00
00
b9
00
00
00
00
00
00
00
00
00
00
ENDCHAR
STARTCHAR C5ba
ENCODING 12340
SWIDTH 480 0
DWIDTH 8 0
BBX 8 16 0 -2
BITMAP
00
00
00
00
00
ba
00
00
00
00
00
00
00
00
00
00
ENDCHAR
STARTCHAR C5bb
ENCODING 12341
SWIDTH 480 0
DWIDTH 8 0
BBX 8 16 0 -2
BITMAP
00
00
00
00
00
bb
00
00
00
00
00
00
00
00
00
00
ENDCHAR
STARTCHAR C5bc
ENCODING 12342
SWIDTH 480 0
DWIDTH 8 0
BBX 8 16 0 -2
BITMAP
00
00
00
00
00
bc
00
00
00
00
00
00
00
00
00
00
ENDCHAR
STARTCHAR C5bd
ENCODING 12343
SWIDTH 480 0
DWIDTH 8 0
BBX 8 16 0 -2
BITMAP
00
00
00
00
00
bd
00
00
00
00
00
00
00
00
00
00
ENDCHAR
STARTCHAR C5be
ENCODING 12344
SWIDTH 480 0
DWIDTH 8 0
BBX 8 16 0 -2
BITMAP
00
00
00
00
00
be
00
00
00
00
00
00
00
00
00
00
ENDCHAR
STARTCHAR C5bf
ENCODING 12345
SWIDTH 480 0
DWIDTH 8 0
BBX 8 16 0 -2
BITMAP
00
00
00
00
00
bf
00
00
00
00
00
00
00
00
00
00
ENDCHAR
STARTCHAR C5c0
ENCODING 12346
SWIDTH 480 0
DWIDTH 8 0
BBX 8 16 0 -2
BITMAP
00
00
00
00
00
c0
00
00
00
00
00
00
00
00
00
00
ENDCHAR
STARTCHAR C5c1
ENCODING 12347
SWIDTH 480 0
DWIDTH 8 0
BBX 8 16 0 -2
BITMAP
00
00
00
00
00
c1
00
00
00
00
00
00
00
00
00
00
ENDCHAR
STARTCHAR C5c2
ENCODING 12348
SWIDTH 480 0
DWIDTH 8 0
BBX 8 16 0 -2
BITMAP
00
00
00
00
00
c2
00
00
00
00
00
00
00
00
00
00
ENDCHAR
STARTCHAR C5c3
ENCODING 12349
SWIDTH 480 0
DWIDTH 8 0
BBX 8 16 0 -2
BITMAP
00
00
00
00
00
c3
00
00
00
00
00
00
00
00
00
00
ENDCHAR
STARTCHAR C5c4
ENCODING 12350
SWIDTH 480 0
DWIDTH 8 0
BBX 8 16 0 -2
BITMAP
00
00
00
00
00
c4
00
00
00
00
00
00
00
00
00
00
ENDCHAR
STARTCHAR C5c5
ENCODING 12351
SWIDTH 480 0
DWIDTH 8 0
BBX 8 16 0 -2
BITMAP
00
00
00
00
00
c5
00
00
00
00
00
00
00
00
00
00
ENDCHAR
STARTCHAR C5c6
ENCODING 12352
SWIDTH 480 0
DWIDTH 8 0
BBX 8 16 0 -2
BITMAP
00
00
00
00
00
c6
00
00
00
00
00
00
00
00
00
00
ENDCHAR
STARTCHAR C5c7
ENCODING 12353
SWIDTH 480 0
DWIDTH 8 0
BBX 8 16 0 -2
BITMAP
00
00
00
00
00
c7
00
00
00
00
00
00
00
00
00
00
ENDCHAR
STARTCHAR C5c8
ENCODING 12354
SWIDTH 480 0
DWIDTH 8 0
BBX 8 16 0 -2
BITMAP
00
00
00
00
00
c8
00
00
00
00
00
00
00
00
00
00
ENDCHAR
STARTCHAR C5c9
ENCODING 12355
SWIDTH 480 0
DWIDTH 8 0
BBX 8 16 0 -2
BITMAP
00
00
00
00
00
c9
00
00
00
00
00
00
00
00
00
00
ENDCHAR
STARTCHAR C5ca
ENCODING 12356
SWIDTH 480 0
DWIDTH 8 0
BBX 8 16 0 -2
BITMAP
00
00
00
00
00
ca
00
00
00
00
00
00
00
00
00
00
ENDCHAR
STARTCHAR C5cb
ENCODING 12357
SWIDTH 480 0
DWIDTH 8 0
BBX 8 16 0 -2
BITMAP
00
00
00
00
00
cb
00
00
00
00
00
00
00
00
00
00
ENDCHAR
STARTCHAR C5cc
ENCODING 12358
SWIDTH 480 0
DWIDTH 8 0
BBX 8 16 0 -2
BITMAP
00
00
00
00
00
cc
00
00
00
00
00
00
00
00
00
00
ENDCHAR
STARTCHAR C5cd
ENCODING 12359
SWIDTH 480 0
DWIDTH 8 0
BBX 8 16 0 -2
BITMAP
00
00
00
00
00
cd
00
00
00
00
00
00
00
00
00
00
ENDCHAR
STARTCHAR C5ce
ENCODING 12360
SWIDTH 480 0
DWIDTH 8 0
BBX 8 16 0 -2
BITMAP
00
00
00
00
00
ce
00
00
00
00
00
00
00
00
00
00
ENDCHAR
STARTCHAR C5cf
ENCODING 12361
SWIDTH 480 0
DWIDTH 8 0
BBX 8 16 0 -2
BITMAP
00
00
00
00
00
cf
00
00
00
00
00
00
00
00
00
00
ENDCHAR
STARTCHAR C5d0
ENCODING 12362
SWIDTH 480 0
DWIDTH 8 0
BBX 8 16 0 -2
BITMAP
00
00
00
00
00
d0
00
00
00
00
00
00
00
00
00
00
ENDCHAR
STARTCHAR C5d1
ENCODING 12363
SWIDTH 480 0
DWIDTH 8 0
BBX 8 16 0 -2
BITMAP
00
00
00
00
00
d1
00
00
00
00
00
00
00
00
00
00
ENDCHAR
STARTCHAR C5d2
ENCODING 12364
SWIDTH 480 0
DWIDTH 8 0
BBX 8 16 0 -2
BITMAP
00
00
00
00
00
d2
00
00
00
00
00
00
00
00
00
00
ENDCHAR
STARTCHAR C5d3
ENCODING 12365
SWIDTH 480 0
DWIDTH 8 0
BBX 8 16 0 -2
BITMAP
00
00
00
00
00
d3
00
00
00
00
00
00
00
00
00
00
ENDCHAR
STARTCHAR C5d4
ENCODING 12366
SWIDTH 480 0
DWIDTH 8 0
BBX 8 16 0 -2
BITMAP
00
00
00
00
00
d4
00
00
00
00
00
00
00
00
00
00
ENDCHAR
STARTCHAR C5d5
ENCODING 12367
SWIDTH 480 0
DWIDTH 8 0
BBX 8 16 0 -2
BITMAP
00
00
00
00
00
d5
00
00
00
00
00
00
00
00
00
00
ENDCHAR
STARTCHAR C5d6
ENCODING 12368
SWIDTH 480 0
DWIDTH 8 0
BBX 8 16 0 -2
BITMAP
00
00
00
00
00
d6
00
00
00
00
00
00
00
00
00
00
ENDCHAR
STARTCHAR C5d7
ENCODING 12369
SWIDTH 480 0
DWIDTH 8 0
BBX 8 16 0 -2
BITMAP
00
00
00
00
00
d7
00
00
00
00
00
00
00
00
00
00
ENDCHAR
STARTCHAR C5d8
ENCODING 12370
SWIDTH 480 0
DWIDTH 8 0
BBX 8 16 0 -2
BITMAP
00
00
00
00
00
d8
00
00
00
00
00
00
00
00
00
00
ENDCHAR
STARTCHAR C5d9
ENCODING 12371
SWIDTH 480 0
DWIDTH 8 0
BBX 8 16 0 -2
BITMAP
00
00
00
00
00
d9
00
00
00
00
00
00
00
00
00
00
ENDCHAR
STARTCHAR C5da
ENCODING 12372
SWIDTH 480 0
DWIDTH 8 0
BBX 8 16 0 -2
BITMAP
00
00
00
00
00
da
00
00
00
00
00
00
00
00
00
00
ENDCHAR
STARTCHAR C5db
ENCODING 12373
SWIDTH 480 0
DWIDTH 8 0
BBX 8 16 0 -2
BITMAP
00
00
00
00
00
db
00
00
00
00
00
00
00
00
00
00
ENDCHAR
STARTCHAR C5dc
ENCODING 12374
SWIDTH 480 0
DWIDTH 8 0
BBX 8 16 0 -2
BITMAP
00
00
00
00
00
dc
00
00
00
00
00
00
00
00
00
00
ENDCHAR
STARTCHAR C5dd
ENCODING 12375
SWIDTH 480 0
DWIDTH 8 0
BBX 8 16 0 -2
BITMAP
00
00
00
00
00
dd
00
00
00
00
00
00
00
00
00
00
ENDCHAR
STARTCHAR C5de
ENCODING 12376
SWIDTH 480 0
DWIDTH 8 0
BBX 8 16 0 -2
BITMAP
00
00
00
00
00
de
00
00
00
00
00
00
00
00
00
00
ENDCHAR
STARTCHAR C5df
ENCODING 12377
SWIDTH 480 0
DWIDTH 8 0
BBX 8 16 0 -2
BITMAP
00
00
00
00
00
df
00
00
00
00
00
00
00
00
00
00
ENDCHAR
STARTCHAR C5e0
ENCODING 12378
SWIDTH 480 0
DWIDTH 8 0
BBX 8 16 0 -2
BITMAP
00
00
00
00
00
e0
00
00
00
00
00
00
00
00
00
00
ENDCHAR
STARTCHAR C5e1
ENCODING 12379
SWIDTH 480 0
DWIDTH 8 0
BBX 8 16 0 -2
BITMAP
00
00
00
00
00
e1
00
00
00
00
00
00
00
00
00
00
ENDCHAR
STARTCHAR C5e2
ENCODING 12380
SWIDTH 480 0
DWIDTH 8 0
BBX 8 16 0 -2
BITMAP
00
00
00
00
00
e2
00
00
00
00
00
00
00
00
00
00
ENDCHAR
STARTCHAR C5e3
ENCODING 12381
SWIDTH 480 0
DWIDTH 8 0
BBX 8 16 0 -2
BITMAP
00
00
00
00
00
e3
00
00
00
00
00
00
00
00
00
00
ENDCHAR
STARTCHAR C5e4
ENCODING 12382
SWIDTH 480 0
DWIDTH 8 0
BBX 8 16 0 -2
BITMAP
00
00
00
00
00
e4
00
00
00
00
00
00
00
00
00
00
ENDCHAR
STARTCHAR C5e5
ENCODING 12383
SWIDTH 480 0
DWIDTH 8 0
BBX 8 16 0 -2
BITMAP
00
00
00
00
00
e5
00
00
00
00
00
00
00
00
00
00
ENDCHAR
STARTCHAR C5e6
ENCODING 12384
SWIDTH 480 0
DWIDTH 8 0
BBX 8 16 0 -2
BITMAP
00
00
00
00
00
e6
00
00
00
00
00
00
00
00
00
00
ENDCHAR
STARTCHAR C5e7
ENCODING 12385
SWIDTH 480 0
DWIDTH 8 0
BBX 8 16 0 -2
BITMAP
00
00
00
00
00
e7
00
00
00
00
00
00
00
00
00
00
ENDCHAR
STARTCHAR C5e8
ENCODING 12386
SWIDTH 480 0
DWIDTH 8 0
BBX 8 16 0 -2
BITMAP
00
00
00
00
00
e8
00
00
00
00
00
00
00
00
00
00
ENDCHAR
STARTCHAR C5e9
ENCODING 12387
SWIDTH 480 0
DWIDTH 8 0
BBX 8 16 0 -2
BITMAP
00
00
00
00
00
e9
00
00
00
00
00
00
00
00
00
00
ENDCHAR
STARTCHAR C5ea
ENCODING 12388
SWIDTH 480 0
DWIDTH 8 0
BBX 8 16 0 -2
BITMAP
00
00
00
00
00
ea
00
00
00
00
00
00
00
00
00
00
ENDCHAR
STARTCHAR C5eb
ENCODING 12389
SWIDTH 480 0
DWIDTH 8 0
BBX 8 16 0 -2
BITMAP
00
00
00
00
00
eb
00
00
00
00
00
00
00
00
00
00
ENDCHAR
STARTCHAR C5ec
ENCODING 12390
SWIDTH 480 0
DWIDTH 8 0
BBX 8 16 0 -2
BITMAP
00
00
00
00
00
ec
00
00
00
00
00
00
00
00
00
00
ENDCHAR
STARTCHAR C5ed
ENCODING 12391
SWIDTH 480 0
DWIDTH 8 0
BBX 8 16 0 -2
BITMAP
00
00
00
00
00
ed
00
00
00
00
00
00
00
00
00
00
ENDCHAR
STARTCHAR C5ee
ENCODING 12392
SWIDTH 480 0
DWIDTH 8 0
BBX 8 16 0 -2
BITMAP
00
00
00
00
00
ee
00
00
00
00
00
00
00
00
00
00
ENDCHAR
STARTCHAR C5ef
ENCODING 12393
SWIDTH 480 0
DWIDTH 8 0
BBX 8 16 0 -2
BITMAP
00
00
00
00
00
ef
00
00
00
00
00
00
00
00
00
00
ENDCHAR
STARTCHAR C5f0
ENCODING 12394
SWIDTH 480 0
DWIDTH 8 0
BBX 8 16 0 -2
BITMAP
00
00
00
00
00
f0
00
00
00
00
00
00
00
00
00
00
ENDCHAR
STARTCHAR C5f1
ENCODING 12395
SWIDTH 480 0
DWIDTH 8 0
BBX 8 16 0 -2
BITMAP
00
00
00
00
00
f1
00
00
00
00
00
00
00
00
00
00
ENDCHAR
STARTCHAR C5f2
ENCODING 12396
SWIDTH 480 0
DWIDTH 8 0
BBX 8 16 0 -2
BITMAP
00
00
00
00
00
f2
00
00
00
00
00
00
00
00
00
00
ENDCHAR
STARTCHAR C5f3
ENCODING 12397
SWIDTH 480 0
DWIDTH 8 0
BBX 8 16 0 -2
BITMAP
00
00
00
00
00
f3
00
00
00
00
00
00
00
00
00
00
ENDCHAR
STARTCHAR C5f4
ENCODING 12398
SWIDTH 480 0
DWIDTH 8 0
BBX 8 16 0 -2
BITMAP
00
00
00
00
00
f4
00
00
00
00
00
00
00
00
00
00
ENDCHAR
STARTCHAR C5f5
ENCODING 12399
SWIDTH 480 0
DWIDTH 8 0
BBX 8 16 0 -2
BITMAP
00
00
00
00
00
f5
00
00
00
00
00
00
00
00
00
00
ENDCHAR
STARTCHAR C5f6
ENCODING 12400
SWIDTH 480 0
DWIDTH 8 0
BBX 8 16 0 -2
BITMAP
00
00
00
00
00
f6
00
00
00
00
00
00
00
00
00
00
ENDCHAR
STARTCHAR C5f7
ENCODING 12401
SWIDTH 480 0
DWIDTH 8 0
BBX 8 16 0 -2
BITMAP
00
00
00
00
00
f7
00
00
00
00
00
00
00
00
00
00
ENDCHAR
ENDFONT
